ISO-10303-21;
HEADER;

/* File generated by Shapr3D Version 5.710.7459.0 */

FILE_DESCRIPTION(('HOOPS Exchange Step'),'2;1');

FILE_NAME('C:\\Users\\cullm\\AppData\\Local\\Packages\\Shapr3D.Shapr3D_dvv5p1vgwv6mp\\TempState\\export\\temp_export',
'2024-09-14T06:15:31-04:00',
('cullm'),
('Shapr3D Limited'),
'HOOPS Exchange 2024.2',
'Shapr3D',
'Authorized');

FILE_SCHEMA( ('AP242_MANAGED_MODEL_BASED_3D_ENGINEERING_MIM_LF {1 0 10303 442 1 1 4 }') );

ENDSEC;

DATA;
#3=(NAMED_UNIT(*)PLANE_ANGLE_UNIT()SI_UNIT($,.RADIAN.));
#4=PLANE_ANGLE_MEASURE_WITH_UNIT(PLANE_ANGLE_MEASURE(0.0174532925),#3);
#5=(CONVERSION_BASED_UNIT('DEGREE',#4)NAMED_UNIT(#6)PLANE_ANGLE_UNIT());
#6=DIMENSIONAL_EXPONENTS(0.,0.,0.,0.,0.,0.,0.);
#7=(NAMED_UNIT(*)SI_UNIT($,.STERADIAN.)SOLID_ANGLE_UNIT());
#8=(LENGTH_UNIT()NAMED_UNIT(*)SI_UNIT(.MILLI.,.METRE.));
#9=UNCERTAINTY_MEASURE_WITH_UNIT(LENGTH_MEASURE(1.000000E-05),#8,'DISTANCE_ACCURACY_VALUE','Maximum Tolerance applied to model');
#10=(GEOMETRIC_REPRESENTATION_CONTEXT(3)GLOBAL_UNCERTAINTY_ASSIGNED_CONTEXT((#9))GLOBAL_UNIT_ASSIGNED_CONTEXT((#8,#5,#7))REPRESENTATION_CONTEXT('','Body 02'));
#12=CARTESIAN_POINT('',(0.,0.,0.));
#13=DIRECTION('',(0.,0.,1.));
#14=DIRECTION('',(1.,0.,0.));
#15=AXIS2_PLACEMENT_3D('',#12,#13,#14);
#27=CARTESIAN_POINT('',(0.,6.910006157,0.));
#28=DIRECTION('',(0.,-1.,0.));
#29=DIRECTION('',(0.,0.,-1.));
#30=AXIS2_PLACEMENT_3D('',#27,#28,#29);
#31=PLANE('',#30);
#32=CARTESIAN_POINT('',(-213.386562667,6.910006157,437.53));
#33=VERTEX_POINT('',#32);
#34=CARTESIAN_POINT('',(-214.036562667,6.910006157,436.88));
#35=VERTEX_POINT('',#34);
#36=CARTESIAN_POINT('',(-213.386562667,6.910006157,436.88));
#37=DIRECTION('',(0.,-1.,0.));
#38=DIRECTION('',(0.,0.,-1.));
#39=AXIS2_PLACEMENT_3D('',#36,#37,#38);
#40=CIRCLE('',#39,0.65);
#41=EDGE_CURVE('',#33,#35,#40,.T.);
#42=ORIENTED_EDGE('',*,*,#41,.F.);
#43=CARTESIAN_POINT('',(-205.25112412,6.910006157,437.53));
#44=VERTEX_POINT('',#43);
#45=CARTESIAN_POINT('',(-205.25112412,6.910006157,437.53));
#46=DIRECTION('',(-1.,0.,0.));
#47=VECTOR('',#46,8.135438547);
#48=LINE('',#45,#47);
#49=EDGE_CURVE('',#44,#33,#48,.T.);
#50=ORIENTED_EDGE('',*,*,#49,.F.);
#51=CARTESIAN_POINT('',(-205.25112412,6.910006157,436.69));
#52=VERTEX_POINT('',#51);
#53=CARTESIAN_POINT('',(-205.25112412,6.910006157,436.69));
#54=DIRECTION('',(0.,0.,1.));
#55=VECTOR('',#54,0.84);
#56=LINE('',#53,#55);
#57=EDGE_CURVE('',#52,#44,#56,.T.);
#58=ORIENTED_EDGE('',*,*,#57,.F.);
#59=CARTESIAN_POINT('',(-212.896434441,6.910006157,436.69));
#60=VERTEX_POINT('',#59);
#61=CARTESIAN_POINT('',(-212.896434441,6.910006157,436.69));
#62=DIRECTION('',(1.,0.,-0.));
#63=VECTOR('',#62,7.645310321);
#64=LINE('',#61,#63);
#65=EDGE_CURVE('',#60,#52,#64,.T.);
#66=ORIENTED_EDGE('',*,*,#65,.F.);
#67=CARTESIAN_POINT('',(-213.346434441,6.910006157,436.24));
#68=VERTEX_POINT('',#67);
#69=CARTESIAN_POINT('',(-212.896434441,6.910006157,436.24));
#70=DIRECTION('',(0.,-1.,0.));
#71=DIRECTION('',(0.,0.,-1.));
#72=AXIS2_PLACEMENT_3D('',#69,#70,#71);
#73=CIRCLE('',#72,0.45);
#74=EDGE_CURVE('',#60,#68,#73,.T.);
#75=ORIENTED_EDGE('',*,*,#74,.T.);
#76=CARTESIAN_POINT('',(-213.346434441,6.910006157,436.1));
#77=VERTEX_POINT('',#76);
#78=CARTESIAN_POINT('',(-213.346434441,6.910006157,436.1));
#79=DIRECTION('',(0.,0.,1.));
#80=VECTOR('',#79,0.14);
#81=LINE('',#78,#80);
#82=EDGE_CURVE('',#77,#68,#81,.T.);
#83=ORIENTED_EDGE('',*,*,#82,.F.);
#84=CARTESIAN_POINT('',(-212.896434441,6.910006157,435.65));
#85=VERTEX_POINT('',#84);
#86=CARTESIAN_POINT('',(-212.896434441,6.910006157,436.1));
#87=DIRECTION('',(0.,-1.,0.));
#88=DIRECTION('',(0.,0.,-1.));
#89=AXIS2_PLACEMENT_3D('',#86,#87,#88);
#90=CIRCLE('',#89,0.45);
#91=EDGE_CURVE('',#77,#85,#90,.T.);
#92=ORIENTED_EDGE('',*,*,#91,.T.);
#93=CARTESIAN_POINT('',(-205.90112412,6.910006157,435.65));
#94=VERTEX_POINT('',#93);
#95=CARTESIAN_POINT('',(-205.90112412,6.910006157,435.65));
#96=DIRECTION('',(-1.,0.,0.));
#97=VECTOR('',#96,6.995310321);
#98=LINE('',#95,#97);
#99=EDGE_CURVE('',#94,#85,#98,.T.);
#100=ORIENTED_EDGE('',*,*,#99,.F.);
#101=CARTESIAN_POINT('',(-205.25112412,6.910006157,435.));
#102=VERTEX_POINT('',#101);
#103=CARTESIAN_POINT('',(-205.90112412,6.910006157,435.));
#104=DIRECTION('',(0.,-1.,0.));
#105=DIRECTION('',(0.,0.,-1.));
#106=AXIS2_PLACEMENT_3D('',#103,#104,#105);
#107=CIRCLE('',#106,0.65);
#108=EDGE_CURVE('',#102,#94,#107,.T.);
#109=ORIENTED_EDGE('',*,*,#108,.F.);
#110=CARTESIAN_POINT('',(-205.25112412,6.910006157,433.54));
#111=VERTEX_POINT('',#110);
#112=CARTESIAN_POINT('',(-205.25112412,6.910006157,433.54));
#113=DIRECTION('',(0.,0.,1.));
#114=VECTOR('',#113,1.46);
#115=LINE('',#112,#114);
#116=EDGE_CURVE('',#111,#102,#115,.T.);
#117=ORIENTED_EDGE('',*,*,#116,.F.);
#118=CARTESIAN_POINT('',(-205.90112412,6.910006157,432.89));
#119=VERTEX_POINT('',#118);
#120=CARTESIAN_POINT('',(-205.90112412,6.910006157,433.54));
#121=DIRECTION('',(0.,-1.,0.));
#122=DIRECTION('',(0.,0.,-1.));
#123=AXIS2_PLACEMENT_3D('',#120,#121,#122);
#124=CIRCLE('',#123,0.65);
#125=EDGE_CURVE('',#119,#111,#124,.T.);
#126=ORIENTED_EDGE('',*,*,#125,.F.);
#127=CARTESIAN_POINT('',(-214.036562667,6.910006157,432.89));
#128=VERTEX_POINT('',#127);
#129=CARTESIAN_POINT('',(-214.036562667,6.910006157,432.89));
#130=DIRECTION('',(1.,0.,-0.));
#131=VECTOR('',#130,8.135438547);
#132=LINE('',#129,#131);
#133=EDGE_CURVE('',#128,#119,#132,.T.);
#134=ORIENTED_EDGE('',*,*,#133,.F.);
#135=CARTESIAN_POINT('',(-214.036562667,6.910006157,433.774590473));
#136=VERTEX_POINT('',#135);
#137=CARTESIAN_POINT('',(-214.036562667,6.910006157,433.774590473));
#138=DIRECTION('',(0.,0.,-1.));
#139=VECTOR('',#138,0.884590473);
#140=LINE('',#137,#139);
#141=EDGE_CURVE('',#136,#128,#140,.T.);
#142=ORIENTED_EDGE('',*,*,#141,.F.);
#143=CARTESIAN_POINT('',(-206.554967782,6.910006157,433.774590473));
#144=VERTEX_POINT('',#143);
#145=CARTESIAN_POINT('',(-206.554967782,6.910006157,433.774590473));
#146=DIRECTION('',(-1.,0.,0.));
#147=VECTOR('',#146,7.481594885);
#148=LINE('',#145,#147);
#149=EDGE_CURVE('',#144,#136,#148,.T.);
#150=ORIENTED_EDGE('',*,*,#149,.F.);
#151=CARTESIAN_POINT('',(-206.004975314,6.910006157,434.321712054));
#152=VERTEX_POINT('',#151);
#153=CARTESIAN_POINT('',(-206.554967782,6.910006157,434.324590473));
#154=DIRECTION('',(0.,-1.,0.));
#155=DIRECTION('',(0.,0.,-1.));
#156=AXIS2_PLACEMENT_3D('',#153,#154,#155);
#157=CIRCLE('',#156,0.55);
#158=EDGE_CURVE('',#144,#152,#157,.T.);
#159=ORIENTED_EDGE('',*,*,#158,.T.);
#160=CARTESIAN_POINT('',(-206.004870643,6.910006157,434.341712052));
#161=VERTEX_POINT('',#160);
#162=CARTESIAN_POINT('',(-206.004870643,6.910006157,434.341712052));
#163=DIRECTION('',(-0.005233478,0.,-0.999986305));
#164=VECTOR('',#163,0.020000272);
#165=LINE('',#162,#164);
#166=EDGE_CURVE('',#161,#152,#165,.T.);
#167=ORIENTED_EDGE('',*,*,#166,.F.);
#168=CARTESIAN_POINT('',(-206.554863111,6.910006157,434.894590473));
#169=VERTEX_POINT('',#168);
#170=CARTESIAN_POINT('',(-206.554863111,6.910006157,434.344590473));
#171=DIRECTION('',(0.,-1.,0.));
#172=DIRECTION('',(0.,0.,-1.));
#173=AXIS2_PLACEMENT_3D('',#170,#171,#172);
#174=CIRCLE('',#173,0.55);
#175=EDGE_CURVE('',#161,#169,#174,.T.);
#176=ORIENTED_EDGE('',*,*,#175,.T.);
#177=CARTESIAN_POINT('',(-213.386562667,6.910006157,434.894590473));
#178=VERTEX_POINT('',#177);
#179=CARTESIAN_POINT('',(-213.386562667,6.910006157,434.894590473));
#180=DIRECTION('',(1.,0.,-0.));
#181=VECTOR('',#180,6.831699556);
#182=LINE('',#179,#181);
#183=EDGE_CURVE('',#178,#169,#182,.T.);
#184=ORIENTED_EDGE('',*,*,#183,.F.);
#185=CARTESIAN_POINT('',(-214.036562667,6.910006157,435.544590473));
#186=VERTEX_POINT('',#185);
#187=CARTESIAN_POINT('',(-213.386562667,6.910006157,435.544590473));
#188=DIRECTION('',(0.,-1.,0.));
#189=DIRECTION('',(0.,0.,-1.));
#190=AXIS2_PLACEMENT_3D('',#187,#188,#189);
#191=CIRCLE('',#190,0.65);
#192=EDGE_CURVE('',#186,#178,#191,.T.);
#193=ORIENTED_EDGE('',*,*,#192,.F.);
#194=CARTESIAN_POINT('',(-214.036562667,6.910006157,436.88));
#195=DIRECTION('',(0.,0.,-1.));
#196=VECTOR('',#195,1.335409527);
#197=LINE('',#194,#196);
#198=EDGE_CURVE('',#35,#186,#197,.T.);
#199=ORIENTED_EDGE('',*,*,#198,.F.);
#200=EDGE_LOOP('',(#42,#50,#58,#66,#75,#83,#92,#100,#109,#117,#126,#134,#142,#150,#159,#167,#176,#184,#193,#199));
#201=FACE_BOUND('',#200,.T.);
#202=ADVANCED_FACE('',(#201),#31,.F.);
#203=CARTESIAN_POINT('',(-213.386562667,8.110006157,436.88));
#204=DIRECTION('',(0.,-1.,0.));
#205=DIRECTION('',(0.,0.,-1.));
#206=AXIS2_PLACEMENT_3D('',#203,#204,#205);
#207=CYLINDRICAL_SURFACE('',#206,0.65);
#208=ORIENTED_EDGE('',*,*,#41,.T.);
#209=CARTESIAN_POINT('',(-214.036562667,4.910006157,436.88));
#210=VERTEX_POINT('',#209);
#211=CARTESIAN_POINT('',(-214.036562667,6.910006157,436.88));
#212=DIRECTION('',(0.,-1.,0.));
#213=VECTOR('',#212,2.);
#214=LINE('',#211,#213);
#215=EDGE_CURVE('',#35,#210,#214,.T.);
#216=ORIENTED_EDGE('',*,*,#215,.T.);
#217=CARTESIAN_POINT('',(-213.386562667,4.910006157,437.53));
#218=VERTEX_POINT('',#217);
#219=CARTESIAN_POINT('',(-213.386562667,4.910006157,436.88));
#220=DIRECTION('',(0.,-1.,0.));
#221=DIRECTION('',(0.,0.,-1.));
#222=AXIS2_PLACEMENT_3D('',#219,#220,#221);
#223=CIRCLE('',#222,0.65);
#224=EDGE_CURVE('',#218,#210,#223,.T.);
#225=ORIENTED_EDGE('',*,*,#224,.F.);
#226=CARTESIAN_POINT('',(-213.386562667,6.910006157,437.53));
#227=DIRECTION('',(0.,-1.,0.));
#228=VECTOR('',#227,2.);
#229=LINE('',#226,#228);
#230=EDGE_CURVE('',#33,#218,#229,.T.);
#231=ORIENTED_EDGE('',*,*,#230,.F.);
#232=EDGE_LOOP('',(#208,#216,#225,#231));
#233=FACE_BOUND('',#232,.T.);
#234=ADVANCED_FACE('',(#233),#207,.T.);
#235=CARTESIAN_POINT('',(-209.318843393,8.110006157,437.53));
#236=DIRECTION('',(0.,0.,1.));
#237=DIRECTION('',(1.,0.,0.));
#238=AXIS2_PLACEMENT_3D('',#235,#236,#237);
#239=PLANE('',#238);
#240=ORIENTED_EDGE('',*,*,#49,.T.);
#241=ORIENTED_EDGE('',*,*,#230,.T.);
#242=CARTESIAN_POINT('',(-205.25112412,4.910006157,437.53));
#243=VERTEX_POINT('',#242);
#244=CARTESIAN_POINT('',(-205.25112412,4.910006157,437.53));
#245=DIRECTION('',(-1.,0.,0.));
#246=VECTOR('',#245,8.135438547);
#247=LINE('',#244,#246);
#248=EDGE_CURVE('',#243,#218,#247,.T.);
#249=ORIENTED_EDGE('',*,*,#248,.F.);
#250=CARTESIAN_POINT('',(-205.25112412,6.910006157,437.53));
#251=DIRECTION('',(0.,-1.,0.));
#252=VECTOR('',#251,2.);
#253=LINE('',#250,#252);
#254=EDGE_CURVE('',#44,#243,#253,.T.);
#255=ORIENTED_EDGE('',*,*,#254,.F.);
#256=EDGE_LOOP('',(#240,#241,#249,#255));
#257=FACE_BOUND('',#256,.T.);
#258=ADVANCED_FACE('',(#257),#239,.T.);
#259=CARTESIAN_POINT('',(-205.25112412,8.110006157,437.11));
#260=DIRECTION('',(1.,0.,0.));
#261=DIRECTION('',(0.,0.,-1.));
#262=AXIS2_PLACEMENT_3D('',#259,#260,#261);
#263=PLANE('',#262);
#264=ORIENTED_EDGE('',*,*,#57,.T.);
#265=ORIENTED_EDGE('',*,*,#254,.T.);
#266=CARTESIAN_POINT('',(-205.25112412,4.910006157,436.69));
#267=VERTEX_POINT('',#266);
#268=CARTESIAN_POINT('',(-205.25112412,4.910006157,436.69));
#269=DIRECTION('',(0.,0.,1.));
#270=VECTOR('',#269,0.84);
#271=LINE('',#268,#270);
#272=EDGE_CURVE('',#267,#243,#271,.T.);
#273=ORIENTED_EDGE('',*,*,#272,.F.);
#274=CARTESIAN_POINT('',(-205.25112412,6.910006157,436.69));
#275=DIRECTION('',(0.,-1.,0.));
#276=VECTOR('',#275,2.);
#277=LINE('',#274,#276);
#278=EDGE_CURVE('',#52,#267,#277,.T.);
#279=ORIENTED_EDGE('',*,*,#278,.F.);
#280=EDGE_LOOP('',(#264,#265,#273,#279));
#281=FACE_BOUND('',#280,.T.);
#282=ADVANCED_FACE('',(#281),#263,.T.);
#283=CARTESIAN_POINT('',(-209.07377928,8.110006157,436.69));
#284=DIRECTION('',(0.,0.,-1.));
#285=DIRECTION('',(-1.,0.,0.));
#286=AXIS2_PLACEMENT_3D('',#283,#284,#285);
#287=PLANE('',#286);
#288=ORIENTED_EDGE('',*,*,#65,.T.);
#289=ORIENTED_EDGE('',*,*,#278,.T.);
#290=CARTESIAN_POINT('',(-212.896434441,4.910006157,436.69));
#291=VERTEX_POINT('',#290);
#292=CARTESIAN_POINT('',(-212.896434441,4.910006157,436.69));
#293=DIRECTION('',(1.,0.,-0.));
#294=VECTOR('',#293,7.645310321);
#295=LINE('',#292,#294);
#296=EDGE_CURVE('',#291,#267,#295,.T.);
#297=ORIENTED_EDGE('',*,*,#296,.F.);
#298=CARTESIAN_POINT('',(-212.896434441,6.910006157,436.69));
#299=DIRECTION('',(0.,-1.,0.));
#300=VECTOR('',#299,2.);
#301=LINE('',#298,#300);
#302=EDGE_CURVE('',#60,#291,#301,.T.);
#303=ORIENTED_EDGE('',*,*,#302,.F.);
#304=EDGE_LOOP('',(#288,#289,#297,#303));
#305=FACE_BOUND('',#304,.T.);
#306=ADVANCED_FACE('',(#305),#287,.T.);
#307=CARTESIAN_POINT('',(-212.896434441,8.110006157,436.24));
#308=DIRECTION('',(0.,-1.,0.));
#309=DIRECTION('',(0.,0.,-1.));
#310=AXIS2_PLACEMENT_3D('',#307,#308,#309);
#311=CYLINDRICAL_SURFACE('',#310,0.45);
#312=ORIENTED_EDGE('',*,*,#302,.T.);
#313=CARTESIAN_POINT('',(-213.346434441,4.910006157,436.24));
#314=VERTEX_POINT('',#313);
#315=CARTESIAN_POINT('',(-212.896434441,4.910006157,436.24));
#316=DIRECTION('',(0.,-1.,0.));
#317=DIRECTION('',(0.,0.,-1.));
#318=AXIS2_PLACEMENT_3D('',#315,#316,#317);
#319=CIRCLE('',#318,0.45);
#320=EDGE_CURVE('',#291,#314,#319,.T.);
#321=ORIENTED_EDGE('',*,*,#320,.T.);
#322=CARTESIAN_POINT('',(-213.346434441,6.910006157,436.24));
#323=DIRECTION('',(0.,-1.,0.));
#324=VECTOR('',#323,2.);
#325=LINE('',#322,#324);
#326=EDGE_CURVE('',#68,#314,#325,.T.);
#327=ORIENTED_EDGE('',*,*,#326,.F.);
#328=ORIENTED_EDGE('',*,*,#74,.F.);
#329=EDGE_LOOP('',(#312,#321,#327,#328));
#330=FACE_BOUND('',#329,.T.);
#331=ADVANCED_FACE('',(#330),#311,.F.);
#332=CARTESIAN_POINT('',(-213.346434441,8.110006157,436.17));
#333=DIRECTION('',(1.,0.,0.));
#334=DIRECTION('',(0.,0.,-1.));
#335=AXIS2_PLACEMENT_3D('',#332,#333,#334);
#336=PLANE('',#335);
#337=ORIENTED_EDGE('',*,*,#82,.T.);
#338=ORIENTED_EDGE('',*,*,#326,.T.);
#339=CARTESIAN_POINT('',(-213.346434441,4.910006157,436.1));
#340=VERTEX_POINT('',#339);
#341=CARTESIAN_POINT('',(-213.346434441,4.910006157,436.1));
#342=DIRECTION('',(0.,0.,1.));
#343=VECTOR('',#342,0.14);
#344=LINE('',#341,#343);
#345=EDGE_CURVE('',#340,#314,#344,.T.);
#346=ORIENTED_EDGE('',*,*,#345,.F.);
#347=CARTESIAN_POINT('',(-213.346434441,6.910006157,436.1));
#348=DIRECTION('',(0.,-1.,0.));
#349=VECTOR('',#348,2.);
#350=LINE('',#347,#349);
#351=EDGE_CURVE('',#77,#340,#350,.T.);
#352=ORIENTED_EDGE('',*,*,#351,.F.);
#353=EDGE_LOOP('',(#337,#338,#346,#352));
#354=FACE_BOUND('',#353,.T.);
#355=ADVANCED_FACE('',(#354),#336,.T.);
#356=CARTESIAN_POINT('',(-212.896434441,8.110006157,436.1));
#357=DIRECTION('',(0.,-1.,0.));
#358=DIRECTION('',(0.,0.,-1.));
#359=AXIS2_PLACEMENT_3D('',#356,#357,#358);
#360=CYLINDRICAL_SURFACE('',#359,0.45);
#361=ORIENTED_EDGE('',*,*,#351,.T.);
#362=CARTESIAN_POINT('',(-212.896434441,4.910006157,435.65));
#363=VERTEX_POINT('',#362);
#364=CARTESIAN_POINT('',(-212.896434441,4.910006157,436.1));
#365=DIRECTION('',(0.,-1.,0.));
#366=DIRECTION('',(0.,0.,-1.));
#367=AXIS2_PLACEMENT_3D('',#364,#365,#366);
#368=CIRCLE('',#367,0.45);
#369=EDGE_CURVE('',#340,#363,#368,.T.);
#370=ORIENTED_EDGE('',*,*,#369,.T.);
#371=CARTESIAN_POINT('',(-212.896434441,6.910006157,435.65));
#372=DIRECTION('',(0.,-1.,0.));
#373=VECTOR('',#372,2.);
#374=LINE('',#371,#373);
#375=EDGE_CURVE('',#85,#363,#374,.T.);
#376=ORIENTED_EDGE('',*,*,#375,.F.);
#377=ORIENTED_EDGE('',*,*,#91,.F.);
#378=EDGE_LOOP('',(#361,#370,#376,#377));
#379=FACE_BOUND('',#378,.T.);
#380=ADVANCED_FACE('',(#379),#360,.F.);
#381=CARTESIAN_POINT('',(-209.39877928,8.110006157,435.65));
#382=DIRECTION('',(0.,0.,1.));
#383=DIRECTION('',(1.,0.,0.));
#384=AXIS2_PLACEMENT_3D('',#381,#382,#383);
#385=PLANE('',#384);
#386=ORIENTED_EDGE('',*,*,#99,.T.);
#387=ORIENTED_EDGE('',*,*,#375,.T.);
#388=CARTESIAN_POINT('',(-205.90112412,4.910006157,435.65));
#389=VERTEX_POINT('',#388);
#390=CARTESIAN_POINT('',(-205.90112412,4.910006157,435.65));
#391=DIRECTION('',(-1.,0.,0.));
#392=VECTOR('',#391,6.995310321);
#393=LINE('',#390,#392);
#394=EDGE_CURVE('',#389,#363,#393,.T.);
#395=ORIENTED_EDGE('',*,*,#394,.F.);
#396=CARTESIAN_POINT('',(-205.90112412,6.910006157,435.65));
#397=DIRECTION('',(0.,-1.,0.));
#398=VECTOR('',#397,2.);
#399=LINE('',#396,#398);
#400=EDGE_CURVE('',#94,#389,#399,.T.);
#401=ORIENTED_EDGE('',*,*,#400,.F.);
#402=EDGE_LOOP('',(#386,#387,#395,#401));
#403=FACE_BOUND('',#402,.T.);
#404=ADVANCED_FACE('',(#403),#385,.T.);
#405=CARTESIAN_POINT('',(-205.90112412,8.110006157,435.));
#406=DIRECTION('',(0.,-1.,0.));
#407=DIRECTION('',(0.,0.,-1.));
#408=AXIS2_PLACEMENT_3D('',#405,#406,#407);
#409=CYLINDRICAL_SURFACE('',#408,0.65);
#410=ORIENTED_EDGE('',*,*,#108,.T.);
#411=ORIENTED_EDGE('',*,*,#400,.T.);
#412=CARTESIAN_POINT('',(-205.25112412,4.910006157,435.));
#413=VERTEX_POINT('',#412);
#414=CARTESIAN_POINT('',(-205.90112412,4.910006157,435.));
#415=DIRECTION('',(0.,-1.,0.));
#416=DIRECTION('',(0.,0.,-1.));
#417=AXIS2_PLACEMENT_3D('',#414,#415,#416);
#418=CIRCLE('',#417,0.65);
#419=EDGE_CURVE('',#413,#389,#418,.T.);
#420=ORIENTED_EDGE('',*,*,#419,.F.);
#421=CARTESIAN_POINT('',(-205.25112412,6.910006157,435.));
#422=DIRECTION('',(0.,-1.,0.));
#423=VECTOR('',#422,2.);
#424=LINE('',#421,#423);
#425=EDGE_CURVE('',#102,#413,#424,.T.);
#426=ORIENTED_EDGE('',*,*,#425,.F.);
#427=EDGE_LOOP('',(#410,#411,#420,#426));
#428=FACE_BOUND('',#427,.T.);
#429=ADVANCED_FACE('',(#428),#409,.T.);
#430=CARTESIAN_POINT('',(-205.25112412,8.110006157,434.27));
#431=DIRECTION('',(1.,0.,0.));
#432=DIRECTION('',(0.,0.,-1.));
#433=AXIS2_PLACEMENT_3D('',#430,#431,#432);
#434=PLANE('',#433);
#435=ORIENTED_EDGE('',*,*,#116,.T.);
#436=ORIENTED_EDGE('',*,*,#425,.T.);
#437=CARTESIAN_POINT('',(-205.25112412,4.910006157,433.54));
#438=VERTEX_POINT('',#437);
#439=CARTESIAN_POINT('',(-205.25112412,4.910006157,433.54));
#440=DIRECTION('',(0.,0.,1.));
#441=VECTOR('',#440,1.46);
#442=LINE('',#439,#441);
#443=EDGE_CURVE('',#438,#413,#442,.T.);
#444=ORIENTED_EDGE('',*,*,#443,.F.);
#445=CARTESIAN_POINT('',(-205.25112412,6.910006157,433.54));
#446=DIRECTION('',(0.,-1.,0.));
#447=VECTOR('',#446,2.);
#448=LINE('',#445,#447);
#449=EDGE_CURVE('',#111,#438,#448,.T.);
#450=ORIENTED_EDGE('',*,*,#449,.F.);
#451=EDGE_LOOP('',(#435,#436,#444,#450));
#452=FACE_BOUND('',#451,.T.);
#453=ADVANCED_FACE('',(#452),#434,.T.);
#454=CARTESIAN_POINT('',(-205.90112412,8.110006157,433.54));
#455=DIRECTION('',(0.,-1.,0.));
#456=DIRECTION('',(0.,0.,-1.));
#457=AXIS2_PLACEMENT_3D('',#454,#455,#456);
#458=CYLINDRICAL_SURFACE('',#457,0.65);
#459=ORIENTED_EDGE('',*,*,#125,.T.);
#460=ORIENTED_EDGE('',*,*,#449,.T.);
#461=CARTESIAN_POINT('',(-205.90112412,4.910006157,432.89));
#462=VERTEX_POINT('',#461);
#463=CARTESIAN_POINT('',(-205.90112412,4.910006157,433.54));
#464=DIRECTION('',(0.,-1.,0.));
#465=DIRECTION('',(0.,0.,-1.));
#466=AXIS2_PLACEMENT_3D('',#463,#464,#465);
#467=CIRCLE('',#466,0.65);
#468=EDGE_CURVE('',#462,#438,#467,.T.);
#469=ORIENTED_EDGE('',*,*,#468,.F.);
#470=CARTESIAN_POINT('',(-205.90112412,6.910006157,432.89));
#471=DIRECTION('',(0.,-1.,0.));
#472=VECTOR('',#471,2.);
#473=LINE('',#470,#472);
#474=EDGE_CURVE('',#119,#462,#473,.T.);
#475=ORIENTED_EDGE('',*,*,#474,.F.);
#476=EDGE_LOOP('',(#459,#460,#469,#475));
#477=FACE_BOUND('',#476,.T.);
#478=ADVANCED_FACE('',(#477),#458,.T.);
#479=CARTESIAN_POINT('',(-209.968843394,8.110006157,432.89));
#480=DIRECTION('',(0.,0.,-1.));
#481=DIRECTION('',(-1.,0.,0.));
#482=AXIS2_PLACEMENT_3D('',#479,#480,#481);
#483=PLANE('',#482);
#484=ORIENTED_EDGE('',*,*,#133,.T.);
#485=ORIENTED_EDGE('',*,*,#474,.T.);
#486=CARTESIAN_POINT('',(-214.036562667,4.910006157,432.89));
#487=VERTEX_POINT('',#486);
#488=CARTESIAN_POINT('',(-214.036562667,4.910006157,432.89));
#489=DIRECTION('',(1.,0.,-0.));
#490=VECTOR('',#489,8.135438547);
#491=LINE('',#488,#490);
#492=EDGE_CURVE('',#487,#462,#491,.T.);
#493=ORIENTED_EDGE('',*,*,#492,.F.);
#494=CARTESIAN_POINT('',(-214.036562667,6.910006157,432.89));
#495=DIRECTION('',(0.,-1.,0.));
#496=VECTOR('',#495,2.);
#497=LINE('',#494,#496);
#498=EDGE_CURVE('',#128,#487,#497,.T.);
#499=ORIENTED_EDGE('',*,*,#498,.F.);
#500=EDGE_LOOP('',(#484,#485,#493,#499));
#501=FACE_BOUND('',#500,.T.);
#502=ADVANCED_FACE('',(#501),#483,.T.);
#503=CARTESIAN_POINT('',(-214.036562667,8.110006157,433.332295237));
#504=DIRECTION('',(-1.,0.,0.));
#505=DIRECTION('',(0.,0.,1.));
#506=AXIS2_PLACEMENT_3D('',#503,#504,#505);
#507=PLANE('',#506);
#508=ORIENTED_EDGE('',*,*,#141,.T.);
#509=ORIENTED_EDGE('',*,*,#498,.T.);
#510=CARTESIAN_POINT('',(-214.036562667,4.910006157,433.774590473));
#511=VERTEX_POINT('',#510);
#512=CARTESIAN_POINT('',(-214.036562667,4.910006157,433.774590473));
#513=DIRECTION('',(0.,0.,-1.));
#514=VECTOR('',#513,0.884590473);
#515=LINE('',#512,#514);
#516=EDGE_CURVE('',#511,#487,#515,.T.);
#517=ORIENTED_EDGE('',*,*,#516,.F.);
#518=CARTESIAN_POINT('',(-214.036562667,6.910006157,433.774590473));
#519=DIRECTION('',(0.,-1.,0.));
#520=VECTOR('',#519,2.);
#521=LINE('',#518,#520);
#522=EDGE_CURVE('',#136,#511,#521,.T.);
#523=ORIENTED_EDGE('',*,*,#522,.F.);
#524=EDGE_LOOP('',(#508,#509,#517,#523));
#525=FACE_BOUND('',#524,.T.);
#526=ADVANCED_FACE('',(#525),#507,.T.);
#527=CARTESIAN_POINT('',(-210.295765225,8.110006157,433.774590473));
#528=DIRECTION('',(0.,0.,1.));
#529=DIRECTION('',(1.,0.,0.));
#530=AXIS2_PLACEMENT_3D('',#527,#528,#529);
#531=PLANE('',#530);
#532=ORIENTED_EDGE('',*,*,#149,.T.);
#533=ORIENTED_EDGE('',*,*,#522,.T.);
#534=CARTESIAN_POINT('',(-206.554967782,4.910006157,433.774590473));
#535=VERTEX_POINT('',#534);
#536=CARTESIAN_POINT('',(-206.554967782,4.910006157,433.774590473));
#537=DIRECTION('',(-1.,0.,0.));
#538=VECTOR('',#537,7.481594885);
#539=LINE('',#536,#538);
#540=EDGE_CURVE('',#535,#511,#539,.T.);
#541=ORIENTED_EDGE('',*,*,#540,.F.);
#542=CARTESIAN_POINT('',(-206.554967782,6.910006157,433.774590473));
#543=DIRECTION('',(0.,-1.,0.));
#544=VECTOR('',#543,2.);
#545=LINE('',#542,#544);
#546=EDGE_CURVE('',#144,#535,#545,.T.);
#547=ORIENTED_EDGE('',*,*,#546,.F.);
#548=EDGE_LOOP('',(#532,#533,#541,#547));
#549=FACE_BOUND('',#548,.T.);
#550=ADVANCED_FACE('',(#549),#531,.T.);
#551=CARTESIAN_POINT('',(-206.554967782,8.110006157,434.324590473));
#552=DIRECTION('',(0.,-1.,0.));
#553=DIRECTION('',(0.,0.,-1.));
#554=AXIS2_PLACEMENT_3D('',#551,#552,#553);
#555=CYLINDRICAL_SURFACE('',#554,0.55);
#556=ORIENTED_EDGE('',*,*,#546,.T.);
#557=CARTESIAN_POINT('',(-206.004975314,4.910006157,434.321712054));
#558=VERTEX_POINT('',#557);
#559=CARTESIAN_POINT('',(-206.554967782,4.910006157,434.324590473));
#560=DIRECTION('',(0.,-1.,0.));
#561=DIRECTION('',(0.,0.,-1.));
#562=AXIS2_PLACEMENT_3D('',#559,#560,#561);
#563=CIRCLE('',#562,0.55);
#564=EDGE_CURVE('',#535,#558,#563,.T.);
#565=ORIENTED_EDGE('',*,*,#564,.T.);
#566=CARTESIAN_POINT('',(-206.004975314,6.910006157,434.321712054));
#567=DIRECTION('',(0.,-1.,0.));
#568=VECTOR('',#567,2.);
#569=LINE('',#566,#568);
#570=EDGE_CURVE('',#152,#558,#569,.T.);
#571=ORIENTED_EDGE('',*,*,#570,.F.);
#572=ORIENTED_EDGE('',*,*,#158,.F.);
#573=EDGE_LOOP('',(#556,#565,#571,#572));
#574=FACE_BOUND('',#573,.T.);
#575=ADVANCED_FACE('',(#574),#555,.F.);
#576=CARTESIAN_POINT('',(-206.004922979,8.110006157,434.331712053));
#577=DIRECTION('',(-0.999986305,0.,0.005233478));
#578=DIRECTION('',(0.005233478,0.,0.999986305));
#579=AXIS2_PLACEMENT_3D('',#576,#577,#578);
#580=PLANE('',#579);
#581=ORIENTED_EDGE('',*,*,#166,.T.);
#582=ORIENTED_EDGE('',*,*,#570,.T.);
#583=CARTESIAN_POINT('',(-206.004870643,4.910006157,434.341712052));
#584=VERTEX_POINT('',#583);
#585=CARTESIAN_POINT('',(-206.004870643,4.910006157,434.341712052));
#586=DIRECTION('',(-0.005233478,0.,-0.999986305));
#587=VECTOR('',#586,0.020000272);
#588=LINE('',#585,#587);
#589=EDGE_CURVE('',#584,#558,#588,.T.);
#590=ORIENTED_EDGE('',*,*,#589,.F.);
#591=CARTESIAN_POINT('',(-206.004870643,6.910006157,434.341712052));
#592=DIRECTION('',(0.,-1.,0.));
#593=VECTOR('',#592,2.);
#594=LINE('',#591,#593);
#595=EDGE_CURVE('',#161,#584,#594,.T.);
#596=ORIENTED_EDGE('',*,*,#595,.F.);
#597=EDGE_LOOP('',(#581,#582,#590,#596));
#598=FACE_BOUND('',#597,.T.);
#599=ADVANCED_FACE('',(#598),#580,.T.);
#600=CARTESIAN_POINT('',(-206.554863111,8.110006157,434.344590473));
#601=DIRECTION('',(0.,-1.,0.));
#602=DIRECTION('',(0.,0.,-1.));
#603=AXIS2_PLACEMENT_3D('',#600,#601,#602);
#604=CYLINDRICAL_SURFACE('',#603,0.55);
#605=ORIENTED_EDGE('',*,*,#595,.T.);
#606=CARTESIAN_POINT('',(-206.554863111,4.910006157,434.894590473));
#607=VERTEX_POINT('',#606);
#608=CARTESIAN_POINT('',(-206.554863111,4.910006157,434.344590473));
#609=DIRECTION('',(0.,-1.,0.));
#610=DIRECTION('',(0.,0.,-1.));
#611=AXIS2_PLACEMENT_3D('',#608,#609,#610);
#612=CIRCLE('',#611,0.55);
#613=EDGE_CURVE('',#584,#607,#612,.T.);
#614=ORIENTED_EDGE('',*,*,#613,.T.);
#615=CARTESIAN_POINT('',(-206.554863111,6.910006157,434.894590473));
#616=DIRECTION('',(0.,-1.,0.));
#617=VECTOR('',#616,2.);
#618=LINE('',#615,#617);
#619=EDGE_CURVE('',#169,#607,#618,.T.);
#620=ORIENTED_EDGE('',*,*,#619,.F.);
#621=ORIENTED_EDGE('',*,*,#175,.F.);
#622=EDGE_LOOP('',(#605,#614,#620,#621));
#623=FACE_BOUND('',#622,.T.);
#624=ADVANCED_FACE('',(#623),#604,.F.);
#625=CARTESIAN_POINT('',(-209.970712889,8.110006157,434.894590473));
#626=DIRECTION('',(0.,0.,-1.));
#627=DIRECTION('',(-1.,0.,0.));
#628=AXIS2_PLACEMENT_3D('',#625,#626,#627);
#629=PLANE('',#628);
#630=ORIENTED_EDGE('',*,*,#183,.T.);
#631=ORIENTED_EDGE('',*,*,#619,.T.);
#632=CARTESIAN_POINT('',(-213.386562667,4.910006157,434.894590473));
#633=VERTEX_POINT('',#632);
#634=CARTESIAN_POINT('',(-213.386562667,4.910006157,434.894590473));
#635=DIRECTION('',(1.,0.,-0.));
#636=VECTOR('',#635,6.831699556);
#637=LINE('',#634,#636);
#638=EDGE_CURVE('',#633,#607,#637,.T.);
#639=ORIENTED_EDGE('',*,*,#638,.F.);
#640=CARTESIAN_POINT('',(-213.386562667,6.910006157,434.894590473));
#641=DIRECTION('',(0.,-1.,0.));
#642=VECTOR('',#641,2.);
#643=LINE('',#640,#642);
#644=EDGE_CURVE('',#178,#633,#643,.T.);
#645=ORIENTED_EDGE('',*,*,#644,.F.);
#646=EDGE_LOOP('',(#630,#631,#639,#645));
#647=FACE_BOUND('',#646,.T.);
#648=ADVANCED_FACE('',(#647),#629,.T.);
#649=CARTESIAN_POINT('',(-213.386562667,8.110006157,435.544590473));
#650=DIRECTION('',(0.,-1.,0.));
#651=DIRECTION('',(0.,0.,-1.));
#652=AXIS2_PLACEMENT_3D('',#649,#650,#651);
#653=CYLINDRICAL_SURFACE('',#652,0.65);
#654=ORIENTED_EDGE('',*,*,#192,.T.);
#655=ORIENTED_EDGE('',*,*,#644,.T.);
#656=CARTESIAN_POINT('',(-214.036562667,4.910006157,435.544590473));
#657=VERTEX_POINT('',#656);
#658=CARTESIAN_POINT('',(-213.386562667,4.910006157,435.544590473));
#659=DIRECTION('',(0.,-1.,0.));
#660=DIRECTION('',(0.,0.,-1.));
#661=AXIS2_PLACEMENT_3D('',#658,#659,#660);
#662=CIRCLE('',#661,0.65);
#663=EDGE_CURVE('',#657,#633,#662,.T.);
#664=ORIENTED_EDGE('',*,*,#663,.F.);
#665=CARTESIAN_POINT('',(-214.036562667,6.910006157,435.544590473));
#666=DIRECTION('',(0.,-1.,0.));
#667=VECTOR('',#666,2.);
#668=LINE('',#665,#667);
#669=EDGE_CURVE('',#186,#657,#668,.T.);
#670=ORIENTED_EDGE('',*,*,#669,.F.);
#671=EDGE_LOOP('',(#654,#655,#664,#670));
#672=FACE_BOUND('',#671,.T.);
#673=ADVANCED_FACE('',(#672),#653,.T.);
#674=CARTESIAN_POINT('',(-214.036562667,8.110006157,436.212295237));
#675=DIRECTION('',(-1.,0.,0.));
#676=DIRECTION('',(0.,0.,1.));
#677=AXIS2_PLACEMENT_3D('',#674,#675,#676);
#678=PLANE('',#677);
#679=ORIENTED_EDGE('',*,*,#198,.T.);
#680=ORIENTED_EDGE('',*,*,#669,.T.);
#681=CARTESIAN_POINT('',(-214.036562667,4.910006157,436.88));
#682=DIRECTION('',(0.,0.,-1.));
#683=VECTOR('',#682,1.335409527);
#684=LINE('',#681,#683);
#685=EDGE_CURVE('',#210,#657,#684,.T.);
#686=ORIENTED_EDGE('',*,*,#685,.F.);
#687=ORIENTED_EDGE('',*,*,#215,.F.);
#688=EDGE_LOOP('',(#679,#680,#686,#687));
#689=FACE_BOUND('',#688,.T.);
#690=ADVANCED_FACE('',(#689),#678,.T.);
#691=CARTESIAN_POINT('',(0.,4.910006157,0.));
#692=DIRECTION('',(0.,-1.,0.));
#693=DIRECTION('',(0.,0.,-1.));
#694=AXIS2_PLACEMENT_3D('',#691,#692,#693);
#695=PLANE('',#694);
#696=ORIENTED_EDGE('',*,*,#248,.T.);
#697=ORIENTED_EDGE('',*,*,#224,.T.);
#698=ORIENTED_EDGE('',*,*,#685,.T.);
#699=ORIENTED_EDGE('',*,*,#663,.T.);
#700=ORIENTED_EDGE('',*,*,#638,.T.);
#701=ORIENTED_EDGE('',*,*,#613,.F.);
#702=ORIENTED_EDGE('',*,*,#589,.T.);
#703=ORIENTED_EDGE('',*,*,#564,.F.);
#704=ORIENTED_EDGE('',*,*,#540,.T.);
#705=ORIENTED_EDGE('',*,*,#516,.T.);
#706=ORIENTED_EDGE('',*,*,#492,.T.);
#707=ORIENTED_EDGE('',*,*,#468,.T.);
#708=ORIENTED_EDGE('',*,*,#443,.T.);
#709=ORIENTED_EDGE('',*,*,#419,.T.);
#710=ORIENTED_EDGE('',*,*,#394,.T.);
#711=ORIENTED_EDGE('',*,*,#369,.F.);
#712=ORIENTED_EDGE('',*,*,#345,.T.);
#713=ORIENTED_EDGE('',*,*,#320,.F.);
#714=ORIENTED_EDGE('',*,*,#296,.T.);
#715=ORIENTED_EDGE('',*,*,#272,.T.);
#716=EDGE_LOOP('',(#696,#697,#698,#699,#700,#701,#702,#703,#704,#705,#706,#707,#708,#709,#710,#711,#712,#713,#714,#715));
#717=FACE_BOUND('',#716,.T.);
#718=ADVANCED_FACE('',(#717),#695,.T.);
#719=CLOSED_SHELL('',(#202,#234,#258,#282,#306,#331,#355,#380,#404,#429,#453,#478,#502,#526,#550,#575,#599,#624,#648,#673,#690,#718));
#720=MANIFOLD_SOLID_BREP('Body 02',#719);
#721=COLOUR_RGB('',0.494117647,0.494117647,0.525490224);
#722=FILL_AREA_STYLE_COLOUR('',#721);
#723=FILL_AREA_STYLE('',(#722));
#724=SURFACE_STYLE_FILL_AREA(#723);
#725=SURFACE_SIDE_STYLE('',(#724));
#726=SURFACE_STYLE_USAGE(.BOTH.,#725);
#727=PRESENTATION_STYLE_ASSIGNMENT((#726));
#26=STYLED_ITEM('',(#727),#720);
#16=SHAPE_REPRESENTATION('Body 02',(#15),#10);
#17=ADVANCED_BREP_SHAPE_REPRESENTATION('Body 02',(#720),#10);
#735=SHAPE_REPRESENTATION_RELATIONSHIP('','',#16,#17);
#736=CARTESIAN_POINT('',(0.,0.,0.));
#737=DIRECTION('',(0.,0.,1.));
#738=DIRECTION('',(1.,0.,0.));
#739=AXIS2_PLACEMENT_3D('',#736,#737,#738);
#741=MAPPED_ITEM('',#740,#739);
#740=REPRESENTATION_MAP(#739,#16);
#742=APPLICATION_CONTEXT('Managed model based 3d engineering');
#743=APPLICATION_PROTOCOL_DEFINITION('international standard','ap242_managed_model_based_3d_engineering',2013,#742);
#744=PRODUCT_CONTEXT('',#742,'mechanical');
#745=PRODUCT_DEFINITION_CONTEXT('part definition',#742,'design');
#24=PRODUCT('Body 02','Body 02','',(#744));
#746=PRODUCT_RELATED_PRODUCT_CATEGORY('part','',(#24));
#747=PRODUCT_DEFINITION_FORMATION_WITH_SPECIFIED_SOURCE('','',#24,.NOT_KNOWN.);
#25=PRODUCT_DEFINITION('design','',#747,#745);
#23=PRODUCT_DEFINITION_SHAPE('','',#25);
#748=SHAPE_DEFINITION_REPRESENTATION(#23,#16);
#11=DRAUGHTING_MODEL('',(#741),#10);
#749=DESCRIPTIVE_REPRESENTATION_ITEM('KEY','C:\\Users\\cullm\\AppData\\Local\\Packages\\Shapr3D.Shapr3D_dvv5p1vgwv6mp\\TempState\\8cbd0a5a-9611-46f6-886b-f6f3f78ba009.tmp');
#750=PROPERTY_DEFINITION('KEY','',#25);
#751=REPRESENTATION('',(#749),#10);
#752=PROPERTY_DEFINITION_REPRESENTATION(#750,#751);
#753=GENERAL_PROPERTY('','KEY','');
#754=GENERAL_PROPERTY_ASSOCIATION('','',#753,#750);
#1=MECHANICAL_DESIGN_GEOMETRIC_PRESENTATION_REPRESENTATION('',(#26),#10);
ENDSEC;
END-ISO-10303-21;
