ISO-10303-21;
HEADER;

/* File generated by Shapr3D Version 5.710.7459.0 */

FILE_DESCRIPTION(('HOOPS Exchange Step'),'2;1');

FILE_NAME('C:\\Users\\cullm\\AppData\\Local\\Packages\\Shapr3D.Shapr3D_dvv5p1vgwv6mp\\TempState\\export\\temp_export',
'2024-09-14T06:15:31-04:00',
('cullm'),
('Shapr3D Limited'),
'HOOPS Exchange 2024.2',
'Shapr3D',
'Authorized');

FILE_SCHEMA( ('AP242_MANAGED_MODEL_BASED_3D_ENGINEERING_MIM_LF {1 0 10303 442 1 1 4 }') );

ENDSEC;

DATA;
#3=(NAMED_UNIT(*)PLANE_ANGLE_UNIT()SI_UNIT($,.RADIAN.));
#4=PLANE_ANGLE_MEASURE_WITH_UNIT(PLANE_ANGLE_MEASURE(0.0174532925),#3);
#5=(CONVERSION_BASED_UNIT('DEGREE',#4)NAMED_UNIT(#6)PLANE_ANGLE_UNIT());
#6=DIMENSIONAL_EXPONENTS(0.,0.,0.,0.,0.,0.,0.);
#7=(NAMED_UNIT(*)SI_UNIT($,.STERADIAN.)SOLID_ANGLE_UNIT());
#8=(LENGTH_UNIT()NAMED_UNIT(*)SI_UNIT(.MILLI.,.METRE.));
#9=UNCERTAINTY_MEASURE_WITH_UNIT(LENGTH_MEASURE(1.000000E-05),#8,'DISTANCE_ACCURACY_VALUE','Maximum Tolerance applied to model');
#10=(GEOMETRIC_REPRESENTATION_CONTEXT(3)GLOBAL_UNCERTAINTY_ASSIGNED_CONTEXT((#9))GLOBAL_UNIT_ASSIGNED_CONTEXT((#8,#5,#7))REPRESENTATION_CONTEXT('','Body 02'));
#12=CARTESIAN_POINT('',(0.,0.,0.));
#13=DIRECTION('',(0.,0.,1.));
#14=DIRECTION('',(1.,0.,0.));
#15=AXIS2_PLACEMENT_3D('',#12,#13,#14);
#27=CARTESIAN_POINT('',(0.,6.910006157,0.));
#28=DIRECTION('',(0.,-1.,0.));
#29=DIRECTION('',(0.,0.,-1.));
#30=AXIS2_PLACEMENT_3D('',#27,#28,#29);
#31=PLANE('',#30);
#32=CARTESIAN_POINT('',(-175.108275981,6.910006157,436.674029045));
#33=VERTEX_POINT('',#32);
#34=CARTESIAN_POINT('',(-175.108275981,6.910006157,437.53));
#35=VERTEX_POINT('',#34);
#36=CARTESIAN_POINT('',(-175.108275981,6.910006157,436.674029045));
#37=DIRECTION('',(0.,0.,1.));
#38=VECTOR('',#37,0.855970955);
#39=LINE('',#36,#38);
#40=EDGE_CURVE('',#33,#35,#39,.T.);
#41=ORIENTED_EDGE('',*,*,#40,.F.);
#42=CARTESIAN_POINT('',(-175.194255366,6.910006157,436.674029045));
#43=VERTEX_POINT('',#42);
#44=CARTESIAN_POINT('',(-175.194255366,6.910006157,436.674029045));
#45=DIRECTION('',(1.,0.,-0.));
#46=VECTOR('',#45,0.085979385);
#47=LINE('',#44,#46);
#48=EDGE_CURVE('',#43,#33,#47,.T.);
#49=ORIENTED_EDGE('',*,*,#48,.F.);
#50=CARTESIAN_POINT('',(-175.194255366,6.910006157,436.69));
#51=VERTEX_POINT('',#50);
#52=CARTESIAN_POINT('',(-175.194255366,6.910006157,436.69));
#53=DIRECTION('',(0.,0.,-1.));
#54=VECTOR('',#53,0.015970955);
#55=LINE('',#52,#54);
#56=EDGE_CURVE('',#51,#43,#55,.T.);
#57=ORIENTED_EDGE('',*,*,#56,.F.);
#58=CARTESIAN_POINT('',(-182.574255366,6.910006157,436.69));
#59=VERTEX_POINT('',#58);
#60=CARTESIAN_POINT('',(-182.574255366,6.910006157,436.69));
#61=DIRECTION('',(1.,0.,-0.));
#62=VECTOR('',#61,7.38);
#63=LINE('',#60,#62);
#64=EDGE_CURVE('',#59,#51,#63,.T.);
#65=ORIENTED_EDGE('',*,*,#64,.F.);
#66=CARTESIAN_POINT('',(-182.574255366,6.910006157,436.674029045));
#67=VERTEX_POINT('',#66);
#68=CARTESIAN_POINT('',(-182.574255366,6.910006157,436.674029045));
#69=DIRECTION('',(0.,0.,1.));
#70=VECTOR('',#69,0.015970955);
#71=LINE('',#68,#70);
#72=EDGE_CURVE('',#67,#59,#71,.T.);
#73=ORIENTED_EDGE('',*,*,#72,.F.);
#74=CARTESIAN_POINT('',(-183.192467284,6.910006157,436.674029045));
#75=VERTEX_POINT('',#74);
#76=CARTESIAN_POINT('',(-183.192467284,6.910006157,436.674029045));
#77=DIRECTION('',(1.,0.,-0.));
#78=VECTOR('',#77,0.618211918);
#79=LINE('',#76,#78);
#80=EDGE_CURVE('',#75,#67,#79,.T.);
#81=ORIENTED_EDGE('',*,*,#80,.F.);
#82=CARTESIAN_POINT('',(-183.192467284,6.910006157,435.639983759));
#83=VERTEX_POINT('',#82);
#84=CARTESIAN_POINT('',(-183.192467284,6.910006157,435.639983759));
#85=DIRECTION('',(0.,0.,1.));
#86=VECTOR('',#85,1.034045286);
#87=LINE('',#84,#86);
#88=EDGE_CURVE('',#83,#75,#87,.T.);
#89=ORIENTED_EDGE('',*,*,#88,.F.);
#90=CARTESIAN_POINT('',(-175.108275981,6.910006157,435.639983759));
#91=VERTEX_POINT('',#90);
#92=CARTESIAN_POINT('',(-175.108275981,6.910006157,435.639983759));
#93=DIRECTION('',(-1.,0.,0.));
#94=VECTOR('',#93,8.084191303);
#95=LINE('',#92,#94);
#96=EDGE_CURVE('',#91,#83,#95,.T.);
#97=ORIENTED_EDGE('',*,*,#96,.F.);
#98=CARTESIAN_POINT('',(-175.108275981,6.910006157,434.897674273));
#99=VERTEX_POINT('',#98);
#100=CARTESIAN_POINT('',(-175.108275981,6.910006157,434.897674273));
#101=DIRECTION('',(0.,0.,1.));
#102=VECTOR('',#101,0.742309486);
#103=LINE('',#100,#102);
#104=EDGE_CURVE('',#99,#91,#103,.T.);
#105=ORIENTED_EDGE('',*,*,#104,.F.);
#106=CARTESIAN_POINT('',(-183.192467284,6.910006157,434.897674273));
#107=VERTEX_POINT('',#106);
#108=CARTESIAN_POINT('',(-183.192467284,6.910006157,434.897674273));
#109=DIRECTION('',(1.,0.,-0.));
#110=VECTOR('',#109,8.084191303);
#111=LINE('',#108,#110);
#112=EDGE_CURVE('',#107,#99,#111,.T.);
#113=ORIENTED_EDGE('',*,*,#112,.F.);
#114=CARTESIAN_POINT('',(-183.192467284,6.910006157,433.810875626));
#115=VERTEX_POINT('',#114);
#116=CARTESIAN_POINT('',(-183.192467284,6.910006157,433.810875626));
#117=DIRECTION('',(0.,0.,1.));
#118=VECTOR('',#117,1.086798647);
#119=LINE('',#116,#118);
#120=EDGE_CURVE('',#115,#107,#119,.T.);
#121=ORIENTED_EDGE('',*,*,#120,.F.);
#122=CARTESIAN_POINT('',(-175.108275981,6.910006157,433.810875626));
#123=VERTEX_POINT('',#122);
#124=CARTESIAN_POINT('',(-175.108275981,6.910006157,433.810875626));
#125=DIRECTION('',(-1.,0.,0.));
#126=VECTOR('',#125,8.084191303);
#127=LINE('',#124,#126);
#128=EDGE_CURVE('',#123,#115,#127,.T.);
#129=ORIENTED_EDGE('',*,*,#128,.F.);
#130=CARTESIAN_POINT('',(-175.108275981,6.910006157,432.89));
#131=VERTEX_POINT('',#130);
#132=CARTESIAN_POINT('',(-175.108275981,6.910006157,432.89));
#133=DIRECTION('',(0.,0.,1.));
#134=VECTOR('',#133,0.920875626);
#135=LINE('',#132,#134);
#136=EDGE_CURVE('',#131,#123,#135,.T.);
#137=ORIENTED_EDGE('',*,*,#136,.F.);
#138=CARTESIAN_POINT('',(-183.889744215,6.910006157,432.89));
#139=VERTEX_POINT('',#138);
#140=CARTESIAN_POINT('',(-183.889744215,6.910006157,432.89));
#141=DIRECTION('',(1.,0.,-0.));
#142=VECTOR('',#141,8.781468234);
#143=LINE('',#140,#142);
#144=EDGE_CURVE('',#139,#131,#143,.T.);
#145=ORIENTED_EDGE('',*,*,#144,.F.);
#146=CARTESIAN_POINT('',(-183.889744215,6.910006157,437.53));
#147=VERTEX_POINT('',#146);
#148=CARTESIAN_POINT('',(-183.889744215,6.910006157,437.53));
#149=DIRECTION('',(0.,0.,-1.));
#150=VECTOR('',#149,4.64);
#151=LINE('',#148,#150);
#152=EDGE_CURVE('',#147,#139,#151,.T.);
#153=ORIENTED_EDGE('',*,*,#152,.F.);
#154=CARTESIAN_POINT('',(-175.108275981,6.910006157,437.53));
#155=DIRECTION('',(-1.,0.,0.));
#156=VECTOR('',#155,8.781468234);
#157=LINE('',#154,#156);
#158=EDGE_CURVE('',#35,#147,#157,.T.);
#159=ORIENTED_EDGE('',*,*,#158,.F.);
#160=EDGE_LOOP('',(#41,#49,#57,#65,#73,#81,#89,#97,#105,#113,#121,#129,#137,#145,#153,#159));
#161=FACE_BOUND('',#160,.T.);
#162=ADVANCED_FACE('',(#161),#31,.F.);
#163=CARTESIAN_POINT('',(-175.108275981,7.810006157,437.102014523));
#164=DIRECTION('',(1.,0.,0.));
#165=DIRECTION('',(0.,0.,-1.));
#166=AXIS2_PLACEMENT_3D('',#163,#164,#165);
#167=PLANE('',#166);
#168=ORIENTED_EDGE('',*,*,#40,.T.);
#169=CARTESIAN_POINT('',(-175.108275981,4.910006157,437.53));
#170=VERTEX_POINT('',#169);
#171=CARTESIAN_POINT('',(-175.108275981,6.910006157,437.53));
#172=DIRECTION('',(0.,-1.,0.));
#173=VECTOR('',#172,2.);
#174=LINE('',#171,#173);
#175=EDGE_CURVE('',#35,#170,#174,.T.);
#176=ORIENTED_EDGE('',*,*,#175,.T.);
#177=CARTESIAN_POINT('',(-175.108275981,4.910006157,436.674029045));
#178=VERTEX_POINT('',#177);
#179=CARTESIAN_POINT('',(-175.108275981,4.910006157,436.674029045));
#180=DIRECTION('',(0.,0.,1.));
#181=VECTOR('',#180,0.855970955);
#182=LINE('',#179,#181);
#183=EDGE_CURVE('',#178,#170,#182,.T.);
#184=ORIENTED_EDGE('',*,*,#183,.F.);
#185=CARTESIAN_POINT('',(-175.108275981,6.910006157,436.674029045));
#186=DIRECTION('',(0.,-1.,0.));
#187=VECTOR('',#186,2.);
#188=LINE('',#185,#187);
#189=EDGE_CURVE('',#33,#178,#188,.T.);
#190=ORIENTED_EDGE('',*,*,#189,.F.);
#191=EDGE_LOOP('',(#168,#176,#184,#190));
#192=FACE_BOUND('',#191,.T.);
#193=ADVANCED_FACE('',(#192),#167,.T.);
#194=CARTESIAN_POINT('',(-175.151265674,7.810006157,436.674029045));
#195=DIRECTION('',(0.,0.,-1.));
#196=DIRECTION('',(-1.,0.,0.));
#197=AXIS2_PLACEMENT_3D('',#194,#195,#196);
#198=PLANE('',#197);
#199=ORIENTED_EDGE('',*,*,#48,.T.);
#200=ORIENTED_EDGE('',*,*,#189,.T.);
#201=CARTESIAN_POINT('',(-175.194255366,4.910006157,436.674029045));
#202=VERTEX_POINT('',#201);
#203=CARTESIAN_POINT('',(-175.194255366,4.910006157,436.674029045));
#204=DIRECTION('',(1.,0.,-0.));
#205=VECTOR('',#204,0.085979385);
#206=LINE('',#203,#205);
#207=EDGE_CURVE('',#202,#178,#206,.T.);
#208=ORIENTED_EDGE('',*,*,#207,.F.);
#209=CARTESIAN_POINT('',(-175.194255366,6.910006157,436.674029045));
#210=DIRECTION('',(0.,-1.,0.));
#211=VECTOR('',#210,2.);
#212=LINE('',#209,#211);
#213=EDGE_CURVE('',#43,#202,#212,.T.);
#214=ORIENTED_EDGE('',*,*,#213,.F.);
#215=EDGE_LOOP('',(#199,#200,#208,#214));
#216=FACE_BOUND('',#215,.T.);
#217=ADVANCED_FACE('',(#216),#198,.T.);
#218=CARTESIAN_POINT('',(-175.194255366,7.810006157,436.682014522));
#219=DIRECTION('',(-1.,0.,0.));
#220=DIRECTION('',(0.,0.,1.));
#221=AXIS2_PLACEMENT_3D('',#218,#219,#220);
#222=PLANE('',#221);
#223=ORIENTED_EDGE('',*,*,#56,.T.);
#224=ORIENTED_EDGE('',*,*,#213,.T.);
#225=CARTESIAN_POINT('',(-175.194255366,4.910006157,436.69));
#226=VERTEX_POINT('',#225);
#227=CARTESIAN_POINT('',(-175.194255366,4.910006157,436.69));
#228=DIRECTION('',(0.,0.,-1.));
#229=VECTOR('',#228,0.015970955);
#230=LINE('',#227,#229);
#231=EDGE_CURVE('',#226,#202,#230,.T.);
#232=ORIENTED_EDGE('',*,*,#231,.F.);
#233=CARTESIAN_POINT('',(-175.194255366,6.910006157,436.69));
#234=DIRECTION('',(0.,-1.,0.));
#235=VECTOR('',#234,2.);
#236=LINE('',#233,#235);
#237=EDGE_CURVE('',#51,#226,#236,.T.);
#238=ORIENTED_EDGE('',*,*,#237,.F.);
#239=EDGE_LOOP('',(#223,#224,#232,#238));
#240=FACE_BOUND('',#239,.T.);
#241=ADVANCED_FACE('',(#240),#222,.T.);
#242=CARTESIAN_POINT('',(-178.884255366,7.810006157,436.69));
#243=DIRECTION('',(0.,0.,-1.));
#244=DIRECTION('',(-1.,0.,0.));
#245=AXIS2_PLACEMENT_3D('',#242,#243,#244);
#246=PLANE('',#245);
#247=ORIENTED_EDGE('',*,*,#64,.T.);
#248=ORIENTED_EDGE('',*,*,#237,.T.);
#249=CARTESIAN_POINT('',(-182.574255366,4.910006157,436.69));
#250=VERTEX_POINT('',#249);
#251=CARTESIAN_POINT('',(-182.574255366,4.910006157,436.69));
#252=DIRECTION('',(1.,0.,-0.));
#253=VECTOR('',#252,7.38);
#254=LINE('',#251,#253);
#255=EDGE_CURVE('',#250,#226,#254,.T.);
#256=ORIENTED_EDGE('',*,*,#255,.F.);
#257=CARTESIAN_POINT('',(-182.574255366,6.910006157,436.69));
#258=DIRECTION('',(0.,-1.,0.));
#259=VECTOR('',#258,2.);
#260=LINE('',#257,#259);
#261=EDGE_CURVE('',#59,#250,#260,.T.);
#262=ORIENTED_EDGE('',*,*,#261,.F.);
#263=EDGE_LOOP('',(#247,#248,#256,#262));
#264=FACE_BOUND('',#263,.T.);
#265=ADVANCED_FACE('',(#264),#246,.T.);
#266=CARTESIAN_POINT('',(-182.574255366,7.810006157,436.682014522));
#267=DIRECTION('',(1.,0.,0.));
#268=DIRECTION('',(0.,0.,-1.));
#269=AXIS2_PLACEMENT_3D('',#266,#267,#268);
#270=PLANE('',#269);
#271=ORIENTED_EDGE('',*,*,#72,.T.);
#272=ORIENTED_EDGE('',*,*,#261,.T.);
#273=CARTESIAN_POINT('',(-182.574255366,4.910006157,436.674029045));
#274=VERTEX_POINT('',#273);
#275=CARTESIAN_POINT('',(-182.574255366,4.910006157,436.674029045));
#276=DIRECTION('',(0.,0.,1.));
#277=VECTOR('',#276,0.015970955);
#278=LINE('',#275,#277);
#279=EDGE_CURVE('',#274,#250,#278,.T.);
#280=ORIENTED_EDGE('',*,*,#279,.F.);
#281=CARTESIAN_POINT('',(-182.574255366,6.910006157,436.674029045));
#282=DIRECTION('',(0.,-1.,0.));
#283=VECTOR('',#282,2.);
#284=LINE('',#281,#283);
#285=EDGE_CURVE('',#67,#274,#284,.T.);
#286=ORIENTED_EDGE('',*,*,#285,.F.);
#287=EDGE_LOOP('',(#271,#272,#280,#286));
#288=FACE_BOUND('',#287,.T.);
#289=ADVANCED_FACE('',(#288),#270,.T.);
#290=CARTESIAN_POINT('',(-182.883361325,7.810006157,436.674029045));
#291=DIRECTION('',(0.,0.,-1.));
#292=DIRECTION('',(-1.,0.,0.));
#293=AXIS2_PLACEMENT_3D('',#290,#291,#292);
#294=PLANE('',#293);
#295=ORIENTED_EDGE('',*,*,#80,.T.);
#296=ORIENTED_EDGE('',*,*,#285,.T.);
#297=CARTESIAN_POINT('',(-183.192467284,4.910006157,436.674029045));
#298=VERTEX_POINT('',#297);
#299=CARTESIAN_POINT('',(-183.192467284,4.910006157,436.674029045));
#300=DIRECTION('',(1.,0.,-0.));
#301=VECTOR('',#300,0.618211918);
#302=LINE('',#299,#301);
#303=EDGE_CURVE('',#298,#274,#302,.T.);
#304=ORIENTED_EDGE('',*,*,#303,.F.);
#305=CARTESIAN_POINT('',(-183.192467284,6.910006157,436.674029045));
#306=DIRECTION('',(0.,-1.,0.));
#307=VECTOR('',#306,2.);
#308=LINE('',#305,#307);
#309=EDGE_CURVE('',#75,#298,#308,.T.);
#310=ORIENTED_EDGE('',*,*,#309,.F.);
#311=EDGE_LOOP('',(#295,#296,#304,#310));
#312=FACE_BOUND('',#311,.T.);
#313=ADVANCED_FACE('',(#312),#294,.T.);
#314=CARTESIAN_POINT('',(-183.192467284,7.810006157,436.157006402));
#315=DIRECTION('',(1.,0.,0.));
#316=DIRECTION('',(0.,0.,-1.));
#317=AXIS2_PLACEMENT_3D('',#314,#315,#316);
#318=PLANE('',#317);
#319=ORIENTED_EDGE('',*,*,#88,.T.);
#320=ORIENTED_EDGE('',*,*,#309,.T.);
#321=CARTESIAN_POINT('',(-183.192467284,4.910006157,435.639983759));
#322=VERTEX_POINT('',#321);
#323=CARTESIAN_POINT('',(-183.192467284,4.910006157,435.639983759));
#324=DIRECTION('',(0.,0.,1.));
#325=VECTOR('',#324,1.034045286);
#326=LINE('',#323,#325);
#327=EDGE_CURVE('',#322,#298,#326,.T.);
#328=ORIENTED_EDGE('',*,*,#327,.F.);
#329=CARTESIAN_POINT('',(-183.192467284,6.910006157,435.639983759));
#330=DIRECTION('',(0.,-1.,0.));
#331=VECTOR('',#330,2.);
#332=LINE('',#329,#331);
#333=EDGE_CURVE('',#83,#322,#332,.T.);
#334=ORIENTED_EDGE('',*,*,#333,.F.);
#335=EDGE_LOOP('',(#319,#320,#328,#334));
#336=FACE_BOUND('',#335,.T.);
#337=ADVANCED_FACE('',(#336),#318,.T.);
#338=CARTESIAN_POINT('',(-179.150371632,7.810006157,435.639983759));
#339=DIRECTION('',(0.,0.,1.));
#340=DIRECTION('',(1.,0.,0.));
#341=AXIS2_PLACEMENT_3D('',#338,#339,#340);
#342=PLANE('',#341);
#343=ORIENTED_EDGE('',*,*,#96,.T.);
#344=ORIENTED_EDGE('',*,*,#333,.T.);
#345=CARTESIAN_POINT('',(-175.108275981,4.910006157,435.639983759));
#346=VERTEX_POINT('',#345);
#347=CARTESIAN_POINT('',(-175.108275981,4.910006157,435.639983759));
#348=DIRECTION('',(-1.,0.,0.));
#349=VECTOR('',#348,8.084191303);
#350=LINE('',#347,#349);
#351=EDGE_CURVE('',#346,#322,#350,.T.);
#352=ORIENTED_EDGE('',*,*,#351,.F.);
#353=CARTESIAN_POINT('',(-175.108275981,6.910006157,435.639983759));
#354=DIRECTION('',(0.,-1.,0.));
#355=VECTOR('',#354,2.);
#356=LINE('',#353,#355);
#357=EDGE_CURVE('',#91,#346,#356,.T.);
#358=ORIENTED_EDGE('',*,*,#357,.F.);
#359=EDGE_LOOP('',(#343,#344,#352,#358));
#360=FACE_BOUND('',#359,.T.);
#361=ADVANCED_FACE('',(#360),#342,.T.);
#362=CARTESIAN_POINT('',(-175.108275981,7.810006157,435.268829016));
#363=DIRECTION('',(1.,0.,0.));
#364=DIRECTION('',(0.,0.,-1.));
#365=AXIS2_PLACEMENT_3D('',#362,#363,#364);
#366=PLANE('',#365);
#367=ORIENTED_EDGE('',*,*,#104,.T.);
#368=ORIENTED_EDGE('',*,*,#357,.T.);
#369=CARTESIAN_POINT('',(-175.108275981,4.910006157,434.897674273));
#370=VERTEX_POINT('',#369);
#371=CARTESIAN_POINT('',(-175.108275981,4.910006157,434.897674273));
#372=DIRECTION('',(0.,0.,1.));
#373=VECTOR('',#372,0.742309486);
#374=LINE('',#371,#373);
#375=EDGE_CURVE('',#370,#346,#374,.T.);
#376=ORIENTED_EDGE('',*,*,#375,.F.);
#377=CARTESIAN_POINT('',(-175.108275981,6.910006157,434.897674273));
#378=DIRECTION('',(0.,-1.,0.));
#379=VECTOR('',#378,2.);
#380=LINE('',#377,#379);
#381=EDGE_CURVE('',#99,#370,#380,.T.);
#382=ORIENTED_EDGE('',*,*,#381,.F.);
#383=EDGE_LOOP('',(#367,#368,#376,#382));
#384=FACE_BOUND('',#383,.T.);
#385=ADVANCED_FACE('',(#384),#366,.T.);
#386=CARTESIAN_POINT('',(-179.150371632,7.810006157,434.897674273));
#387=DIRECTION('',(0.,0.,-1.));
#388=DIRECTION('',(-1.,0.,0.));
#389=AXIS2_PLACEMENT_3D('',#386,#387,#388);
#390=PLANE('',#389);
#391=ORIENTED_EDGE('',*,*,#112,.T.);
#392=ORIENTED_EDGE('',*,*,#381,.T.);
#393=CARTESIAN_POINT('',(-183.192467284,4.910006157,434.897674273));
#394=VERTEX_POINT('',#393);
#395=CARTESIAN_POINT('',(-183.192467284,4.910006157,434.897674273));
#396=DIRECTION('',(1.,0.,-0.));
#397=VECTOR('',#396,8.084191303);
#398=LINE('',#395,#397);
#399=EDGE_CURVE('',#394,#370,#398,.T.);
#400=ORIENTED_EDGE('',*,*,#399,.F.);
#401=CARTESIAN_POINT('',(-183.192467284,6.910006157,434.897674273));
#402=DIRECTION('',(0.,-1.,0.));
#403=VECTOR('',#402,2.);
#404=LINE('',#401,#403);
#405=EDGE_CURVE('',#107,#394,#404,.T.);
#406=ORIENTED_EDGE('',*,*,#405,.F.);
#407=EDGE_LOOP('',(#391,#392,#400,#406));
#408=FACE_BOUND('',#407,.T.);
#409=ADVANCED_FACE('',(#408),#390,.T.);
#410=CARTESIAN_POINT('',(-183.192467284,7.810006157,434.354274949));
#411=DIRECTION('',(1.,0.,0.));
#412=DIRECTION('',(0.,0.,-1.));
#413=AXIS2_PLACEMENT_3D('',#410,#411,#412);
#414=PLANE('',#413);
#415=ORIENTED_EDGE('',*,*,#120,.T.);
#416=ORIENTED_EDGE('',*,*,#405,.T.);
#417=CARTESIAN_POINT('',(-183.192467284,4.910006157,433.810875626));
#418=VERTEX_POINT('',#417);
#419=CARTESIAN_POINT('',(-183.192467284,4.910006157,433.810875626));
#420=DIRECTION('',(0.,0.,1.));
#421=VECTOR('',#420,1.086798647);
#422=LINE('',#419,#421);
#423=EDGE_CURVE('',#418,#394,#422,.T.);
#424=ORIENTED_EDGE('',*,*,#423,.F.);
#425=CARTESIAN_POINT('',(-183.192467284,6.910006157,433.810875626));
#426=DIRECTION('',(0.,-1.,0.));
#427=VECTOR('',#426,2.);
#428=LINE('',#425,#427);
#429=EDGE_CURVE('',#115,#418,#428,.T.);
#430=ORIENTED_EDGE('',*,*,#429,.F.);
#431=EDGE_LOOP('',(#415,#416,#424,#430));
#432=FACE_BOUND('',#431,.T.);
#433=ADVANCED_FACE('',(#432),#414,.T.);
#434=CARTESIAN_POINT('',(-179.150371632,7.810006157,433.810875626));
#435=DIRECTION('',(0.,0.,1.));
#436=DIRECTION('',(1.,0.,0.));
#437=AXIS2_PLACEMENT_3D('',#434,#435,#436);
#438=PLANE('',#437);
#439=ORIENTED_EDGE('',*,*,#128,.T.);
#440=ORIENTED_EDGE('',*,*,#429,.T.);
#441=CARTESIAN_POINT('',(-175.108275981,4.910006157,433.810875626));
#442=VERTEX_POINT('',#441);
#443=CARTESIAN_POINT('',(-175.108275981,4.910006157,433.810875626));
#444=DIRECTION('',(-1.,0.,0.));
#445=VECTOR('',#444,8.084191303);
#446=LINE('',#443,#445);
#447=EDGE_CURVE('',#442,#418,#446,.T.);
#448=ORIENTED_EDGE('',*,*,#447,.F.);
#449=CARTESIAN_POINT('',(-175.108275981,6.910006157,433.810875626));
#450=DIRECTION('',(0.,-1.,0.));
#451=VECTOR('',#450,2.);
#452=LINE('',#449,#451);
#453=EDGE_CURVE('',#123,#442,#452,.T.);
#454=ORIENTED_EDGE('',*,*,#453,.F.);
#455=EDGE_LOOP('',(#439,#440,#448,#454));
#456=FACE_BOUND('',#455,.T.);
#457=ADVANCED_FACE('',(#456),#438,.T.);
#458=CARTESIAN_POINT('',(-175.108275981,7.810006157,433.350437813));
#459=DIRECTION('',(1.,0.,0.));
#460=DIRECTION('',(0.,0.,-1.));
#461=AXIS2_PLACEMENT_3D('',#458,#459,#460);
#462=PLANE('',#461);
#463=ORIENTED_EDGE('',*,*,#136,.T.);
#464=ORIENTED_EDGE('',*,*,#453,.T.);
#465=CARTESIAN_POINT('',(-175.108275981,4.910006157,432.89));
#466=VERTEX_POINT('',#465);
#467=CARTESIAN_POINT('',(-175.108275981,4.910006157,432.89));
#468=DIRECTION('',(0.,0.,1.));
#469=VECTOR('',#468,0.920875626);
#470=LINE('',#467,#469);
#471=EDGE_CURVE('',#466,#442,#470,.T.);
#472=ORIENTED_EDGE('',*,*,#471,.F.);
#473=CARTESIAN_POINT('',(-175.108275981,6.910006157,432.89));
#474=DIRECTION('',(0.,-1.,0.));
#475=VECTOR('',#474,2.);
#476=LINE('',#473,#475);
#477=EDGE_CURVE('',#131,#466,#476,.T.);
#478=ORIENTED_EDGE('',*,*,#477,.F.);
#479=EDGE_LOOP('',(#463,#464,#472,#478));
#480=FACE_BOUND('',#479,.T.);
#481=ADVANCED_FACE('',(#480),#462,.T.);
#482=CARTESIAN_POINT('',(-179.499010098,7.810006157,432.89));
#483=DIRECTION('',(0.,0.,-1.));
#484=DIRECTION('',(-1.,0.,0.));
#485=AXIS2_PLACEMENT_3D('',#482,#483,#484);
#486=PLANE('',#485);
#487=ORIENTED_EDGE('',*,*,#144,.T.);
#488=ORIENTED_EDGE('',*,*,#477,.T.);
#489=CARTESIAN_POINT('',(-183.889744215,4.910006157,432.89));
#490=VERTEX_POINT('',#489);
#491=CARTESIAN_POINT('',(-183.889744215,4.910006157,432.89));
#492=DIRECTION('',(1.,0.,-0.));
#493=VECTOR('',#492,8.781468234);
#494=LINE('',#491,#493);
#495=EDGE_CURVE('',#490,#466,#494,.T.);
#496=ORIENTED_EDGE('',*,*,#495,.F.);
#497=CARTESIAN_POINT('',(-183.889744215,6.910006157,432.89));
#498=DIRECTION('',(0.,-1.,0.));
#499=VECTOR('',#498,2.);
#500=LINE('',#497,#499);
#501=EDGE_CURVE('',#139,#490,#500,.T.);
#502=ORIENTED_EDGE('',*,*,#501,.F.);
#503=EDGE_LOOP('',(#487,#488,#496,#502));
#504=FACE_BOUND('',#503,.T.);
#505=ADVANCED_FACE('',(#504),#486,.T.);
#506=CARTESIAN_POINT('',(-183.889744215,7.810006157,435.21));
#507=DIRECTION('',(-1.,0.,0.));
#508=DIRECTION('',(0.,0.,1.));
#509=AXIS2_PLACEMENT_3D('',#506,#507,#508);
#510=PLANE('',#509);
#511=ORIENTED_EDGE('',*,*,#152,.T.);
#512=ORIENTED_EDGE('',*,*,#501,.T.);
#513=CARTESIAN_POINT('',(-183.889744215,4.910006157,437.53));
#514=VERTEX_POINT('',#513);
#515=CARTESIAN_POINT('',(-183.889744215,4.910006157,437.53));
#516=DIRECTION('',(0.,0.,-1.));
#517=VECTOR('',#516,4.64);
#518=LINE('',#515,#517);
#519=EDGE_CURVE('',#514,#490,#518,.T.);
#520=ORIENTED_EDGE('',*,*,#519,.F.);
#521=CARTESIAN_POINT('',(-183.889744215,6.910006157,437.53));
#522=DIRECTION('',(0.,-1.,0.));
#523=VECTOR('',#522,2.);
#524=LINE('',#521,#523);
#525=EDGE_CURVE('',#147,#514,#524,.T.);
#526=ORIENTED_EDGE('',*,*,#525,.F.);
#527=EDGE_LOOP('',(#511,#512,#520,#526));
#528=FACE_BOUND('',#527,.T.);
#529=ADVANCED_FACE('',(#528),#510,.T.);
#530=CARTESIAN_POINT('',(-179.499010098,7.810006157,437.53));
#531=DIRECTION('',(0.,0.,1.));
#532=DIRECTION('',(1.,0.,0.));
#533=AXIS2_PLACEMENT_3D('',#530,#531,#532);
#534=PLANE('',#533);
#535=ORIENTED_EDGE('',*,*,#158,.T.);
#536=ORIENTED_EDGE('',*,*,#525,.T.);
#537=CARTESIAN_POINT('',(-175.108275981,4.910006157,437.53));
#538=DIRECTION('',(-1.,0.,0.));
#539=VECTOR('',#538,8.781468234);
#540=LINE('',#537,#539);
#541=EDGE_CURVE('',#170,#514,#540,.T.);
#542=ORIENTED_EDGE('',*,*,#541,.F.);
#543=ORIENTED_EDGE('',*,*,#175,.F.);
#544=EDGE_LOOP('',(#535,#536,#542,#543));
#545=FACE_BOUND('',#544,.T.);
#546=ADVANCED_FACE('',(#545),#534,.T.);
#547=CARTESIAN_POINT('',(0.,4.910006157,0.));
#548=DIRECTION('',(0.,-1.,0.));
#549=DIRECTION('',(0.,0.,-1.));
#550=AXIS2_PLACEMENT_3D('',#547,#548,#549);
#551=PLANE('',#550);
#552=ORIENTED_EDGE('',*,*,#207,.T.);
#553=ORIENTED_EDGE('',*,*,#183,.T.);
#554=ORIENTED_EDGE('',*,*,#541,.T.);
#555=ORIENTED_EDGE('',*,*,#519,.T.);
#556=ORIENTED_EDGE('',*,*,#495,.T.);
#557=ORIENTED_EDGE('',*,*,#471,.T.);
#558=ORIENTED_EDGE('',*,*,#447,.T.);
#559=ORIENTED_EDGE('',*,*,#423,.T.);
#560=ORIENTED_EDGE('',*,*,#399,.T.);
#561=ORIENTED_EDGE('',*,*,#375,.T.);
#562=ORIENTED_EDGE('',*,*,#351,.T.);
#563=ORIENTED_EDGE('',*,*,#327,.T.);
#564=ORIENTED_EDGE('',*,*,#303,.T.);
#565=ORIENTED_EDGE('',*,*,#279,.T.);
#566=ORIENTED_EDGE('',*,*,#255,.T.);
#567=ORIENTED_EDGE('',*,*,#231,.T.);
#568=EDGE_LOOP('',(#552,#553,#554,#555,#556,#557,#558,#559,#560,#561,#562,#563,#564,#565,#566,#567));
#569=FACE_BOUND('',#568,.T.);
#570=ADVANCED_FACE('',(#569),#551,.T.);
#571=CLOSED_SHELL('',(#162,#193,#217,#241,#265,#289,#313,#337,#361,#385,#409,#433,#457,#481,#505,#529,#546,#570));
#572=MANIFOLD_SOLID_BREP('Body 02',#571);
#573=COLOUR_RGB('',0.494117647,0.494117647,0.525490224);
#574=FILL_AREA_STYLE_COLOUR('',#573);
#575=FILL_AREA_STYLE('',(#574));
#576=SURFACE_STYLE_FILL_AREA(#575);
#577=SURFACE_SIDE_STYLE('',(#576));
#578=SURFACE_STYLE_USAGE(.BOTH.,#577);
#579=PRESENTATION_STYLE_ASSIGNMENT((#578));
#26=STYLED_ITEM('',(#579),#572);
#16=SHAPE_REPRESENTATION('Body 02',(#15),#10);
#17=ADVANCED_BREP_SHAPE_REPRESENTATION('Body 02',(#572),#10);
#587=SHAPE_REPRESENTATION_RELATIONSHIP('','',#16,#17);
#588=CARTESIAN_POINT('',(0.,0.,0.));
#589=DIRECTION('',(0.,0.,1.));
#590=DIRECTION('',(1.,0.,0.));
#591=AXIS2_PLACEMENT_3D('',#588,#589,#590);
#593=MAPPED_ITEM('',#592,#591);
#592=REPRESENTATION_MAP(#591,#16);
#594=APPLICATION_CONTEXT('Managed model based 3d engineering');
#595=APPLICATION_PROTOCOL_DEFINITION('international standard','ap242_managed_model_based_3d_engineering',2013,#594);
#596=PRODUCT_CONTEXT('',#594,'mechanical');
#597=PRODUCT_DEFINITION_CONTEXT('part definition',#594,'design');
#24=PRODUCT('Body 02','Body 02','',(#596));
#598=PRODUCT_RELATED_PRODUCT_CATEGORY('part','',(#24));
#599=PRODUCT_DEFINITION_FORMATION_WITH_SPECIFIED_SOURCE('','',#24,.NOT_KNOWN.);
#25=PRODUCT_DEFINITION('design','',#599,#597);
#23=PRODUCT_DEFINITION_SHAPE('','',#25);
#600=SHAPE_DEFINITION_REPRESENTATION(#23,#16);
#11=DRAUGHTING_MODEL('',(#593),#10);
#601=DESCRIPTIVE_REPRESENTATION_ITEM('KEY','C:\\Users\\cullm\\AppData\\Local\\Packages\\Shapr3D.Shapr3D_dvv5p1vgwv6mp\\TempState\\ecc4d19a-8ecb-4d43-af67-f8ebefe8f734.tmp');
#602=PROPERTY_DEFINITION('KEY','',#25);
#603=REPRESENTATION('',(#601),#10);
#604=PROPERTY_DEFINITION_REPRESENTATION(#602,#603);
#605=GENERAL_PROPERTY('','KEY','');
#606=GENERAL_PROPERTY_ASSOCIATION('','',#605,#602);
#1=MECHANICAL_DESIGN_GEOMETRIC_PRESENTATION_REPRESENTATION('',(#26),#10);
ENDSEC;
END-ISO-10303-21;
