ISO-10303-21;
HEADER;

/* File generated by Shapr3D Version 5.710.7459.0 */

FILE_DESCRIPTION(('HOOPS Exchange Step'),'2;1');

FILE_NAME('C:\\Users\\cullm\\AppData\\Local\\Packages\\Shapr3D.Shapr3D_dvv5p1vgwv6mp\\TempState\\export\\temp_export',
'2024-09-14T06:15:31-04:00',
('cullm'),
('Shapr3D Limited'),
'HOOPS Exchange 2024.2',
'Shapr3D',
'Authorized');

FILE_SCHEMA( ('AP242_MANAGED_MODEL_BASED_3D_ENGINEERING_MIM_LF {1 0 10303 442 1 1 4 }') );

ENDSEC;

DATA;
#3=(NAMED_UNIT(*)PLANE_ANGLE_UNIT()SI_UNIT($,.RADIAN.));
#4=PLANE_ANGLE_MEASURE_WITH_UNIT(PLANE_ANGLE_MEASURE(0.0174532925),#3);
#5=(CONVERSION_BASED_UNIT('DEGREE',#4)NAMED_UNIT(#6)PLANE_ANGLE_UNIT());
#6=DIMENSIONAL_EXPONENTS(0.,0.,0.,0.,0.,0.,0.);
#7=(NAMED_UNIT(*)SI_UNIT($,.STERADIAN.)SOLID_ANGLE_UNIT());
#8=(LENGTH_UNIT()NAMED_UNIT(*)SI_UNIT(.MILLI.,.METRE.));
#9=UNCERTAINTY_MEASURE_WITH_UNIT(LENGTH_MEASURE(1.000000E-05),#8,'DISTANCE_ACCURACY_VALUE','Maximum Tolerance applied to model');
#10=(GEOMETRIC_REPRESENTATION_CONTEXT(3)GLOBAL_UNCERTAINTY_ASSIGNED_CONTEXT((#9))GLOBAL_UNIT_ASSIGNED_CONTEXT((#8,#5,#7))REPRESENTATION_CONTEXT('','Body 02'));
#12=CARTESIAN_POINT('',(0.,0.,0.));
#13=DIRECTION('',(0.,0.,1.));
#14=DIRECTION('',(1.,0.,0.));
#15=AXIS2_PLACEMENT_3D('',#12,#13,#14);
#27=CARTESIAN_POINT('',(0.,6.910006157,0.));
#28=DIRECTION('',(0.,-1.,0.));
#29=DIRECTION('',(0.,0.,-1.));
#30=AXIS2_PLACEMENT_3D('',#27,#28,#29);
#31=PLANE('',#30);
#32=CARTESIAN_POINT('',(-195.218652015,6.910006157,436.69));
#33=VERTEX_POINT('',#32);
#34=CARTESIAN_POINT('',(-195.218652015,6.910006157,437.53));
#35=VERTEX_POINT('',#34);
#36=CARTESIAN_POINT('',(-195.218652015,6.910006157,436.69));
#37=DIRECTION('',(0.,0.,1.));
#38=VECTOR('',#37,0.84);
#39=LINE('',#36,#38);
#40=EDGE_CURVE('',#33,#35,#39,.T.);
#41=ORIENTED_EDGE('',*,*,#40,.F.);
#42=CARTESIAN_POINT('',(-202.8,6.910006157,436.69));
#43=VERTEX_POINT('',#42);
#44=CARTESIAN_POINT('',(-202.8,6.910006157,436.69));
#45=DIRECTION('',(1.,0.,-0.));
#46=VECTOR('',#45,7.581347985);
#47=LINE('',#44,#46);
#48=EDGE_CURVE('',#43,#33,#47,.T.);
#49=ORIENTED_EDGE('',*,*,#48,.F.);
#50=CARTESIAN_POINT('',(-203.25,6.910006157,436.24));
#51=VERTEX_POINT('',#50);
#52=CARTESIAN_POINT('',(-202.8,6.910006157,436.24));
#53=DIRECTION('',(0.,-1.,0.));
#54=DIRECTION('',(0.,0.,-1.));
#55=AXIS2_PLACEMENT_3D('',#52,#53,#54);
#56=CIRCLE('',#55,0.45);
#57=EDGE_CURVE('',#43,#51,#56,.T.);
#58=ORIENTED_EDGE('',*,*,#57,.T.);
#59=CARTESIAN_POINT('',(-203.25,6.910006157,434.293736029));
#60=VERTEX_POINT('',#59);
#61=CARTESIAN_POINT('',(-203.25,6.910006157,434.293736029));
#62=DIRECTION('',(0.,0.,1.));
#63=VECTOR('',#62,1.946263971);
#64=LINE('',#61,#63);
#65=EDGE_CURVE('',#60,#51,#64,.T.);
#66=ORIENTED_EDGE('',*,*,#65,.F.);
#67=CARTESIAN_POINT('',(-202.8,6.910006157,433.843736029));
#68=VERTEX_POINT('',#67);
#69=CARTESIAN_POINT('',(-202.8,6.910006157,434.293736029));
#70=DIRECTION('',(0.,-1.,0.));
#71=DIRECTION('',(0.,0.,-1.));
#72=AXIS2_PLACEMENT_3D('',#69,#70,#71);
#73=CIRCLE('',#72,0.45);
#74=EDGE_CURVE('',#60,#68,#73,.T.);
#75=ORIENTED_EDGE('',*,*,#74,.T.);
#76=CARTESIAN_POINT('',(-195.218652015,6.910006157,433.843736029));
#77=VERTEX_POINT('',#76);
#78=CARTESIAN_POINT('',(-195.218652015,6.910006157,433.843736029));
#79=DIRECTION('',(-1.,0.,0.));
#80=VECTOR('',#79,7.581347985);
#81=LINE('',#78,#80);
#82=EDGE_CURVE('',#77,#68,#81,.T.);
#83=ORIENTED_EDGE('',*,*,#82,.F.);
#84=CARTESIAN_POINT('',(-195.218652015,6.910006157,432.89));
#85=VERTEX_POINT('',#84);
#86=CARTESIAN_POINT('',(-195.218652015,6.910006157,432.89));
#87=DIRECTION('',(0.,0.,1.));
#88=VECTOR('',#87,0.953736029);
#89=LINE('',#86,#88);
#90=EDGE_CURVE('',#85,#77,#89,.T.);
#91=ORIENTED_EDGE('',*,*,#90,.F.);
#92=CARTESIAN_POINT('',(-203.34,6.910006157,432.89));
#93=VERTEX_POINT('',#92);
#94=CARTESIAN_POINT('',(-203.34,6.910006157,432.89));
#95=DIRECTION('',(1.,0.,-0.));
#96=VECTOR('',#95,8.121347985);
#97=LINE('',#94,#96);
#98=EDGE_CURVE('',#93,#85,#97,.T.);
#99=ORIENTED_EDGE('',*,*,#98,.F.);
#100=CARTESIAN_POINT('',(-203.99,6.910006157,433.54));
#101=VERTEX_POINT('',#100);
#102=CARTESIAN_POINT('',(-203.34,6.910006157,433.54));
#103=DIRECTION('',(0.,-1.,0.));
#104=DIRECTION('',(0.,0.,-1.));
#105=AXIS2_PLACEMENT_3D('',#102,#103,#104);
#106=CIRCLE('',#105,0.65);
#107=EDGE_CURVE('',#101,#93,#106,.T.);
#108=ORIENTED_EDGE('',*,*,#107,.F.);
#109=CARTESIAN_POINT('',(-203.99,6.910006157,436.88));
#110=VERTEX_POINT('',#109);
#111=CARTESIAN_POINT('',(-203.99,6.910006157,436.88));
#112=DIRECTION('',(0.,0.,-1.));
#113=VECTOR('',#112,3.34);
#114=LINE('',#111,#113);
#115=EDGE_CURVE('',#110,#101,#114,.T.);
#116=ORIENTED_EDGE('',*,*,#115,.F.);
#117=CARTESIAN_POINT('',(-203.34,6.910006157,437.53));
#118=VERTEX_POINT('',#117);
#119=CARTESIAN_POINT('',(-203.34,6.910006157,436.88));
#120=DIRECTION('',(0.,-1.,0.));
#121=DIRECTION('',(0.,0.,-1.));
#122=AXIS2_PLACEMENT_3D('',#119,#120,#121);
#123=CIRCLE('',#122,0.65);
#124=EDGE_CURVE('',#118,#110,#123,.T.);
#125=ORIENTED_EDGE('',*,*,#124,.F.);
#126=CARTESIAN_POINT('',(-195.218652015,6.910006157,437.53));
#127=DIRECTION('',(-1.,0.,0.));
#128=VECTOR('',#127,8.121347985);
#129=LINE('',#126,#128);
#130=EDGE_CURVE('',#35,#118,#129,.T.);
#131=ORIENTED_EDGE('',*,*,#130,.F.);
#132=EDGE_LOOP('',(#41,#49,#58,#66,#75,#83,#91,#99,#108,#116,#125,#131));
#133=FACE_BOUND('',#132,.T.);
#134=ADVANCED_FACE('',(#133),#31,.F.);
#135=CARTESIAN_POINT('',(-195.218652015,8.510006157,437.11));
#136=DIRECTION('',(1.,0.,0.));
#137=DIRECTION('',(0.,0.,-1.));
#138=AXIS2_PLACEMENT_3D('',#135,#136,#137);
#139=PLANE('',#138);
#140=ORIENTED_EDGE('',*,*,#40,.T.);
#141=CARTESIAN_POINT('',(-195.218652015,4.910006157,437.53));
#142=VERTEX_POINT('',#141);
#143=CARTESIAN_POINT('',(-195.218652015,6.910006157,437.53));
#144=DIRECTION('',(0.,-1.,0.));
#145=VECTOR('',#144,2.);
#146=LINE('',#143,#145);
#147=EDGE_CURVE('',#35,#142,#146,.T.);
#148=ORIENTED_EDGE('',*,*,#147,.T.);
#149=CARTESIAN_POINT('',(-195.218652015,4.910006157,436.69));
#150=VERTEX_POINT('',#149);
#151=CARTESIAN_POINT('',(-195.218652015,4.910006157,436.69));
#152=DIRECTION('',(0.,0.,1.));
#153=VECTOR('',#152,0.84);
#154=LINE('',#151,#153);
#155=EDGE_CURVE('',#150,#142,#154,.T.);
#156=ORIENTED_EDGE('',*,*,#155,.F.);
#157=CARTESIAN_POINT('',(-195.218652015,6.910006157,436.69));
#158=DIRECTION('',(0.,-1.,0.));
#159=VECTOR('',#158,2.);
#160=LINE('',#157,#159);
#161=EDGE_CURVE('',#33,#150,#160,.T.);
#162=ORIENTED_EDGE('',*,*,#161,.F.);
#163=EDGE_LOOP('',(#140,#148,#156,#162));
#164=FACE_BOUND('',#163,.T.);
#165=ADVANCED_FACE('',(#164),#139,.T.);
#166=CARTESIAN_POINT('',(-199.009326007,8.510006157,436.69));
#167=DIRECTION('',(0.,0.,-1.));
#168=DIRECTION('',(-1.,0.,0.));
#169=AXIS2_PLACEMENT_3D('',#166,#167,#168);
#170=PLANE('',#169);
#171=ORIENTED_EDGE('',*,*,#48,.T.);
#172=ORIENTED_EDGE('',*,*,#161,.T.);
#173=CARTESIAN_POINT('',(-202.8,4.910006157,436.69));
#174=VERTEX_POINT('',#173);
#175=CARTESIAN_POINT('',(-202.8,4.910006157,436.69));
#176=DIRECTION('',(1.,0.,-0.));
#177=VECTOR('',#176,7.581347985);
#178=LINE('',#175,#177);
#179=EDGE_CURVE('',#174,#150,#178,.T.);
#180=ORIENTED_EDGE('',*,*,#179,.F.);
#181=CARTESIAN_POINT('',(-202.8,6.910006157,436.69));
#182=DIRECTION('',(0.,-1.,0.));
#183=VECTOR('',#182,2.);
#184=LINE('',#181,#183);
#185=EDGE_CURVE('',#43,#174,#184,.T.);
#186=ORIENTED_EDGE('',*,*,#185,.F.);
#187=EDGE_LOOP('',(#171,#172,#180,#186));
#188=FACE_BOUND('',#187,.T.);
#189=ADVANCED_FACE('',(#188),#170,.T.);
#190=CARTESIAN_POINT('',(-202.8,8.510006157,436.24));
#191=DIRECTION('',(0.,-1.,0.));
#192=DIRECTION('',(0.,0.,-1.));
#193=AXIS2_PLACEMENT_3D('',#190,#191,#192);
#194=CYLINDRICAL_SURFACE('',#193,0.45);
#195=ORIENTED_EDGE('',*,*,#185,.T.);
#196=CARTESIAN_POINT('',(-203.25,4.910006157,436.24));
#197=VERTEX_POINT('',#196);
#198=CARTESIAN_POINT('',(-202.8,4.910006157,436.24));
#199=DIRECTION('',(0.,-1.,0.));
#200=DIRECTION('',(0.,0.,-1.));
#201=AXIS2_PLACEMENT_3D('',#198,#199,#200);
#202=CIRCLE('',#201,0.45);
#203=EDGE_CURVE('',#174,#197,#202,.T.);
#204=ORIENTED_EDGE('',*,*,#203,.T.);
#205=CARTESIAN_POINT('',(-203.25,6.910006157,436.24));
#206=DIRECTION('',(0.,-1.,0.));
#207=VECTOR('',#206,2.);
#208=LINE('',#205,#207);
#209=EDGE_CURVE('',#51,#197,#208,.T.);
#210=ORIENTED_EDGE('',*,*,#209,.F.);
#211=ORIENTED_EDGE('',*,*,#57,.F.);
#212=EDGE_LOOP('',(#195,#204,#210,#211));
#213=FACE_BOUND('',#212,.T.);
#214=ADVANCED_FACE('',(#213),#194,.F.);
#215=CARTESIAN_POINT('',(-203.25,8.510006157,435.266868015));
#216=DIRECTION('',(1.,0.,0.));
#217=DIRECTION('',(0.,0.,-1.));
#218=AXIS2_PLACEMENT_3D('',#215,#216,#217);
#219=PLANE('',#218);
#220=ORIENTED_EDGE('',*,*,#65,.T.);
#221=ORIENTED_EDGE('',*,*,#209,.T.);
#222=CARTESIAN_POINT('',(-203.25,4.910006157,434.293736029));
#223=VERTEX_POINT('',#222);
#224=CARTESIAN_POINT('',(-203.25,4.910006157,434.293736029));
#225=DIRECTION('',(0.,0.,1.));
#226=VECTOR('',#225,1.946263971);
#227=LINE('',#224,#226);
#228=EDGE_CURVE('',#223,#197,#227,.T.);
#229=ORIENTED_EDGE('',*,*,#228,.F.);
#230=CARTESIAN_POINT('',(-203.25,6.910006157,434.293736029));
#231=DIRECTION('',(0.,-1.,0.));
#232=VECTOR('',#231,2.);
#233=LINE('',#230,#232);
#234=EDGE_CURVE('',#60,#223,#233,.T.);
#235=ORIENTED_EDGE('',*,*,#234,.F.);
#236=EDGE_LOOP('',(#220,#221,#229,#235));
#237=FACE_BOUND('',#236,.T.);
#238=ADVANCED_FACE('',(#237),#219,.T.);
#239=CARTESIAN_POINT('',(-202.8,8.510006157,434.293736029));
#240=DIRECTION('',(0.,-1.,0.));
#241=DIRECTION('',(0.,0.,-1.));
#242=AXIS2_PLACEMENT_3D('',#239,#240,#241);
#243=CYLINDRICAL_SURFACE('',#242,0.45);
#244=ORIENTED_EDGE('',*,*,#234,.T.);
#245=CARTESIAN_POINT('',(-202.8,4.910006157,433.843736029));
#246=VERTEX_POINT('',#245);
#247=CARTESIAN_POINT('',(-202.8,4.910006157,434.293736029));
#248=DIRECTION('',(0.,-1.,0.));
#249=DIRECTION('',(0.,0.,-1.));
#250=AXIS2_PLACEMENT_3D('',#247,#248,#249);
#251=CIRCLE('',#250,0.45);
#252=EDGE_CURVE('',#223,#246,#251,.T.);
#253=ORIENTED_EDGE('',*,*,#252,.T.);
#254=CARTESIAN_POINT('',(-202.8,6.910006157,433.843736029));
#255=DIRECTION('',(0.,-1.,0.));
#256=VECTOR('',#255,2.);
#257=LINE('',#254,#256);
#258=EDGE_CURVE('',#68,#246,#257,.T.);
#259=ORIENTED_EDGE('',*,*,#258,.F.);
#260=ORIENTED_EDGE('',*,*,#74,.F.);
#261=EDGE_LOOP('',(#244,#253,#259,#260));
#262=FACE_BOUND('',#261,.T.);
#263=ADVANCED_FACE('',(#262),#243,.F.);
#264=CARTESIAN_POINT('',(-199.009326007,8.510006157,433.843736029));
#265=DIRECTION('',(0.,0.,1.));
#266=DIRECTION('',(1.,0.,0.));
#267=AXIS2_PLACEMENT_3D('',#264,#265,#266);
#268=PLANE('',#267);
#269=ORIENTED_EDGE('',*,*,#82,.T.);
#270=ORIENTED_EDGE('',*,*,#258,.T.);
#271=CARTESIAN_POINT('',(-195.218652015,4.910006157,433.843736029));
#272=VERTEX_POINT('',#271);
#273=CARTESIAN_POINT('',(-195.218652015,4.910006157,433.843736029));
#274=DIRECTION('',(-1.,0.,0.));
#275=VECTOR('',#274,7.581347985);
#276=LINE('',#273,#275);
#277=EDGE_CURVE('',#272,#246,#276,.T.);
#278=ORIENTED_EDGE('',*,*,#277,.F.);
#279=CARTESIAN_POINT('',(-195.218652015,6.910006157,433.843736029));
#280=DIRECTION('',(0.,-1.,0.));
#281=VECTOR('',#280,2.);
#282=LINE('',#279,#281);
#283=EDGE_CURVE('',#77,#272,#282,.T.);
#284=ORIENTED_EDGE('',*,*,#283,.F.);
#285=EDGE_LOOP('',(#269,#270,#278,#284));
#286=FACE_BOUND('',#285,.T.);
#287=ADVANCED_FACE('',(#286),#268,.T.);
#288=CARTESIAN_POINT('',(-195.218652015,8.510006157,433.366868014));
#289=DIRECTION('',(1.,0.,0.));
#290=DIRECTION('',(0.,0.,-1.));
#291=AXIS2_PLACEMENT_3D('',#288,#289,#290);
#292=PLANE('',#291);
#293=ORIENTED_EDGE('',*,*,#90,.T.);
#294=ORIENTED_EDGE('',*,*,#283,.T.);
#295=CARTESIAN_POINT('',(-195.218652015,4.910006157,432.89));
#296=VERTEX_POINT('',#295);
#297=CARTESIAN_POINT('',(-195.218652015,4.910006157,432.89));
#298=DIRECTION('',(0.,0.,1.));
#299=VECTOR('',#298,0.953736029);
#300=LINE('',#297,#299);
#301=EDGE_CURVE('',#296,#272,#300,.T.);
#302=ORIENTED_EDGE('',*,*,#301,.F.);
#303=CARTESIAN_POINT('',(-195.218652015,6.910006157,432.89));
#304=DIRECTION('',(0.,-1.,0.));
#305=VECTOR('',#304,2.);
#306=LINE('',#303,#305);
#307=EDGE_CURVE('',#85,#296,#306,.T.);
#308=ORIENTED_EDGE('',*,*,#307,.F.);
#309=EDGE_LOOP('',(#293,#294,#302,#308));
#310=FACE_BOUND('',#309,.T.);
#311=ADVANCED_FACE('',(#310),#292,.T.);
#312=CARTESIAN_POINT('',(-199.279326007,8.510006157,432.89));
#313=DIRECTION('',(0.,0.,-1.));
#314=DIRECTION('',(-1.,0.,0.));
#315=AXIS2_PLACEMENT_3D('',#312,#313,#314);
#316=PLANE('',#315);
#317=ORIENTED_EDGE('',*,*,#98,.T.);
#318=ORIENTED_EDGE('',*,*,#307,.T.);
#319=CARTESIAN_POINT('',(-203.34,4.910006157,432.89));
#320=VERTEX_POINT('',#319);
#321=CARTESIAN_POINT('',(-203.34,4.910006157,432.89));
#322=DIRECTION('',(1.,0.,-0.));
#323=VECTOR('',#322,8.121347985);
#324=LINE('',#321,#323);
#325=EDGE_CURVE('',#320,#296,#324,.T.);
#326=ORIENTED_EDGE('',*,*,#325,.F.);
#327=CARTESIAN_POINT('',(-203.34,6.910006157,432.89));
#328=DIRECTION('',(0.,-1.,0.));
#329=VECTOR('',#328,2.);
#330=LINE('',#327,#329);
#331=EDGE_CURVE('',#93,#320,#330,.T.);
#332=ORIENTED_EDGE('',*,*,#331,.F.);
#333=EDGE_LOOP('',(#317,#318,#326,#332));
#334=FACE_BOUND('',#333,.T.);
#335=ADVANCED_FACE('',(#334),#316,.T.);
#336=CARTESIAN_POINT('',(-203.34,8.510006157,433.54));
#337=DIRECTION('',(0.,-1.,0.));
#338=DIRECTION('',(0.,0.,-1.));
#339=AXIS2_PLACEMENT_3D('',#336,#337,#338);
#340=CYLINDRICAL_SURFACE('',#339,0.65);
#341=ORIENTED_EDGE('',*,*,#107,.T.);
#342=ORIENTED_EDGE('',*,*,#331,.T.);
#343=CARTESIAN_POINT('',(-203.99,4.910006157,433.54));
#344=VERTEX_POINT('',#343);
#345=CARTESIAN_POINT('',(-203.34,4.910006157,433.54));
#346=DIRECTION('',(0.,-1.,0.));
#347=DIRECTION('',(0.,0.,-1.));
#348=AXIS2_PLACEMENT_3D('',#345,#346,#347);
#349=CIRCLE('',#348,0.65);
#350=EDGE_CURVE('',#344,#320,#349,.T.);
#351=ORIENTED_EDGE('',*,*,#350,.F.);
#352=CARTESIAN_POINT('',(-203.99,6.910006157,433.54));
#353=DIRECTION('',(0.,-1.,0.));
#354=VECTOR('',#353,2.);
#355=LINE('',#352,#354);
#356=EDGE_CURVE('',#101,#344,#355,.T.);
#357=ORIENTED_EDGE('',*,*,#356,.F.);
#358=EDGE_LOOP('',(#341,#342,#351,#357));
#359=FACE_BOUND('',#358,.T.);
#360=ADVANCED_FACE('',(#359),#340,.T.);
#361=CARTESIAN_POINT('',(-203.99,8.510006157,435.21));
#362=DIRECTION('',(-1.,0.,0.));
#363=DIRECTION('',(0.,0.,1.));
#364=AXIS2_PLACEMENT_3D('',#361,#362,#363);
#365=PLANE('',#364);
#366=ORIENTED_EDGE('',*,*,#115,.T.);
#367=ORIENTED_EDGE('',*,*,#356,.T.);
#368=CARTESIAN_POINT('',(-203.99,4.910006157,436.88));
#369=VERTEX_POINT('',#368);
#370=CARTESIAN_POINT('',(-203.99,4.910006157,436.88));
#371=DIRECTION('',(0.,0.,-1.));
#372=VECTOR('',#371,3.34);
#373=LINE('',#370,#372);
#374=EDGE_CURVE('',#369,#344,#373,.T.);
#375=ORIENTED_EDGE('',*,*,#374,.F.);
#376=CARTESIAN_POINT('',(-203.99,6.910006157,436.88));
#377=DIRECTION('',(0.,-1.,0.));
#378=VECTOR('',#377,2.);
#379=LINE('',#376,#378);
#380=EDGE_CURVE('',#110,#369,#379,.T.);
#381=ORIENTED_EDGE('',*,*,#380,.F.);
#382=EDGE_LOOP('',(#366,#367,#375,#381));
#383=FACE_BOUND('',#382,.T.);
#384=ADVANCED_FACE('',(#383),#365,.T.);
#385=CARTESIAN_POINT('',(-203.34,8.510006157,436.88));
#386=DIRECTION('',(0.,-1.,0.));
#387=DIRECTION('',(0.,0.,-1.));
#388=AXIS2_PLACEMENT_3D('',#385,#386,#387);
#389=CYLINDRICAL_SURFACE('',#388,0.65);
#390=ORIENTED_EDGE('',*,*,#124,.T.);
#391=ORIENTED_EDGE('',*,*,#380,.T.);
#392=CARTESIAN_POINT('',(-203.34,4.910006157,437.53));
#393=VERTEX_POINT('',#392);
#394=CARTESIAN_POINT('',(-203.34,4.910006157,436.88));
#395=DIRECTION('',(0.,-1.,0.));
#396=DIRECTION('',(0.,0.,-1.));
#397=AXIS2_PLACEMENT_3D('',#394,#395,#396);
#398=CIRCLE('',#397,0.65);
#399=EDGE_CURVE('',#393,#369,#398,.T.);
#400=ORIENTED_EDGE('',*,*,#399,.F.);
#401=CARTESIAN_POINT('',(-203.34,6.910006157,437.53));
#402=DIRECTION('',(0.,-1.,0.));
#403=VECTOR('',#402,2.);
#404=LINE('',#401,#403);
#405=EDGE_CURVE('',#118,#393,#404,.T.);
#406=ORIENTED_EDGE('',*,*,#405,.F.);
#407=EDGE_LOOP('',(#390,#391,#400,#406));
#408=FACE_BOUND('',#407,.T.);
#409=ADVANCED_FACE('',(#408),#389,.T.);
#410=CARTESIAN_POINT('',(-199.279326007,8.510006157,437.53));
#411=DIRECTION('',(0.,0.,1.));
#412=DIRECTION('',(1.,0.,0.));
#413=AXIS2_PLACEMENT_3D('',#410,#411,#412);
#414=PLANE('',#413);
#415=ORIENTED_EDGE('',*,*,#130,.T.);
#416=ORIENTED_EDGE('',*,*,#405,.T.);
#417=CARTESIAN_POINT('',(-195.218652015,4.910006157,437.53));
#418=DIRECTION('',(-1.,0.,0.));
#419=VECTOR('',#418,8.121347985);
#420=LINE('',#417,#419);
#421=EDGE_CURVE('',#142,#393,#420,.T.);
#422=ORIENTED_EDGE('',*,*,#421,.F.);
#423=ORIENTED_EDGE('',*,*,#147,.F.);
#424=EDGE_LOOP('',(#415,#416,#422,#423));
#425=FACE_BOUND('',#424,.T.);
#426=ADVANCED_FACE('',(#425),#414,.T.);
#427=CARTESIAN_POINT('',(0.,4.910006157,0.));
#428=DIRECTION('',(0.,-1.,0.));
#429=DIRECTION('',(0.,0.,-1.));
#430=AXIS2_PLACEMENT_3D('',#427,#428,#429);
#431=PLANE('',#430);
#432=ORIENTED_EDGE('',*,*,#179,.T.);
#433=ORIENTED_EDGE('',*,*,#155,.T.);
#434=ORIENTED_EDGE('',*,*,#421,.T.);
#435=ORIENTED_EDGE('',*,*,#399,.T.);
#436=ORIENTED_EDGE('',*,*,#374,.T.);
#437=ORIENTED_EDGE('',*,*,#350,.T.);
#438=ORIENTED_EDGE('',*,*,#325,.T.);
#439=ORIENTED_EDGE('',*,*,#301,.T.);
#440=ORIENTED_EDGE('',*,*,#277,.T.);
#441=ORIENTED_EDGE('',*,*,#252,.F.);
#442=ORIENTED_EDGE('',*,*,#228,.T.);
#443=ORIENTED_EDGE('',*,*,#203,.F.);
#444=EDGE_LOOP('',(#432,#433,#434,#435,#436,#437,#438,#439,#440,#441,#442,#443));
#445=FACE_BOUND('',#444,.T.);
#446=ADVANCED_FACE('',(#445),#431,.T.);
#447=CLOSED_SHELL('',(#134,#165,#189,#214,#238,#263,#287,#311,#335,#360,#384,#409,#426,#446));
#448=MANIFOLD_SOLID_BREP('Body 02',#447);
#449=COLOUR_RGB('',0.494117647,0.494117647,0.525490224);
#450=FILL_AREA_STYLE_COLOUR('',#449);
#451=FILL_AREA_STYLE('',(#450));
#452=SURFACE_STYLE_FILL_AREA(#451);
#453=SURFACE_SIDE_STYLE('',(#452));
#454=SURFACE_STYLE_USAGE(.BOTH.,#453);
#455=PRESENTATION_STYLE_ASSIGNMENT((#454));
#26=STYLED_ITEM('',(#455),#448);
#16=SHAPE_REPRESENTATION('Body 02',(#15),#10);
#17=ADVANCED_BREP_SHAPE_REPRESENTATION('Body 02',(#448),#10);
#463=SHAPE_REPRESENTATION_RELATIONSHIP('','',#16,#17);
#464=CARTESIAN_POINT('',(0.,0.,0.));
#465=DIRECTION('',(0.,0.,1.));
#466=DIRECTION('',(1.,0.,0.));
#467=AXIS2_PLACEMENT_3D('',#464,#465,#466);
#469=MAPPED_ITEM('',#468,#467);
#468=REPRESENTATION_MAP(#467,#16);
#470=APPLICATION_CONTEXT('Managed model based 3d engineering');
#471=APPLICATION_PROTOCOL_DEFINITION('international standard','ap242_managed_model_based_3d_engineering',2013,#470);
#472=PRODUCT_CONTEXT('',#470,'mechanical');
#473=PRODUCT_DEFINITION_CONTEXT('part definition',#470,'design');
#24=PRODUCT('Body 02','Body 02','',(#472));
#474=PRODUCT_RELATED_PRODUCT_CATEGORY('part','',(#24));
#475=PRODUCT_DEFINITION_FORMATION_WITH_SPECIFIED_SOURCE('','',#24,.NOT_KNOWN.);
#25=PRODUCT_DEFINITION('design','',#475,#473);
#23=PRODUCT_DEFINITION_SHAPE('','',#25);
#476=SHAPE_DEFINITION_REPRESENTATION(#23,#16);
#11=DRAUGHTING_MODEL('',(#469),#10);
#477=DESCRIPTIVE_REPRESENTATION_ITEM('KEY','C:\\Users\\cullm\\AppData\\Local\\Packages\\Shapr3D.Shapr3D_dvv5p1vgwv6mp\\TempState\\e5075a5a-8471-472f-b3a4-c14c90e0a7a4.tmp');
#478=PROPERTY_DEFINITION('KEY','',#25);
#479=REPRESENTATION('',(#477),#10);
#480=PROPERTY_DEFINITION_REPRESENTATION(#478,#479);
#481=GENERAL_PROPERTY('','KEY','');
#482=GENERAL_PROPERTY_ASSOCIATION('','',#481,#478);
#1=MECHANICAL_DESIGN_GEOMETRIC_PRESENTATION_REPRESENTATION('',(#26),#10);
ENDSEC;
END-ISO-10303-21;
