ISO-10303-21;
HEADER;

/* File generated by Shapr3D Version 5.710.7459.0 */

FILE_DESCRIPTION(('HOOPS Exchange Step'),'2;1');

FILE_NAME('C:\\Users\\cullm\\AppData\\Local\\Packages\\Shapr3D.Shapr3D_dvv5p1vgwv6mp\\TempState\\export\\temp_export',
'2024-09-14T06:15:31-04:00',
('cullm'),
('Shapr3D Limited'),
'HOOPS Exchange 2024.2',
'Shapr3D',
'Authorized');

FILE_SCHEMA( ('AP242_MANAGED_MODEL_BASED_3D_ENGINEERING_MIM_LF {1 0 10303 442 1 1 4 }') );

ENDSEC;

DATA;
#3=(NAMED_UNIT(*)PLANE_ANGLE_UNIT()SI_UNIT($,.RADIAN.));
#4=PLANE_ANGLE_MEASURE_WITH_UNIT(PLANE_ANGLE_MEASURE(0.0174532925),#3);
#5=(CONVERSION_BASED_UNIT('DEGREE',#4)NAMED_UNIT(#6)PLANE_ANGLE_UNIT());
#6=DIMENSIONAL_EXPONENTS(0.,0.,0.,0.,0.,0.,0.);
#7=(NAMED_UNIT(*)SI_UNIT($,.STERADIAN.)SOLID_ANGLE_UNIT());
#8=(LENGTH_UNIT()NAMED_UNIT(*)SI_UNIT(.MILLI.,.METRE.));
#9=UNCERTAINTY_MEASURE_WITH_UNIT(LENGTH_MEASURE(1.000000E-05),#8,'DISTANCE_ACCURACY_VALUE','Maximum Tolerance applied to model');
#10=(GEOMETRIC_REPRESENTATION_CONTEXT(3)GLOBAL_UNCERTAINTY_ASSIGNED_CONTEXT((#9))GLOBAL_UNIT_ASSIGNED_CONTEXT((#8,#5,#7))REPRESENTATION_CONTEXT('','Body 02'));
#12=CARTESIAN_POINT('',(0.,0.,0.));
#13=DIRECTION('',(0.,0.,1.));
#14=DIRECTION('',(1.,0.,0.));
#15=AXIS2_PLACEMENT_3D('',#12,#13,#14);
#27=CARTESIAN_POINT('',(0.,6.910006157,0.));
#28=DIRECTION('',(0.,-1.,0.));
#29=DIRECTION('',(0.,0.,-1.));
#30=AXIS2_PLACEMENT_3D('',#27,#28,#29);
#31=PLANE('',#30);
#32=CARTESIAN_POINT('',(-193.261543989,6.910006157,435.65));
#33=VERTEX_POINT('',#32);
#34=CARTESIAN_POINT('',(-193.261543989,6.910006157,437.53));
#35=VERTEX_POINT('',#34);
#36=CARTESIAN_POINT('',(-193.261543989,6.910006157,435.65));
#37=DIRECTION('',(0.,0.,1.));
#38=VECTOR('',#37,1.88);
#39=LINE('',#36,#38);
#40=EDGE_CURVE('',#33,#35,#39,.T.);
#41=ORIENTED_EDGE('',*,*,#40,.F.);
#42=CARTESIAN_POINT('',(-185.88,6.910006157,435.65));
#43=VERTEX_POINT('',#42);
#44=CARTESIAN_POINT('',(-185.88,6.910006157,435.65));
#45=DIRECTION('',(-1.,0.,0.));
#46=VECTOR('',#45,7.381543989);
#47=LINE('',#44,#46);
#48=EDGE_CURVE('',#43,#33,#47,.T.);
#49=ORIENTED_EDGE('',*,*,#48,.F.);
#50=CARTESIAN_POINT('',(-185.88,6.910006157,437.53));
#51=VERTEX_POINT('',#50);
#52=CARTESIAN_POINT('',(-185.88,6.910006157,437.53));
#53=DIRECTION('',(0.,0.,-1.));
#54=VECTOR('',#53,1.88);
#55=LINE('',#52,#54);
#56=EDGE_CURVE('',#51,#43,#55,.T.);
#57=ORIENTED_EDGE('',*,*,#56,.F.);
#58=CARTESIAN_POINT('',(-185.15540514,6.910006157,437.53));
#59=VERTEX_POINT('',#58);
#60=CARTESIAN_POINT('',(-185.15540514,6.910006157,437.53));
#61=DIRECTION('',(-1.,0.,0.));
#62=VECTOR('',#61,0.72459486);
#63=LINE('',#60,#62);
#64=EDGE_CURVE('',#59,#51,#63,.T.);
#65=ORIENTED_EDGE('',*,*,#64,.F.);
#66=CARTESIAN_POINT('',(-185.15540514,6.910006157,432.89));
#67=VERTEX_POINT('',#66);
#68=CARTESIAN_POINT('',(-185.15540514,6.910006157,432.89));
#69=DIRECTION('',(0.,0.,1.));
#70=VECTOR('',#69,4.64);
#71=LINE('',#68,#70);
#72=EDGE_CURVE('',#67,#59,#71,.T.);
#73=ORIENTED_EDGE('',*,*,#72,.F.);
#74=CARTESIAN_POINT('',(-185.887767692,6.910006157,432.89));
#75=VERTEX_POINT('',#74);
#76=CARTESIAN_POINT('',(-185.887767692,6.910006157,432.89));
#77=DIRECTION('',(1.,0.,-0.));
#78=VECTOR('',#77,0.732362552);
#79=LINE('',#76,#78);
#80=EDGE_CURVE('',#75,#67,#79,.T.);
#81=ORIENTED_EDGE('',*,*,#80,.F.);
#82=CARTESIAN_POINT('',(-185.887767692,6.910006157,434.9));
#83=VERTEX_POINT('',#82);
#84=CARTESIAN_POINT('',(-185.887767692,6.910006157,434.9));
#85=DIRECTION('',(0.,0.,-1.));
#86=VECTOR('',#85,2.01);
#87=LINE('',#84,#86);
#88=EDGE_CURVE('',#83,#75,#87,.T.);
#89=ORIENTED_EDGE('',*,*,#88,.F.);
#90=CARTESIAN_POINT('',(-193.261958995,6.910006157,434.9));
#91=VERTEX_POINT('',#90);
#92=CARTESIAN_POINT('',(-193.261958995,6.910006157,434.9));
#93=DIRECTION('',(1.,0.,-0.));
#94=VECTOR('',#93,7.374191303);
#95=LINE('',#92,#94);
#96=EDGE_CURVE('',#91,#83,#95,.T.);
#97=ORIENTED_EDGE('',*,*,#96,.F.);
#98=CARTESIAN_POINT('',(-193.261958995,6.910006157,432.89));
#99=VERTEX_POINT('',#98);
#100=CARTESIAN_POINT('',(-193.261958995,6.910006157,432.89));
#101=DIRECTION('',(0.,0.,1.));
#102=VECTOR('',#101,2.01);
#103=LINE('',#100,#102);
#104=EDGE_CURVE('',#99,#91,#103,.T.);
#105=ORIENTED_EDGE('',*,*,#104,.F.);
#106=CARTESIAN_POINT('',(-193.985666828,6.910006157,432.89));
#107=VERTEX_POINT('',#106);
#108=CARTESIAN_POINT('',(-193.985666828,6.910006157,432.89));
#109=DIRECTION('',(1.,0.,-0.));
#110=VECTOR('',#109,0.723707833);
#111=LINE('',#108,#110);
#112=EDGE_CURVE('',#107,#99,#111,.T.);
#113=ORIENTED_EDGE('',*,*,#112,.F.);
#114=CARTESIAN_POINT('',(-193.985666828,6.910006157,437.53));
#115=VERTEX_POINT('',#114);
#116=CARTESIAN_POINT('',(-193.985666828,6.910006157,432.89));
#117=DIRECTION('',(0.,0.,1.));
#118=VECTOR('',#117,4.64);
#119=LINE('',#116,#118);
#120=EDGE_CURVE('',#107,#115,#119,.T.);
#121=ORIENTED_EDGE('',*,*,#120,.T.);
#122=CARTESIAN_POINT('',(-193.261543989,6.910006157,437.53));
#123=DIRECTION('',(-1.,0.,0.));
#124=VECTOR('',#123,0.724122839);
#125=LINE('',#122,#124);
#126=EDGE_CURVE('',#35,#115,#125,.T.);
#127=ORIENTED_EDGE('',*,*,#126,.F.);
#128=EDGE_LOOP('',(#41,#49,#57,#65,#73,#81,#89,#97,#105,#113,#121,#127));
#129=FACE_BOUND('',#128,.T.);
#130=ADVANCED_FACE('',(#129),#31,.F.);
#131=CARTESIAN_POINT('',(-193.261543989,8.710006157,436.59));
#132=DIRECTION('',(1.,0.,0.));
#133=DIRECTION('',(0.,0.,-1.));
#134=AXIS2_PLACEMENT_3D('',#131,#132,#133);
#135=PLANE('',#134);
#136=ORIENTED_EDGE('',*,*,#40,.T.);
#137=CARTESIAN_POINT('',(-193.261543989,4.910006157,437.53));
#138=VERTEX_POINT('',#137);
#139=CARTESIAN_POINT('',(-193.261543989,6.910006157,437.53));
#140=DIRECTION('',(0.,-1.,0.));
#141=VECTOR('',#140,2.);
#142=LINE('',#139,#141);
#143=EDGE_CURVE('',#35,#138,#142,.T.);
#144=ORIENTED_EDGE('',*,*,#143,.T.);
#145=CARTESIAN_POINT('',(-193.261543989,4.910006157,435.65));
#146=VERTEX_POINT('',#145);
#147=CARTESIAN_POINT('',(-193.261543989,4.910006157,435.65));
#148=DIRECTION('',(0.,0.,1.));
#149=VECTOR('',#148,1.88);
#150=LINE('',#147,#149);
#151=EDGE_CURVE('',#146,#138,#150,.T.);
#152=ORIENTED_EDGE('',*,*,#151,.F.);
#153=CARTESIAN_POINT('',(-193.261543989,6.910006157,435.65));
#154=DIRECTION('',(0.,-1.,0.));
#155=VECTOR('',#154,2.);
#156=LINE('',#153,#155);
#157=EDGE_CURVE('',#33,#146,#156,.T.);
#158=ORIENTED_EDGE('',*,*,#157,.F.);
#159=EDGE_LOOP('',(#136,#144,#152,#158));
#160=FACE_BOUND('',#159,.T.);
#161=ADVANCED_FACE('',(#160),#135,.T.);
#162=CARTESIAN_POINT('',(-189.570771995,8.710006157,435.65));
#163=DIRECTION('',(0.,0.,1.));
#164=DIRECTION('',(1.,0.,0.));
#165=AXIS2_PLACEMENT_3D('',#162,#163,#164);
#166=PLANE('',#165);
#167=ORIENTED_EDGE('',*,*,#48,.T.);
#168=ORIENTED_EDGE('',*,*,#157,.T.);
#169=CARTESIAN_POINT('',(-185.88,4.910006157,435.65));
#170=VERTEX_POINT('',#169);
#171=CARTESIAN_POINT('',(-185.88,4.910006157,435.65));
#172=DIRECTION('',(-1.,0.,0.));
#173=VECTOR('',#172,7.381543989);
#174=LINE('',#171,#173);
#175=EDGE_CURVE('',#170,#146,#174,.T.);
#176=ORIENTED_EDGE('',*,*,#175,.F.);
#177=CARTESIAN_POINT('',(-185.88,6.910006157,435.65));
#178=DIRECTION('',(0.,-1.,0.));
#179=VECTOR('',#178,2.);
#180=LINE('',#177,#179);
#181=EDGE_CURVE('',#43,#170,#180,.T.);
#182=ORIENTED_EDGE('',*,*,#181,.F.);
#183=EDGE_LOOP('',(#167,#168,#176,#182));
#184=FACE_BOUND('',#183,.T.);
#185=ADVANCED_FACE('',(#184),#166,.T.);
#186=CARTESIAN_POINT('',(-185.88,8.710006157,436.59));
#187=DIRECTION('',(-1.,0.,0.));
#188=DIRECTION('',(0.,0.,1.));
#189=AXIS2_PLACEMENT_3D('',#186,#187,#188);
#190=PLANE('',#189);
#191=ORIENTED_EDGE('',*,*,#56,.T.);
#192=ORIENTED_EDGE('',*,*,#181,.T.);
#193=CARTESIAN_POINT('',(-185.88,4.910006157,437.53));
#194=VERTEX_POINT('',#193);
#195=CARTESIAN_POINT('',(-185.88,4.910006157,437.53));
#196=DIRECTION('',(0.,0.,-1.));
#197=VECTOR('',#196,1.88);
#198=LINE('',#195,#197);
#199=EDGE_CURVE('',#194,#170,#198,.T.);
#200=ORIENTED_EDGE('',*,*,#199,.F.);
#201=CARTESIAN_POINT('',(-185.88,6.910006157,437.53));
#202=DIRECTION('',(0.,-1.,0.));
#203=VECTOR('',#202,2.);
#204=LINE('',#201,#203);
#205=EDGE_CURVE('',#51,#194,#204,.T.);
#206=ORIENTED_EDGE('',*,*,#205,.F.);
#207=EDGE_LOOP('',(#191,#192,#200,#206));
#208=FACE_BOUND('',#207,.T.);
#209=ADVANCED_FACE('',(#208),#190,.T.);
#210=CARTESIAN_POINT('',(-185.51770257,8.710006157,437.53));
#211=DIRECTION('',(0.,0.,1.));
#212=DIRECTION('',(1.,0.,0.));
#213=AXIS2_PLACEMENT_3D('',#210,#211,#212);
#214=PLANE('',#213);
#215=ORIENTED_EDGE('',*,*,#64,.T.);
#216=ORIENTED_EDGE('',*,*,#205,.T.);
#217=CARTESIAN_POINT('',(-185.15540514,4.910006157,437.53));
#218=VERTEX_POINT('',#217);
#219=CARTESIAN_POINT('',(-185.15540514,4.910006157,437.53));
#220=DIRECTION('',(-1.,0.,0.));
#221=VECTOR('',#220,0.72459486);
#222=LINE('',#219,#221);
#223=EDGE_CURVE('',#218,#194,#222,.T.);
#224=ORIENTED_EDGE('',*,*,#223,.F.);
#225=CARTESIAN_POINT('',(-185.15540514,6.910006157,437.53));
#226=DIRECTION('',(0.,-1.,0.));
#227=VECTOR('',#226,2.);
#228=LINE('',#225,#227);
#229=EDGE_CURVE('',#59,#218,#228,.T.);
#230=ORIENTED_EDGE('',*,*,#229,.F.);
#231=EDGE_LOOP('',(#215,#216,#224,#230));
#232=FACE_BOUND('',#231,.T.);
#233=ADVANCED_FACE('',(#232),#214,.T.);
#234=CARTESIAN_POINT('',(-185.15540514,8.710006157,435.21));
#235=DIRECTION('',(1.,0.,0.));
#236=DIRECTION('',(0.,0.,-1.));
#237=AXIS2_PLACEMENT_3D('',#234,#235,#236);
#238=PLANE('',#237);
#239=ORIENTED_EDGE('',*,*,#72,.T.);
#240=ORIENTED_EDGE('',*,*,#229,.T.);
#241=CARTESIAN_POINT('',(-185.15540514,4.910006157,432.89));
#242=VERTEX_POINT('',#241);
#243=CARTESIAN_POINT('',(-185.15540514,4.910006157,432.89));
#244=DIRECTION('',(0.,0.,1.));
#245=VECTOR('',#244,4.64);
#246=LINE('',#243,#245);
#247=EDGE_CURVE('',#242,#218,#246,.T.);
#248=ORIENTED_EDGE('',*,*,#247,.F.);
#249=CARTESIAN_POINT('',(-185.15540514,6.910006157,432.89));
#250=DIRECTION('',(0.,-1.,0.));
#251=VECTOR('',#250,2.);
#252=LINE('',#249,#251);
#253=EDGE_CURVE('',#67,#242,#252,.T.);
#254=ORIENTED_EDGE('',*,*,#253,.F.);
#255=EDGE_LOOP('',(#239,#240,#248,#254));
#256=FACE_BOUND('',#255,.T.);
#257=ADVANCED_FACE('',(#256),#238,.T.);
#258=CARTESIAN_POINT('',(-185.521586416,8.710006157,432.89));
#259=DIRECTION('',(0.,0.,-1.));
#260=DIRECTION('',(-1.,0.,0.));
#261=AXIS2_PLACEMENT_3D('',#258,#259,#260);
#262=PLANE('',#261);
#263=ORIENTED_EDGE('',*,*,#80,.T.);
#264=ORIENTED_EDGE('',*,*,#253,.T.);
#265=CARTESIAN_POINT('',(-185.887767692,4.910006157,432.89));
#266=VERTEX_POINT('',#265);
#267=CARTESIAN_POINT('',(-185.887767692,4.910006157,432.89));
#268=DIRECTION('',(1.,0.,-0.));
#269=VECTOR('',#268,0.732362552);
#270=LINE('',#267,#269);
#271=EDGE_CURVE('',#266,#242,#270,.T.);
#272=ORIENTED_EDGE('',*,*,#271,.F.);
#273=CARTESIAN_POINT('',(-185.887767692,6.910006157,432.89));
#274=DIRECTION('',(0.,-1.,0.));
#275=VECTOR('',#274,2.);
#276=LINE('',#273,#275);
#277=EDGE_CURVE('',#75,#266,#276,.T.);
#278=ORIENTED_EDGE('',*,*,#277,.F.);
#279=EDGE_LOOP('',(#263,#264,#272,#278));
#280=FACE_BOUND('',#279,.T.);
#281=ADVANCED_FACE('',(#280),#262,.T.);
#282=CARTESIAN_POINT('',(-185.887767692,8.710006157,433.895));
#283=DIRECTION('',(-1.,0.,0.));
#284=DIRECTION('',(0.,0.,1.));
#285=AXIS2_PLACEMENT_3D('',#282,#283,#284);
#286=PLANE('',#285);
#287=ORIENTED_EDGE('',*,*,#88,.T.);
#288=ORIENTED_EDGE('',*,*,#277,.T.);
#289=CARTESIAN_POINT('',(-185.887767692,4.910006157,434.9));
#290=VERTEX_POINT('',#289);
#291=CARTESIAN_POINT('',(-185.887767692,4.910006157,434.9));
#292=DIRECTION('',(0.,0.,-1.));
#293=VECTOR('',#292,2.01);
#294=LINE('',#291,#293);
#295=EDGE_CURVE('',#290,#266,#294,.T.);
#296=ORIENTED_EDGE('',*,*,#295,.F.);
#297=CARTESIAN_POINT('',(-185.887767692,6.910006157,434.9));
#298=DIRECTION('',(0.,-1.,0.));
#299=VECTOR('',#298,2.);
#300=LINE('',#297,#299);
#301=EDGE_CURVE('',#83,#290,#300,.T.);
#302=ORIENTED_EDGE('',*,*,#301,.F.);
#303=EDGE_LOOP('',(#287,#288,#296,#302));
#304=FACE_BOUND('',#303,.T.);
#305=ADVANCED_FACE('',(#304),#286,.T.);
#306=CARTESIAN_POINT('',(-189.574863343,8.710006157,434.9));
#307=DIRECTION('',(0.,0.,-1.));
#308=DIRECTION('',(-1.,0.,0.));
#309=AXIS2_PLACEMENT_3D('',#306,#307,#308);
#310=PLANE('',#309);
#311=ORIENTED_EDGE('',*,*,#96,.T.);
#312=ORIENTED_EDGE('',*,*,#301,.T.);
#313=CARTESIAN_POINT('',(-193.261958995,4.910006157,434.9));
#314=VERTEX_POINT('',#313);
#315=CARTESIAN_POINT('',(-193.261958995,4.910006157,434.9));
#316=DIRECTION('',(1.,0.,-0.));
#317=VECTOR('',#316,7.374191303);
#318=LINE('',#315,#317);
#319=EDGE_CURVE('',#314,#290,#318,.T.);
#320=ORIENTED_EDGE('',*,*,#319,.F.);
#321=CARTESIAN_POINT('',(-193.261958995,6.910006157,434.9));
#322=DIRECTION('',(0.,-1.,0.));
#323=VECTOR('',#322,2.);
#324=LINE('',#321,#323);
#325=EDGE_CURVE('',#91,#314,#324,.T.);
#326=ORIENTED_EDGE('',*,*,#325,.F.);
#327=EDGE_LOOP('',(#311,#312,#320,#326));
#328=FACE_BOUND('',#327,.T.);
#329=ADVANCED_FACE('',(#328),#310,.T.);
#330=CARTESIAN_POINT('',(-193.261958995,8.710006157,433.895));
#331=DIRECTION('',(1.,0.,0.));
#332=DIRECTION('',(0.,0.,-1.));
#333=AXIS2_PLACEMENT_3D('',#330,#331,#332);
#334=PLANE('',#333);
#335=ORIENTED_EDGE('',*,*,#104,.T.);
#336=ORIENTED_EDGE('',*,*,#325,.T.);
#337=CARTESIAN_POINT('',(-193.261958995,4.910006157,432.89));
#338=VERTEX_POINT('',#337);
#339=CARTESIAN_POINT('',(-193.261958995,4.910006157,432.89));
#340=DIRECTION('',(0.,0.,1.));
#341=VECTOR('',#340,2.01);
#342=LINE('',#339,#341);
#343=EDGE_CURVE('',#338,#314,#342,.T.);
#344=ORIENTED_EDGE('',*,*,#343,.F.);
#345=CARTESIAN_POINT('',(-193.261958995,6.910006157,432.89));
#346=DIRECTION('',(0.,-1.,0.));
#347=VECTOR('',#346,2.);
#348=LINE('',#345,#347);
#349=EDGE_CURVE('',#99,#338,#348,.T.);
#350=ORIENTED_EDGE('',*,*,#349,.F.);
#351=EDGE_LOOP('',(#335,#336,#344,#350));
#352=FACE_BOUND('',#351,.T.);
#353=ADVANCED_FACE('',(#352),#334,.T.);
#354=CARTESIAN_POINT('',(-193.623812911,8.710006157,432.89));
#355=DIRECTION('',(0.,0.,-1.));
#356=DIRECTION('',(-1.,0.,0.));
#357=AXIS2_PLACEMENT_3D('',#354,#355,#356);
#358=PLANE('',#357);
#359=ORIENTED_EDGE('',*,*,#112,.T.);
#360=ORIENTED_EDGE('',*,*,#349,.T.);
#361=CARTESIAN_POINT('',(-193.985666828,4.910006157,432.89));
#362=VERTEX_POINT('',#361);
#363=CARTESIAN_POINT('',(-193.985666828,4.910006157,432.89));
#364=DIRECTION('',(1.,0.,-0.));
#365=VECTOR('',#364,0.723707833);
#366=LINE('',#363,#365);
#367=EDGE_CURVE('',#362,#338,#366,.T.);
#368=ORIENTED_EDGE('',*,*,#367,.F.);
#369=CARTESIAN_POINT('',(-193.985666828,6.910006157,432.89));
#370=DIRECTION('',(0.,-1.,0.));
#371=VECTOR('',#370,2.);
#372=LINE('',#369,#371);
#373=EDGE_CURVE('',#107,#362,#372,.T.);
#374=ORIENTED_EDGE('',*,*,#373,.F.);
#375=EDGE_LOOP('',(#359,#360,#368,#374));
#376=FACE_BOUND('',#375,.T.);
#377=ADVANCED_FACE('',(#376),#358,.T.);
#378=CARTESIAN_POINT('',(-193.985666828,8.710006157,435.21));
#379=DIRECTION('',(1.,0.,0.));
#380=DIRECTION('',(0.,0.,-1.));
#381=AXIS2_PLACEMENT_3D('',#378,#379,#380);
#382=PLANE('',#381);
#383=ORIENTED_EDGE('',*,*,#373,.T.);
#384=CARTESIAN_POINT('',(-193.985666828,4.910006157,437.53));
#385=VERTEX_POINT('',#384);
#386=CARTESIAN_POINT('',(-193.985666828,4.910006157,432.89));
#387=DIRECTION('',(0.,0.,1.));
#388=VECTOR('',#387,4.64);
#389=LINE('',#386,#388);
#390=EDGE_CURVE('',#362,#385,#389,.T.);
#391=ORIENTED_EDGE('',*,*,#390,.T.);
#392=CARTESIAN_POINT('',(-193.985666828,6.910006157,437.53));
#393=DIRECTION('',(0.,-1.,0.));
#394=VECTOR('',#393,2.);
#395=LINE('',#392,#394);
#396=EDGE_CURVE('',#115,#385,#395,.T.);
#397=ORIENTED_EDGE('',*,*,#396,.F.);
#398=ORIENTED_EDGE('',*,*,#120,.F.);
#399=EDGE_LOOP('',(#383,#391,#397,#398));
#400=FACE_BOUND('',#399,.T.);
#401=ADVANCED_FACE('',(#400),#382,.F.);
#402=CARTESIAN_POINT('',(-193.623605408,8.710006157,437.53));
#403=DIRECTION('',(0.,0.,1.));
#404=DIRECTION('',(1.,0.,0.));
#405=AXIS2_PLACEMENT_3D('',#402,#403,#404);
#406=PLANE('',#405);
#407=ORIENTED_EDGE('',*,*,#126,.T.);
#408=ORIENTED_EDGE('',*,*,#396,.T.);
#409=CARTESIAN_POINT('',(-193.261543989,4.910006157,437.53));
#410=DIRECTION('',(-1.,0.,0.));
#411=VECTOR('',#410,0.724122839);
#412=LINE('',#409,#411);
#413=EDGE_CURVE('',#138,#385,#412,.T.);
#414=ORIENTED_EDGE('',*,*,#413,.F.);
#415=ORIENTED_EDGE('',*,*,#143,.F.);
#416=EDGE_LOOP('',(#407,#408,#414,#415));
#417=FACE_BOUND('',#416,.T.);
#418=ADVANCED_FACE('',(#417),#406,.T.);
#419=CARTESIAN_POINT('',(0.,4.910006157,0.));
#420=DIRECTION('',(0.,-1.,0.));
#421=DIRECTION('',(0.,0.,-1.));
#422=AXIS2_PLACEMENT_3D('',#419,#420,#421);
#423=PLANE('',#422);
#424=ORIENTED_EDGE('',*,*,#175,.T.);
#425=ORIENTED_EDGE('',*,*,#151,.T.);
#426=ORIENTED_EDGE('',*,*,#413,.T.);
#427=ORIENTED_EDGE('',*,*,#390,.F.);
#428=ORIENTED_EDGE('',*,*,#367,.T.);
#429=ORIENTED_EDGE('',*,*,#343,.T.);
#430=ORIENTED_EDGE('',*,*,#319,.T.);
#431=ORIENTED_EDGE('',*,*,#295,.T.);
#432=ORIENTED_EDGE('',*,*,#271,.T.);
#433=ORIENTED_EDGE('',*,*,#247,.T.);
#434=ORIENTED_EDGE('',*,*,#223,.T.);
#435=ORIENTED_EDGE('',*,*,#199,.T.);
#436=EDGE_LOOP('',(#424,#425,#426,#427,#428,#429,#430,#431,#432,#433,#434,#435));
#437=FACE_BOUND('',#436,.T.);
#438=ADVANCED_FACE('',(#437),#423,.T.);
#439=CLOSED_SHELL('',(#130,#161,#185,#209,#233,#257,#281,#305,#329,#353,#377,#401,#418,#438));
#440=MANIFOLD_SOLID_BREP('Body 02',#439);
#441=COLOUR_RGB('',0.494117647,0.494117647,0.525490224);
#442=FILL_AREA_STYLE_COLOUR('',#441);
#443=FILL_AREA_STYLE('',(#442));
#444=SURFACE_STYLE_FILL_AREA(#443);
#445=SURFACE_SIDE_STYLE('',(#444));
#446=SURFACE_STYLE_USAGE(.BOTH.,#445);
#447=PRESENTATION_STYLE_ASSIGNMENT((#446));
#26=STYLED_ITEM('',(#447),#440);
#16=SHAPE_REPRESENTATION('Body 02',(#15),#10);
#17=ADVANCED_BREP_SHAPE_REPRESENTATION('Body 02',(#440),#10);
#455=SHAPE_REPRESENTATION_RELATIONSHIP('','',#16,#17);
#456=CARTESIAN_POINT('',(0.,0.,0.));
#457=DIRECTION('',(0.,0.,1.));
#458=DIRECTION('',(1.,0.,0.));
#459=AXIS2_PLACEMENT_3D('',#456,#457,#458);
#461=MAPPED_ITEM('',#460,#459);
#460=REPRESENTATION_MAP(#459,#16);
#462=APPLICATION_CONTEXT('Managed model based 3d engineering');
#463=APPLICATION_PROTOCOL_DEFINITION('international standard','ap242_managed_model_based_3d_engineering',2013,#462);
#464=PRODUCT_CONTEXT('',#462,'mechanical');
#465=PRODUCT_DEFINITION_CONTEXT('part definition',#462,'design');
#24=PRODUCT('Body 02','Body 02','',(#464));
#466=PRODUCT_RELATED_PRODUCT_CATEGORY('part','',(#24));
#467=PRODUCT_DEFINITION_FORMATION_WITH_SPECIFIED_SOURCE('','',#24,.NOT_KNOWN.);
#25=PRODUCT_DEFINITION('design','',#467,#465);
#23=PRODUCT_DEFINITION_SHAPE('','',#25);
#468=SHAPE_DEFINITION_REPRESENTATION(#23,#16);
#11=DRAUGHTING_MODEL('',(#461),#10);
#469=DESCRIPTIVE_REPRESENTATION_ITEM('KEY','C:\\Users\\cullm\\AppData\\Local\\Packages\\Shapr3D.Shapr3D_dvv5p1vgwv6mp\\TempState\\9600e43b-5f56-4fc6-8da3-722575dd8f10.tmp');
#470=PROPERTY_DEFINITION('KEY','',#25);
#471=REPRESENTATION('',(#469),#10);
#472=PROPERTY_DEFINITION_REPRESENTATION(#470,#471);
#473=GENERAL_PROPERTY('','KEY','');
#474=GENERAL_PROPERTY_ASSOCIATION('','',#473,#470);
#1=MECHANICAL_DESIGN_GEOMETRIC_PRESENTATION_REPRESENTATION('',(#26),#10);
ENDSEC;
END-ISO-10303-21;
