ISO-10303-21;
HEADER;

/* File generated by Shapr3D Version 5.710.7459.0 */

FILE_DESCRIPTION(('HOOPS Exchange Step'),'2;1');

FILE_NAME('C:\\Users\\cullm\\AppData\\Local\\Packages\\Shapr3D.Shapr3D_dvv5p1vgwv6mp\\TempState\\export\\temp_export',
'2024-09-14T06:15:31-04:00',
('cullm'),
('Shapr3D Limited'),
'HOOPS Exchange 2024.2',
'Shapr3D',
'Authorized');

FILE_SCHEMA( ('AP242_MANAGED_MODEL_BASED_3D_ENGINEERING_MIM_LF {1 0 10303 442 1 1 4 }') );

ENDSEC;

DATA;
#3=(NAMED_UNIT(*)PLANE_ANGLE_UNIT()SI_UNIT($,.RADIAN.));
#4=PLANE_ANGLE_MEASURE_WITH_UNIT(PLANE_ANGLE_MEASURE(0.0174532925),#3);
#5=(CONVERSION_BASED_UNIT('DEGREE',#4)NAMED_UNIT(#6)PLANE_ANGLE_UNIT());
#6=DIMENSIONAL_EXPONENTS(0.,0.,0.,0.,0.,0.,0.);
#7=(NAMED_UNIT(*)SI_UNIT($,.STERADIAN.)SOLID_ANGLE_UNIT());
#8=(LENGTH_UNIT()NAMED_UNIT(*)SI_UNIT(.MILLI.,.METRE.));
#9=UNCERTAINTY_MEASURE_WITH_UNIT(LENGTH_MEASURE(1.000000E-05),#8,'DISTANCE_ACCURACY_VALUE','Maximum Tolerance applied to model');
#10=(GEOMETRIC_REPRESENTATION_CONTEXT(3)GLOBAL_UNCERTAINTY_ASSIGNED_CONTEXT((#9))GLOBAL_UNIT_ASSIGNED_CONTEXT((#8,#5,#7))REPRESENTATION_CONTEXT('','Body 02'));
#12=CARTESIAN_POINT('',(0.,0.,0.));
#13=DIRECTION('',(0.,0.,1.));
#14=DIRECTION('',(1.,0.,0.));
#15=AXIS2_PLACEMENT_3D('',#12,#13,#14);
#27=CARTESIAN_POINT('',(0.,6.910006157,0.));
#28=DIRECTION('',(0.,-1.,0.));
#29=DIRECTION('',(0.,0.,-1.));
#30=AXIS2_PLACEMENT_3D('',#27,#28,#29);
#31=PLANE('',#30);
#32=CARTESIAN_POINT('',(-226.53,6.910006157,433.73));
#33=VERTEX_POINT('',#32);
#34=CARTESIAN_POINT('',(-232.94,6.910006157,433.73));
#35=VERTEX_POINT('',#34);
#36=CARTESIAN_POINT('',(-226.53,6.910006157,433.73));
#37=DIRECTION('',(-1.,0.,0.));
#38=VECTOR('',#37,6.41);
#39=LINE('',#36,#38);
#40=EDGE_CURVE('',#33,#35,#39,.T.);
#41=ORIENTED_EDGE('',*,*,#40,.F.);
#42=CARTESIAN_POINT('',(-226.08,6.910006157,434.18));
#43=VERTEX_POINT('',#42);
#44=CARTESIAN_POINT('',(-226.53,6.910006157,434.18));
#45=DIRECTION('',(0.,-1.,0.));
#46=DIRECTION('',(0.,0.,-1.));
#47=AXIS2_PLACEMENT_3D('',#44,#45,#46);
#48=CIRCLE('',#47,0.45);
#49=EDGE_CURVE('',#33,#43,#48,.T.);
#50=ORIENTED_EDGE('',*,*,#49,.T.);
#51=CARTESIAN_POINT('',(-226.08,6.910006157,436.26));
#52=VERTEX_POINT('',#51);
#53=CARTESIAN_POINT('',(-226.08,6.910006157,436.26));
#54=DIRECTION('',(0.,0.,-1.));
#55=VECTOR('',#54,2.08);
#56=LINE('',#53,#55);
#57=EDGE_CURVE('',#52,#43,#56,.T.);
#58=ORIENTED_EDGE('',*,*,#57,.F.);
#59=CARTESIAN_POINT('',(-226.53,6.910006157,436.71));
#60=VERTEX_POINT('',#59);
#61=CARTESIAN_POINT('',(-226.53,6.910006157,436.26));
#62=DIRECTION('',(0.,-1.,0.));
#63=DIRECTION('',(0.,0.,-1.));
#64=AXIS2_PLACEMENT_3D('',#61,#62,#63);
#65=CIRCLE('',#64,0.45);
#66=EDGE_CURVE('',#52,#60,#65,.T.);
#67=ORIENTED_EDGE('',*,*,#66,.T.);
#68=CARTESIAN_POINT('',(-232.94,6.910006157,436.71));
#69=VERTEX_POINT('',#68);
#70=CARTESIAN_POINT('',(-232.94,6.910006157,436.71));
#71=DIRECTION('',(1.,0.,-0.));
#72=VECTOR('',#71,6.41);
#73=LINE('',#70,#72);
#74=EDGE_CURVE('',#69,#60,#73,.T.);
#75=ORIENTED_EDGE('',*,*,#74,.F.);
#76=CARTESIAN_POINT('',(-233.39,6.910006157,436.26));
#77=VERTEX_POINT('',#76);
#78=CARTESIAN_POINT('',(-232.94,6.910006157,436.26));
#79=DIRECTION('',(0.,-1.,0.));
#80=DIRECTION('',(0.,0.,-1.));
#81=AXIS2_PLACEMENT_3D('',#78,#79,#80);
#82=CIRCLE('',#81,0.45);
#83=EDGE_CURVE('',#69,#77,#82,.T.);
#84=ORIENTED_EDGE('',*,*,#83,.T.);
#85=CARTESIAN_POINT('',(-233.39,6.910006157,434.18));
#86=VERTEX_POINT('',#85);
#87=CARTESIAN_POINT('',(-233.39,6.910006157,434.18));
#88=DIRECTION('',(0.,0.,1.));
#89=VECTOR('',#88,2.08);
#90=LINE('',#87,#89);
#91=EDGE_CURVE('',#86,#77,#90,.T.);
#92=ORIENTED_EDGE('',*,*,#91,.F.);
#93=CARTESIAN_POINT('',(-232.94,6.910006157,434.18));
#94=DIRECTION('',(0.,-1.,0.));
#95=DIRECTION('',(0.,0.,-1.));
#96=AXIS2_PLACEMENT_3D('',#93,#94,#95);
#97=CIRCLE('',#96,0.45);
#98=EDGE_CURVE('',#86,#35,#97,.T.);
#99=ORIENTED_EDGE('',*,*,#98,.T.);
#100=EDGE_LOOP('',(#41,#50,#58,#67,#75,#84,#92,#99));
#101=FACE_BOUND('',#100,.T.);
#102=CARTESIAN_POINT('',(-233.39,6.910006157,437.53));
#103=VERTEX_POINT('',#102);
#104=CARTESIAN_POINT('',(-234.14,6.910006157,436.78));
#105=VERTEX_POINT('',#104);
#106=CARTESIAN_POINT('',(-233.39,6.910006157,436.78));
#107=DIRECTION('',(0.,-1.,0.));
#108=DIRECTION('',(0.,0.,-1.));
#109=AXIS2_PLACEMENT_3D('',#106,#107,#108);
#110=CIRCLE('',#109,0.75);
#111=EDGE_CURVE('',#103,#105,#110,.T.);
#112=ORIENTED_EDGE('',*,*,#111,.F.);
#113=CARTESIAN_POINT('',(-226.09,6.910006157,437.53));
#114=VERTEX_POINT('',#113);
#115=CARTESIAN_POINT('',(-226.09,6.910006157,437.53));
#116=DIRECTION('',(-1.,0.,0.));
#117=VECTOR('',#116,7.3);
#118=LINE('',#115,#117);
#119=EDGE_CURVE('',#114,#103,#118,.T.);
#120=ORIENTED_EDGE('',*,*,#119,.F.);
#121=CARTESIAN_POINT('',(-225.34,6.910006157,436.78));
#122=VERTEX_POINT('',#121);
#123=CARTESIAN_POINT('',(-226.09,6.910006157,436.78));
#124=DIRECTION('',(0.,-1.,0.));
#125=DIRECTION('',(0.,0.,-1.));
#126=AXIS2_PLACEMENT_3D('',#123,#124,#125);
#127=CIRCLE('',#126,0.75);
#128=EDGE_CURVE('',#122,#114,#127,.T.);
#129=ORIENTED_EDGE('',*,*,#128,.F.);
#130=CARTESIAN_POINT('',(-225.34,6.910006157,433.64));
#131=VERTEX_POINT('',#130);
#132=CARTESIAN_POINT('',(-225.34,6.910006157,433.64));
#133=DIRECTION('',(0.,0.,1.));
#134=VECTOR('',#133,3.14);
#135=LINE('',#132,#134);
#136=EDGE_CURVE('',#131,#122,#135,.T.);
#137=ORIENTED_EDGE('',*,*,#136,.F.);
#138=CARTESIAN_POINT('',(-226.09,6.910006157,432.89));
#139=VERTEX_POINT('',#138);
#140=CARTESIAN_POINT('',(-226.09,6.910006157,433.64));
#141=DIRECTION('',(0.,-1.,0.));
#142=DIRECTION('',(0.,0.,-1.));
#143=AXIS2_PLACEMENT_3D('',#140,#141,#142);
#144=CIRCLE('',#143,0.75);
#145=EDGE_CURVE('',#139,#131,#144,.T.);
#146=ORIENTED_EDGE('',*,*,#145,.F.);
#147=CARTESIAN_POINT('',(-233.39,6.910006157,432.89));
#148=VERTEX_POINT('',#147);
#149=CARTESIAN_POINT('',(-233.39,6.910006157,432.89));
#150=DIRECTION('',(1.,0.,-0.));
#151=VECTOR('',#150,7.3);
#152=LINE('',#149,#151);
#153=EDGE_CURVE('',#148,#139,#152,.T.);
#154=ORIENTED_EDGE('',*,*,#153,.F.);
#155=CARTESIAN_POINT('',(-234.14,6.910006157,433.64));
#156=VERTEX_POINT('',#155);
#157=CARTESIAN_POINT('',(-233.39,6.910006157,433.64));
#158=DIRECTION('',(0.,-1.,0.));
#159=DIRECTION('',(0.,0.,-1.));
#160=AXIS2_PLACEMENT_3D('',#157,#158,#159);
#161=CIRCLE('',#160,0.75);
#162=EDGE_CURVE('',#156,#148,#161,.T.);
#163=ORIENTED_EDGE('',*,*,#162,.F.);
#164=CARTESIAN_POINT('',(-234.14,6.910006157,436.78));
#165=DIRECTION('',(0.,0.,-1.));
#166=VECTOR('',#165,3.14);
#167=LINE('',#164,#166);
#168=EDGE_CURVE('',#105,#156,#167,.T.);
#169=ORIENTED_EDGE('',*,*,#168,.F.);
#170=EDGE_LOOP('',(#112,#120,#129,#137,#146,#154,#163,#169));
#171=FACE_BOUND('',#170,.T.);
#172=ADVANCED_FACE('',(#101,#171),#31,.F.);
#173=CARTESIAN_POINT('',(0.,4.910006157,0.));
#174=DIRECTION('',(0.,-1.,0.));
#175=DIRECTION('',(0.,0.,-1.));
#176=AXIS2_PLACEMENT_3D('',#173,#174,#175);
#177=PLANE('',#176);
#178=CARTESIAN_POINT('',(-226.53,4.910006157,433.73));
#179=VERTEX_POINT('',#178);
#180=CARTESIAN_POINT('',(-226.08,4.910006157,434.18));
#181=VERTEX_POINT('',#180);
#182=CARTESIAN_POINT('',(-226.53,4.910006157,434.18));
#183=DIRECTION('',(0.,-1.,0.));
#184=DIRECTION('',(0.,0.,-1.));
#185=AXIS2_PLACEMENT_3D('',#182,#183,#184);
#186=CIRCLE('',#185,0.45);
#187=EDGE_CURVE('',#179,#181,#186,.T.);
#188=ORIENTED_EDGE('',*,*,#187,.F.);
#189=CARTESIAN_POINT('',(-232.94,4.910006157,433.73));
#190=VERTEX_POINT('',#189);
#191=CARTESIAN_POINT('',(-226.53,4.910006157,433.73));
#192=DIRECTION('',(-1.,0.,0.));
#193=VECTOR('',#192,6.41);
#194=LINE('',#191,#193);
#195=EDGE_CURVE('',#179,#190,#194,.T.);
#196=ORIENTED_EDGE('',*,*,#195,.T.);
#197=CARTESIAN_POINT('',(-233.39,4.910006157,434.18));
#198=VERTEX_POINT('',#197);
#199=CARTESIAN_POINT('',(-232.94,4.910006157,434.18));
#200=DIRECTION('',(0.,-1.,0.));
#201=DIRECTION('',(0.,0.,-1.));
#202=AXIS2_PLACEMENT_3D('',#199,#200,#201);
#203=CIRCLE('',#202,0.45);
#204=EDGE_CURVE('',#198,#190,#203,.T.);
#205=ORIENTED_EDGE('',*,*,#204,.F.);
#206=CARTESIAN_POINT('',(-233.39,4.910006157,436.26));
#207=VERTEX_POINT('',#206);
#208=CARTESIAN_POINT('',(-233.39,4.910006157,434.18));
#209=DIRECTION('',(0.,0.,1.));
#210=VECTOR('',#209,2.08);
#211=LINE('',#208,#210);
#212=EDGE_CURVE('',#198,#207,#211,.T.);
#213=ORIENTED_EDGE('',*,*,#212,.T.);
#214=CARTESIAN_POINT('',(-232.94,4.910006157,436.71));
#215=VERTEX_POINT('',#214);
#216=CARTESIAN_POINT('',(-232.94,4.910006157,436.26));
#217=DIRECTION('',(0.,-1.,0.));
#218=DIRECTION('',(0.,0.,-1.));
#219=AXIS2_PLACEMENT_3D('',#216,#217,#218);
#220=CIRCLE('',#219,0.45);
#221=EDGE_CURVE('',#215,#207,#220,.T.);
#222=ORIENTED_EDGE('',*,*,#221,.F.);
#223=CARTESIAN_POINT('',(-226.53,4.910006157,436.71));
#224=VERTEX_POINT('',#223);
#225=CARTESIAN_POINT('',(-232.94,4.910006157,436.71));
#226=DIRECTION('',(1.,0.,-0.));
#227=VECTOR('',#226,6.41);
#228=LINE('',#225,#227);
#229=EDGE_CURVE('',#215,#224,#228,.T.);
#230=ORIENTED_EDGE('',*,*,#229,.T.);
#231=CARTESIAN_POINT('',(-226.08,4.910006157,436.26));
#232=VERTEX_POINT('',#231);
#233=CARTESIAN_POINT('',(-226.53,4.910006157,436.26));
#234=DIRECTION('',(0.,-1.,0.));
#235=DIRECTION('',(0.,0.,-1.));
#236=AXIS2_PLACEMENT_3D('',#233,#234,#235);
#237=CIRCLE('',#236,0.45);
#238=EDGE_CURVE('',#232,#224,#237,.T.);
#239=ORIENTED_EDGE('',*,*,#238,.F.);
#240=CARTESIAN_POINT('',(-226.08,4.910006157,436.26));
#241=DIRECTION('',(0.,0.,-1.));
#242=VECTOR('',#241,2.08);
#243=LINE('',#240,#242);
#244=EDGE_CURVE('',#232,#181,#243,.T.);
#245=ORIENTED_EDGE('',*,*,#244,.T.);
#246=EDGE_LOOP('',(#188,#196,#205,#213,#222,#230,#239,#245));
#247=FACE_BOUND('',#246,.T.);
#248=CARTESIAN_POINT('',(-226.09,4.910006157,437.53));
#249=VERTEX_POINT('',#248);
#250=CARTESIAN_POINT('',(-233.39,4.910006157,437.53));
#251=VERTEX_POINT('',#250);
#252=CARTESIAN_POINT('',(-226.09,4.910006157,437.53));
#253=DIRECTION('',(-1.,0.,0.));
#254=VECTOR('',#253,7.3);
#255=LINE('',#252,#254);
#256=EDGE_CURVE('',#249,#251,#255,.T.);
#257=ORIENTED_EDGE('',*,*,#256,.T.);
#258=CARTESIAN_POINT('',(-234.14,4.910006157,436.78));
#259=VERTEX_POINT('',#258);
#260=CARTESIAN_POINT('',(-233.39,4.910006157,436.78));
#261=DIRECTION('',(0.,-1.,0.));
#262=DIRECTION('',(0.,0.,-1.));
#263=AXIS2_PLACEMENT_3D('',#260,#261,#262);
#264=CIRCLE('',#263,0.75);
#265=EDGE_CURVE('',#251,#259,#264,.T.);
#266=ORIENTED_EDGE('',*,*,#265,.T.);
#267=CARTESIAN_POINT('',(-234.14,4.910006157,433.64));
#268=VERTEX_POINT('',#267);
#269=CARTESIAN_POINT('',(-234.14,4.910006157,436.78));
#270=DIRECTION('',(0.,0.,-1.));
#271=VECTOR('',#270,3.14);
#272=LINE('',#269,#271);
#273=EDGE_CURVE('',#259,#268,#272,.T.);
#274=ORIENTED_EDGE('',*,*,#273,.T.);
#275=CARTESIAN_POINT('',(-233.39,4.910006157,432.89));
#276=VERTEX_POINT('',#275);
#277=CARTESIAN_POINT('',(-233.39,4.910006157,433.64));
#278=DIRECTION('',(0.,-1.,0.));
#279=DIRECTION('',(0.,0.,-1.));
#280=AXIS2_PLACEMENT_3D('',#277,#278,#279);
#281=CIRCLE('',#280,0.75);
#282=EDGE_CURVE('',#268,#276,#281,.T.);
#283=ORIENTED_EDGE('',*,*,#282,.T.);
#284=CARTESIAN_POINT('',(-226.09,4.910006157,432.89));
#285=VERTEX_POINT('',#284);
#286=CARTESIAN_POINT('',(-233.39,4.910006157,432.89));
#287=DIRECTION('',(1.,0.,-0.));
#288=VECTOR('',#287,7.3);
#289=LINE('',#286,#288);
#290=EDGE_CURVE('',#276,#285,#289,.T.);
#291=ORIENTED_EDGE('',*,*,#290,.T.);
#292=CARTESIAN_POINT('',(-225.34,4.910006157,433.64));
#293=VERTEX_POINT('',#292);
#294=CARTESIAN_POINT('',(-226.09,4.910006157,433.64));
#295=DIRECTION('',(0.,-1.,0.));
#296=DIRECTION('',(0.,0.,-1.));
#297=AXIS2_PLACEMENT_3D('',#294,#295,#296);
#298=CIRCLE('',#297,0.75);
#299=EDGE_CURVE('',#285,#293,#298,.T.);
#300=ORIENTED_EDGE('',*,*,#299,.T.);
#301=CARTESIAN_POINT('',(-225.34,4.910006157,436.78));
#302=VERTEX_POINT('',#301);
#303=CARTESIAN_POINT('',(-225.34,4.910006157,433.64));
#304=DIRECTION('',(0.,0.,1.));
#305=VECTOR('',#304,3.14);
#306=LINE('',#303,#305);
#307=EDGE_CURVE('',#293,#302,#306,.T.);
#308=ORIENTED_EDGE('',*,*,#307,.T.);
#309=CARTESIAN_POINT('',(-226.09,4.910006157,436.78));
#310=DIRECTION('',(0.,-1.,0.));
#311=DIRECTION('',(0.,0.,-1.));
#312=AXIS2_PLACEMENT_3D('',#309,#310,#311);
#313=CIRCLE('',#312,0.75);
#314=EDGE_CURVE('',#302,#249,#313,.T.);
#315=ORIENTED_EDGE('',*,*,#314,.T.);
#316=EDGE_LOOP('',(#257,#266,#274,#283,#291,#300,#308,#315));
#317=FACE_BOUND('',#316,.T.);
#318=ADVANCED_FACE('',(#247,#317),#177,.T.);
#319=CARTESIAN_POINT('',(-229.735,7.510006157,433.73));
#320=DIRECTION('',(0.,0.,1.));
#321=DIRECTION('',(1.,0.,0.));
#322=AXIS2_PLACEMENT_3D('',#319,#320,#321);
#323=PLANE('',#322);
#324=ORIENTED_EDGE('',*,*,#40,.T.);
#325=CARTESIAN_POINT('',(-232.94,6.910006157,433.73));
#326=DIRECTION('',(0.,-1.,0.));
#327=VECTOR('',#326,2.);
#328=LINE('',#325,#327);
#329=EDGE_CURVE('',#35,#190,#328,.T.);
#330=ORIENTED_EDGE('',*,*,#329,.T.);
#331=ORIENTED_EDGE('',*,*,#195,.F.);
#332=CARTESIAN_POINT('',(-226.53,6.910006157,433.73));
#333=DIRECTION('',(0.,-1.,0.));
#334=VECTOR('',#333,2.);
#335=LINE('',#332,#334);
#336=EDGE_CURVE('',#33,#179,#335,.T.);
#337=ORIENTED_EDGE('',*,*,#336,.F.);
#338=EDGE_LOOP('',(#324,#330,#331,#337));
#339=FACE_BOUND('',#338,.T.);
#340=ADVANCED_FACE('',(#339),#323,.T.);
#341=CARTESIAN_POINT('',(-226.53,7.510006157,434.18));
#342=DIRECTION('',(0.,-1.,0.));
#343=DIRECTION('',(0.,0.,-1.));
#344=AXIS2_PLACEMENT_3D('',#341,#342,#343);
#345=CYLINDRICAL_SURFACE('',#344,0.45);
#346=ORIENTED_EDGE('',*,*,#336,.T.);
#347=ORIENTED_EDGE('',*,*,#187,.T.);
#348=CARTESIAN_POINT('',(-226.08,6.910006157,434.18));
#349=DIRECTION('',(0.,-1.,0.));
#350=VECTOR('',#349,2.);
#351=LINE('',#348,#350);
#352=EDGE_CURVE('',#43,#181,#351,.T.);
#353=ORIENTED_EDGE('',*,*,#352,.F.);
#354=ORIENTED_EDGE('',*,*,#49,.F.);
#355=EDGE_LOOP('',(#346,#347,#353,#354));
#356=FACE_BOUND('',#355,.T.);
#357=ADVANCED_FACE('',(#356),#345,.F.);
#358=CARTESIAN_POINT('',(-226.08,7.510006157,435.22));
#359=DIRECTION('',(-1.,0.,0.));
#360=DIRECTION('',(0.,0.,1.));
#361=AXIS2_PLACEMENT_3D('',#358,#359,#360);
#362=PLANE('',#361);
#363=ORIENTED_EDGE('',*,*,#57,.T.);
#364=ORIENTED_EDGE('',*,*,#352,.T.);
#365=ORIENTED_EDGE('',*,*,#244,.F.);
#366=CARTESIAN_POINT('',(-226.08,6.910006157,436.26));
#367=DIRECTION('',(0.,-1.,0.));
#368=VECTOR('',#367,2.);
#369=LINE('',#366,#368);
#370=EDGE_CURVE('',#52,#232,#369,.T.);
#371=ORIENTED_EDGE('',*,*,#370,.F.);
#372=EDGE_LOOP('',(#363,#364,#365,#371));
#373=FACE_BOUND('',#372,.T.);
#374=ADVANCED_FACE('',(#373),#362,.T.);
#375=CARTESIAN_POINT('',(-226.53,7.510006157,436.26));
#376=DIRECTION('',(0.,-1.,0.));
#377=DIRECTION('',(0.,0.,-1.));
#378=AXIS2_PLACEMENT_3D('',#375,#376,#377);
#379=CYLINDRICAL_SURFACE('',#378,0.45);
#380=ORIENTED_EDGE('',*,*,#370,.T.);
#381=ORIENTED_EDGE('',*,*,#238,.T.);
#382=CARTESIAN_POINT('',(-226.53,6.910006157,436.71));
#383=DIRECTION('',(0.,-1.,0.));
#384=VECTOR('',#383,2.);
#385=LINE('',#382,#384);
#386=EDGE_CURVE('',#60,#224,#385,.T.);
#387=ORIENTED_EDGE('',*,*,#386,.F.);
#388=ORIENTED_EDGE('',*,*,#66,.F.);
#389=EDGE_LOOP('',(#380,#381,#387,#388));
#390=FACE_BOUND('',#389,.T.);
#391=ADVANCED_FACE('',(#390),#379,.F.);
#392=CARTESIAN_POINT('',(-229.735,7.510006157,436.71));
#393=DIRECTION('',(0.,0.,-1.));
#394=DIRECTION('',(-1.,0.,0.));
#395=AXIS2_PLACEMENT_3D('',#392,#393,#394);
#396=PLANE('',#395);
#397=ORIENTED_EDGE('',*,*,#74,.T.);
#398=ORIENTED_EDGE('',*,*,#386,.T.);
#399=ORIENTED_EDGE('',*,*,#229,.F.);
#400=CARTESIAN_POINT('',(-232.94,6.910006157,436.71));
#401=DIRECTION('',(0.,-1.,0.));
#402=VECTOR('',#401,2.);
#403=LINE('',#400,#402);
#404=EDGE_CURVE('',#69,#215,#403,.T.);
#405=ORIENTED_EDGE('',*,*,#404,.F.);
#406=EDGE_LOOP('',(#397,#398,#399,#405));
#407=FACE_BOUND('',#406,.T.);
#408=ADVANCED_FACE('',(#407),#396,.T.);
#409=CARTESIAN_POINT('',(-232.94,7.510006157,436.26));
#410=DIRECTION('',(0.,-1.,0.));
#411=DIRECTION('',(0.,0.,-1.));
#412=AXIS2_PLACEMENT_3D('',#409,#410,#411);
#413=CYLINDRICAL_SURFACE('',#412,0.45);
#414=ORIENTED_EDGE('',*,*,#404,.T.);
#415=ORIENTED_EDGE('',*,*,#221,.T.);
#416=CARTESIAN_POINT('',(-233.39,6.910006157,436.26));
#417=DIRECTION('',(0.,-1.,0.));
#418=VECTOR('',#417,2.);
#419=LINE('',#416,#418);
#420=EDGE_CURVE('',#77,#207,#419,.T.);
#421=ORIENTED_EDGE('',*,*,#420,.F.);
#422=ORIENTED_EDGE('',*,*,#83,.F.);
#423=EDGE_LOOP('',(#414,#415,#421,#422));
#424=FACE_BOUND('',#423,.T.);
#425=ADVANCED_FACE('',(#424),#413,.F.);
#426=CARTESIAN_POINT('',(-233.39,7.510006157,435.22));
#427=DIRECTION('',(1.,0.,0.));
#428=DIRECTION('',(0.,0.,-1.));
#429=AXIS2_PLACEMENT_3D('',#426,#427,#428);
#430=PLANE('',#429);
#431=ORIENTED_EDGE('',*,*,#91,.T.);
#432=ORIENTED_EDGE('',*,*,#420,.T.);
#433=ORIENTED_EDGE('',*,*,#212,.F.);
#434=CARTESIAN_POINT('',(-233.39,6.910006157,434.18));
#435=DIRECTION('',(0.,-1.,0.));
#436=VECTOR('',#435,2.);
#437=LINE('',#434,#436);
#438=EDGE_CURVE('',#86,#198,#437,.T.);
#439=ORIENTED_EDGE('',*,*,#438,.F.);
#440=EDGE_LOOP('',(#431,#432,#433,#439));
#441=FACE_BOUND('',#440,.T.);
#442=ADVANCED_FACE('',(#441),#430,.T.);
#443=CARTESIAN_POINT('',(-232.94,7.510006157,434.18));
#444=DIRECTION('',(0.,-1.,0.));
#445=DIRECTION('',(0.,0.,-1.));
#446=AXIS2_PLACEMENT_3D('',#443,#444,#445);
#447=CYLINDRICAL_SURFACE('',#446,0.45);
#448=ORIENTED_EDGE('',*,*,#438,.T.);
#449=ORIENTED_EDGE('',*,*,#204,.T.);
#450=ORIENTED_EDGE('',*,*,#329,.F.);
#451=ORIENTED_EDGE('',*,*,#98,.F.);
#452=EDGE_LOOP('',(#448,#449,#450,#451));
#453=FACE_BOUND('',#452,.T.);
#454=ADVANCED_FACE('',(#453),#447,.F.);
#455=CARTESIAN_POINT('',(-233.39,9.810006157,436.78));
#456=DIRECTION('',(0.,-1.,0.));
#457=DIRECTION('',(0.,0.,-1.));
#458=AXIS2_PLACEMENT_3D('',#455,#456,#457);
#459=CYLINDRICAL_SURFACE('',#458,0.75);
#460=ORIENTED_EDGE('',*,*,#111,.T.);
#461=CARTESIAN_POINT('',(-234.14,6.910006157,436.78));
#462=DIRECTION('',(0.,-1.,0.));
#463=VECTOR('',#462,2.);
#464=LINE('',#461,#463);
#465=EDGE_CURVE('',#105,#259,#464,.T.);
#466=ORIENTED_EDGE('',*,*,#465,.T.);
#467=ORIENTED_EDGE('',*,*,#265,.F.);
#468=CARTESIAN_POINT('',(-233.39,6.910006157,437.53));
#469=DIRECTION('',(0.,-1.,0.));
#470=VECTOR('',#469,2.);
#471=LINE('',#468,#470);
#472=EDGE_CURVE('',#103,#251,#471,.T.);
#473=ORIENTED_EDGE('',*,*,#472,.F.);
#474=EDGE_LOOP('',(#460,#466,#467,#473));
#475=FACE_BOUND('',#474,.T.);
#476=ADVANCED_FACE('',(#475),#459,.T.);
#477=CARTESIAN_POINT('',(-229.74,9.810006157,437.53));
#478=DIRECTION('',(0.,0.,1.));
#479=DIRECTION('',(1.,0.,0.));
#480=AXIS2_PLACEMENT_3D('',#477,#478,#479);
#481=PLANE('',#480);
#482=ORIENTED_EDGE('',*,*,#119,.T.);
#483=ORIENTED_EDGE('',*,*,#472,.T.);
#484=ORIENTED_EDGE('',*,*,#256,.F.);
#485=CARTESIAN_POINT('',(-226.09,6.910006157,437.53));
#486=DIRECTION('',(0.,-1.,0.));
#487=VECTOR('',#486,2.);
#488=LINE('',#485,#487);
#489=EDGE_CURVE('',#114,#249,#488,.T.);
#490=ORIENTED_EDGE('',*,*,#489,.F.);
#491=EDGE_LOOP('',(#482,#483,#484,#490));
#492=FACE_BOUND('',#491,.T.);
#493=ADVANCED_FACE('',(#492),#481,.T.);
#494=CARTESIAN_POINT('',(-226.09,9.810006157,436.78));
#495=DIRECTION('',(0.,-1.,0.));
#496=DIRECTION('',(0.,0.,-1.));
#497=AXIS2_PLACEMENT_3D('',#494,#495,#496);
#498=CYLINDRICAL_SURFACE('',#497,0.75);
#499=ORIENTED_EDGE('',*,*,#128,.T.);
#500=ORIENTED_EDGE('',*,*,#489,.T.);
#501=ORIENTED_EDGE('',*,*,#314,.F.);
#502=CARTESIAN_POINT('',(-225.34,6.910006157,436.78));
#503=DIRECTION('',(0.,-1.,0.));
#504=VECTOR('',#503,2.);
#505=LINE('',#502,#504);
#506=EDGE_CURVE('',#122,#302,#505,.T.);
#507=ORIENTED_EDGE('',*,*,#506,.F.);
#508=EDGE_LOOP('',(#499,#500,#501,#507));
#509=FACE_BOUND('',#508,.T.);
#510=ADVANCED_FACE('',(#509),#498,.T.);
#511=CARTESIAN_POINT('',(-225.34,9.810006157,435.21));
#512=DIRECTION('',(1.,0.,0.));
#513=DIRECTION('',(0.,0.,-1.));
#514=AXIS2_PLACEMENT_3D('',#511,#512,#513);
#515=PLANE('',#514);
#516=ORIENTED_EDGE('',*,*,#136,.T.);
#517=ORIENTED_EDGE('',*,*,#506,.T.);
#518=ORIENTED_EDGE('',*,*,#307,.F.);
#519=CARTESIAN_POINT('',(-225.34,6.910006157,433.64));
#520=DIRECTION('',(0.,-1.,0.));
#521=VECTOR('',#520,2.);
#522=LINE('',#519,#521);
#523=EDGE_CURVE('',#131,#293,#522,.T.);
#524=ORIENTED_EDGE('',*,*,#523,.F.);
#525=EDGE_LOOP('',(#516,#517,#518,#524));
#526=FACE_BOUND('',#525,.T.);
#527=ADVANCED_FACE('',(#526),#515,.T.);
#528=CARTESIAN_POINT('',(-226.09,9.810006157,433.64));
#529=DIRECTION('',(0.,-1.,0.));
#530=DIRECTION('',(0.,0.,-1.));
#531=AXIS2_PLACEMENT_3D('',#528,#529,#530);
#532=CYLINDRICAL_SURFACE('',#531,0.75);
#533=ORIENTED_EDGE('',*,*,#145,.T.);
#534=ORIENTED_EDGE('',*,*,#523,.T.);
#535=ORIENTED_EDGE('',*,*,#299,.F.);
#536=CARTESIAN_POINT('',(-226.09,6.910006157,432.89));
#537=DIRECTION('',(0.,-1.,0.));
#538=VECTOR('',#537,2.);
#539=LINE('',#536,#538);
#540=EDGE_CURVE('',#139,#285,#539,.T.);
#541=ORIENTED_EDGE('',*,*,#540,.F.);
#542=EDGE_LOOP('',(#533,#534,#535,#541));
#543=FACE_BOUND('',#542,.T.);
#544=ADVANCED_FACE('',(#543),#532,.T.);
#545=CARTESIAN_POINT('',(-229.74,9.810006157,432.89));
#546=DIRECTION('',(0.,0.,-1.));
#547=DIRECTION('',(-1.,0.,0.));
#548=AXIS2_PLACEMENT_3D('',#545,#546,#547);
#549=PLANE('',#548);
#550=ORIENTED_EDGE('',*,*,#153,.T.);
#551=ORIENTED_EDGE('',*,*,#540,.T.);
#552=ORIENTED_EDGE('',*,*,#290,.F.);
#553=CARTESIAN_POINT('',(-233.39,6.910006157,432.89));
#554=DIRECTION('',(0.,-1.,0.));
#555=VECTOR('',#554,2.);
#556=LINE('',#553,#555);
#557=EDGE_CURVE('',#148,#276,#556,.T.);
#558=ORIENTED_EDGE('',*,*,#557,.F.);
#559=EDGE_LOOP('',(#550,#551,#552,#558));
#560=FACE_BOUND('',#559,.T.);
#561=ADVANCED_FACE('',(#560),#549,.T.);
#562=CARTESIAN_POINT('',(-233.39,9.810006157,433.64));
#563=DIRECTION('',(0.,-1.,0.));
#564=DIRECTION('',(0.,0.,-1.));
#565=AXIS2_PLACEMENT_3D('',#562,#563,#564);
#566=CYLINDRICAL_SURFACE('',#565,0.75);
#567=ORIENTED_EDGE('',*,*,#162,.T.);
#568=ORIENTED_EDGE('',*,*,#557,.T.);
#569=ORIENTED_EDGE('',*,*,#282,.F.);
#570=CARTESIAN_POINT('',(-234.14,6.910006157,433.64));
#571=DIRECTION('',(0.,-1.,0.));
#572=VECTOR('',#571,2.);
#573=LINE('',#570,#572);
#574=EDGE_CURVE('',#156,#268,#573,.T.);
#575=ORIENTED_EDGE('',*,*,#574,.F.);
#576=EDGE_LOOP('',(#567,#568,#569,#575));
#577=FACE_BOUND('',#576,.T.);
#578=ADVANCED_FACE('',(#577),#566,.T.);
#579=CARTESIAN_POINT('',(-234.14,9.810006157,435.21));
#580=DIRECTION('',(-1.,0.,0.));
#581=DIRECTION('',(0.,0.,1.));
#582=AXIS2_PLACEMENT_3D('',#579,#580,#581);
#583=PLANE('',#582);
#584=ORIENTED_EDGE('',*,*,#168,.T.);
#585=ORIENTED_EDGE('',*,*,#574,.T.);
#586=ORIENTED_EDGE('',*,*,#273,.F.);
#587=ORIENTED_EDGE('',*,*,#465,.F.);
#588=EDGE_LOOP('',(#584,#585,#586,#587));
#589=FACE_BOUND('',#588,.T.);
#590=ADVANCED_FACE('',(#589),#583,.T.);
#591=CLOSED_SHELL('',(#172,#318,#340,#357,#374,#391,#408,#425,#442,#454,#476,#493,#510,#527,#544,#561,#578,#590));
#592=MANIFOLD_SOLID_BREP('Body 02',#591);
#593=COLOUR_RGB('',0.494117647,0.494117647,0.525490224);
#594=FILL_AREA_STYLE_COLOUR('',#593);
#595=FILL_AREA_STYLE('',(#594));
#596=SURFACE_STYLE_FILL_AREA(#595);
#597=SURFACE_SIDE_STYLE('',(#596));
#598=SURFACE_STYLE_USAGE(.BOTH.,#597);
#599=PRESENTATION_STYLE_ASSIGNMENT((#598));
#26=STYLED_ITEM('',(#599),#592);
#16=SHAPE_REPRESENTATION('Body 02',(#15),#10);
#17=ADVANCED_BREP_SHAPE_REPRESENTATION('Body 02',(#592),#10);
#607=SHAPE_REPRESENTATION_RELATIONSHIP('','',#16,#17);
#608=CARTESIAN_POINT('',(0.,0.,0.));
#609=DIRECTION('',(0.,0.,1.));
#610=DIRECTION('',(1.,0.,0.));
#611=AXIS2_PLACEMENT_3D('',#608,#609,#610);
#613=MAPPED_ITEM('',#612,#611);
#612=REPRESENTATION_MAP(#611,#16);
#614=APPLICATION_CONTEXT('Managed model based 3d engineering');
#615=APPLICATION_PROTOCOL_DEFINITION('international standard','ap242_managed_model_based_3d_engineering',2013,#614);
#616=PRODUCT_CONTEXT('',#614,'mechanical');
#617=PRODUCT_DEFINITION_CONTEXT('part definition',#614,'design');
#24=PRODUCT('Body 02','Body 02','',(#616));
#618=PRODUCT_RELATED_PRODUCT_CATEGORY('part','',(#24));
#619=PRODUCT_DEFINITION_FORMATION_WITH_SPECIFIED_SOURCE('','',#24,.NOT_KNOWN.);
#25=PRODUCT_DEFINITION('design','',#619,#617);
#23=PRODUCT_DEFINITION_SHAPE('','',#25);
#620=SHAPE_DEFINITION_REPRESENTATION(#23,#16);
#11=DRAUGHTING_MODEL('',(#613),#10);
#621=DESCRIPTIVE_REPRESENTATION_ITEM('KEY','C:\\Users\\cullm\\AppData\\Local\\Packages\\Shapr3D.Shapr3D_dvv5p1vgwv6mp\\TempState\\1efb154c-49ce-488a-a4a6-ed6cd4fc1abb.tmp');
#622=PROPERTY_DEFINITION('KEY','',#25);
#623=REPRESENTATION('',(#621),#10);
#624=PROPERTY_DEFINITION_REPRESENTATION(#622,#623);
#625=GENERAL_PROPERTY('','KEY','');
#626=GENERAL_PROPERTY_ASSOCIATION('','',#625,#622);
#1=MECHANICAL_DESIGN_GEOMETRIC_PRESENTATION_REPRESENTATION('',(#26),#10);
ENDSEC;
END-ISO-10303-21;
