ISO-10303-21;
HEADER;

/* File generated by Shapr3D Version 5.710.7459.0 */

FILE_DESCRIPTION(('HOOPS Exchange Step'),'2;1');

FILE_NAME('C:\\Users\\cullm\\AppData\\Local\\Packages\\Shapr3D.Shapr3D_dvv5p1vgwv6mp\\TempState\\export\\temp_export',
'2024-09-14T06:15:31-04:00',
('cullm'),
('Shapr3D Limited'),
'HOOPS Exchange 2024.2',
'Shapr3D',
'Authorized');

FILE_SCHEMA( ('AP242_MANAGED_MODEL_BASED_3D_ENGINEERING_MIM_LF {1 0 10303 442 1 1 4 }') );

ENDSEC;

DATA;
#3=(NAMED_UNIT(*)PLANE_ANGLE_UNIT()SI_UNIT($,.RADIAN.));
#4=PLANE_ANGLE_MEASURE_WITH_UNIT(PLANE_ANGLE_MEASURE(0.0174532925),#3);
#5=(CONVERSION_BASED_UNIT('DEGREE',#4)NAMED_UNIT(#6)PLANE_ANGLE_UNIT());
#6=DIMENSIONAL_EXPONENTS(0.,0.,0.,0.,0.,0.,0.);
#7=(NAMED_UNIT(*)SI_UNIT($,.STERADIAN.)SOLID_ANGLE_UNIT());
#8=(LENGTH_UNIT()NAMED_UNIT(*)SI_UNIT(.MILLI.,.METRE.));
#9=UNCERTAINTY_MEASURE_WITH_UNIT(LENGTH_MEASURE(1.000000E-05),#8,'DISTANCE_ACCURACY_VALUE','Maximum Tolerance applied to model');
#10=(GEOMETRIC_REPRESENTATION_CONTEXT(3)GLOBAL_UNCERTAINTY_ASSIGNED_CONTEXT((#9))GLOBAL_UNIT_ASSIGNED_CONTEXT((#8,#5,#7))REPRESENTATION_CONTEXT('','Body 02'));
#12=CARTESIAN_POINT('',(0.,0.,0.));
#13=DIRECTION('',(0.,0.,1.));
#14=DIRECTION('',(1.,0.,0.));
#15=AXIS2_PLACEMENT_3D('',#12,#13,#14);
#27=CARTESIAN_POINT('',(0.,6.910006157,0.));
#28=DIRECTION('',(0.,-1.,0.));
#29=DIRECTION('',(0.,0.,-1.));
#30=AXIS2_PLACEMENT_3D('',#27,#28,#29);
#31=PLANE('',#30);
#32=CARTESIAN_POINT('',(-216.02,6.910006157,436.24));
#33=VERTEX_POINT('',#32);
#34=CARTESIAN_POINT('',(-216.47,6.910006157,436.69));
#35=VERTEX_POINT('',#34);
#36=CARTESIAN_POINT('',(-216.47,6.910006157,436.24));
#37=DIRECTION('',(0.,-1.,0.));
#38=DIRECTION('',(0.,0.,-1.));
#39=AXIS2_PLACEMENT_3D('',#36,#37,#38);
#40=CIRCLE('',#39,0.45);
#41=EDGE_CURVE('',#33,#35,#40,.T.);
#42=ORIENTED_EDGE('',*,*,#41,.T.);
#43=CARTESIAN_POINT('',(-223.4,6.910006157,436.69));
#44=VERTEX_POINT('',#43);
#45=CARTESIAN_POINT('',(-216.47,6.910006157,436.69));
#46=DIRECTION('',(-1.,0.,0.));
#47=VECTOR('',#46,6.93);
#48=LINE('',#45,#47);
#49=EDGE_CURVE('',#35,#44,#48,.T.);
#50=ORIENTED_EDGE('',*,*,#49,.T.);
#51=CARTESIAN_POINT('',(-223.4,6.910006157,435.65));
#52=VERTEX_POINT('',#51);
#53=CARTESIAN_POINT('',(-223.4,6.910006157,435.65));
#54=DIRECTION('',(0.,0.,1.));
#55=VECTOR('',#54,1.04);
#56=LINE('',#53,#55);
#57=EDGE_CURVE('',#52,#44,#56,.T.);
#58=ORIENTED_EDGE('',*,*,#57,.F.);
#59=CARTESIAN_POINT('',(-216.47,6.910006157,435.65));
#60=VERTEX_POINT('',#59);
#61=CARTESIAN_POINT('',(-216.47,6.910006157,435.65));
#62=DIRECTION('',(-1.,0.,0.));
#63=VECTOR('',#62,6.93);
#64=LINE('',#61,#63);
#65=EDGE_CURVE('',#60,#52,#64,.T.);
#66=ORIENTED_EDGE('',*,*,#65,.F.);
#67=CARTESIAN_POINT('',(-216.02,6.910006157,436.1));
#68=VERTEX_POINT('',#67);
#69=CARTESIAN_POINT('',(-216.47,6.910006157,436.1));
#70=DIRECTION('',(0.,-1.,0.));
#71=DIRECTION('',(0.,0.,-1.));
#72=AXIS2_PLACEMENT_3D('',#69,#70,#71);
#73=CIRCLE('',#72,0.45);
#74=EDGE_CURVE('',#60,#68,#73,.T.);
#75=ORIENTED_EDGE('',*,*,#74,.T.);
#76=CARTESIAN_POINT('',(-216.02,6.910006157,436.24));
#77=DIRECTION('',(0.,0.,-1.));
#78=VECTOR('',#77,0.14);
#79=LINE('',#76,#78);
#80=EDGE_CURVE('',#33,#68,#79,.T.);
#81=ORIENTED_EDGE('',*,*,#80,.F.);
#82=EDGE_LOOP('',(#42,#50,#58,#66,#75,#81));
#83=FACE_BOUND('',#82,.T.);
#84=CARTESIAN_POINT('',(-223.35,6.910006157,434.9));
#85=VERTEX_POINT('',#84);
#86=CARTESIAN_POINT('',(-216.945137585,6.910006157,434.9));
#87=VERTEX_POINT('',#86);
#88=CARTESIAN_POINT('',(-223.35,6.910006157,434.9));
#89=DIRECTION('',(1.,0.,-0.));
#90=VECTOR('',#89,6.404862415);
#91=LINE('',#88,#90);
#92=EDGE_CURVE('',#85,#87,#91,.T.);
#93=ORIENTED_EDGE('',*,*,#92,.F.);
#94=CARTESIAN_POINT('',(-223.35,6.910006157,432.89));
#95=VERTEX_POINT('',#94);
#96=CARTESIAN_POINT('',(-223.35,6.910006157,432.89));
#97=DIRECTION('',(0.,0.,1.));
#98=VECTOR('',#97,2.01);
#99=LINE('',#96,#98);
#100=EDGE_CURVE('',#95,#85,#99,.T.);
#101=ORIENTED_EDGE('',*,*,#100,.F.);
#102=CARTESIAN_POINT('',(-224.091995068,6.910006157,432.89));
#103=VERTEX_POINT('',#102);
#104=CARTESIAN_POINT('',(-224.091995068,6.910006157,432.89));
#105=DIRECTION('',(1.,0.,-0.));
#106=VECTOR('',#105,0.741995068);
#107=LINE('',#104,#106);
#108=EDGE_CURVE('',#103,#95,#107,.T.);
#109=ORIENTED_EDGE('',*,*,#108,.F.);
#110=CARTESIAN_POINT('',(-224.091995068,6.910006157,437.53));
#111=VERTEX_POINT('',#110);
#112=CARTESIAN_POINT('',(-224.091995068,6.910006157,432.89));
#113=DIRECTION('',(0.,0.,1.));
#114=VECTOR('',#113,4.64);
#115=LINE('',#112,#114);
#116=EDGE_CURVE('',#103,#111,#115,.T.);
#117=ORIENTED_EDGE('',*,*,#116,.T.);
#118=CARTESIAN_POINT('',(-215.845808697,6.910006157,437.53));
#119=VERTEX_POINT('',#118);
#120=CARTESIAN_POINT('',(-215.845808697,6.910006157,437.53));
#121=DIRECTION('',(-1.,0.,0.));
#122=VECTOR('',#121,8.246186371);
#123=LINE('',#120,#122);
#124=EDGE_CURVE('',#119,#111,#123,.T.);
#125=ORIENTED_EDGE('',*,*,#124,.F.);
#126=CARTESIAN_POINT('',(-215.295808697,6.910006157,436.98));
#127=VERTEX_POINT('',#126);
#128=CARTESIAN_POINT('',(-215.845808697,6.910006157,436.98));
#129=DIRECTION('',(0.,-1.,0.));
#130=DIRECTION('',(0.,0.,-1.));
#131=AXIS2_PLACEMENT_3D('',#128,#129,#130);
#132=CIRCLE('',#131,0.55);
#133=EDGE_CURVE('',#127,#119,#132,.T.);
#134=ORIENTED_EDGE('',*,*,#133,.F.);
#135=CARTESIAN_POINT('',(-215.295808697,6.910006157,435.45));
#136=VERTEX_POINT('',#135);
#137=CARTESIAN_POINT('',(-215.295808697,6.910006157,435.45));
#138=DIRECTION('',(0.,0.,1.));
#139=VECTOR('',#138,1.53);
#140=LINE('',#137,#139);
#141=EDGE_CURVE('',#136,#127,#140,.T.);
#142=ORIENTED_EDGE('',*,*,#141,.F.);
#143=CARTESIAN_POINT('',(-215.845808697,6.910006157,434.9));
#144=VERTEX_POINT('',#143);
#145=CARTESIAN_POINT('',(-215.845808697,6.910006157,435.45));
#146=DIRECTION('',(0.,-1.,0.));
#147=DIRECTION('',(0.,0.,-1.));
#148=AXIS2_PLACEMENT_3D('',#145,#146,#147);
#149=CIRCLE('',#148,0.55);
#150=EDGE_CURVE('',#144,#136,#149,.T.);
#151=ORIENTED_EDGE('',*,*,#150,.F.);
#152=CARTESIAN_POINT('',(-216.168429903,6.910006157,434.9));
#153=VERTEX_POINT('',#152);
#154=CARTESIAN_POINT('',(-216.168429903,6.910006157,434.9));
#155=DIRECTION('',(1.,0.,-0.));
#156=VECTOR('',#155,0.322621206);
#157=LINE('',#154,#156);
#158=EDGE_CURVE('',#153,#144,#157,.T.);
#159=ORIENTED_EDGE('',*,*,#158,.F.);
#160=CARTESIAN_POINT('',(-215.361144595,6.910006157,432.89));
#161=VERTEX_POINT('',#160);
#162=CARTESIAN_POINT('',(-215.361144595,6.910006157,432.89));
#163=DIRECTION('',(-0.372697827,0.,0.927952763));
#164=VECTOR('',#163,2.166058533);
#165=LINE('',#162,#164);
#166=EDGE_CURVE('',#161,#153,#165,.T.);
#167=ORIENTED_EDGE('',*,*,#166,.F.);
#168=CARTESIAN_POINT('',(-216.137852276,6.910006157,432.89));
#169=VERTEX_POINT('',#168);
#170=CARTESIAN_POINT('',(-216.137852276,6.910006157,432.89));
#171=DIRECTION('',(1.,0.,-0.));
#172=VECTOR('',#171,0.776707681);
#173=LINE('',#170,#172);
#174=EDGE_CURVE('',#169,#161,#173,.T.);
#175=ORIENTED_EDGE('',*,*,#174,.F.);
#176=CARTESIAN_POINT('',(-216.945137585,6.910006157,434.9));
#177=DIRECTION('',(0.372697827,0.,-0.927952763));
#178=VECTOR('',#177,2.166058533);
#179=LINE('',#176,#178);
#180=EDGE_CURVE('',#87,#169,#179,.T.);
#181=ORIENTED_EDGE('',*,*,#180,.F.);
#182=EDGE_LOOP('',(#93,#101,#109,#117,#125,#134,#142,#151,#159,#167,#175,#181));
#183=FACE_BOUND('',#182,.T.);
#184=ADVANCED_FACE('',(#83,#183),#31,.F.);
#185=CARTESIAN_POINT('',(0.,4.910006157,0.));
#186=DIRECTION('',(0.,-1.,0.));
#187=DIRECTION('',(0.,0.,-1.));
#188=AXIS2_PLACEMENT_3D('',#185,#186,#187);
#189=PLANE('',#188);
#190=CARTESIAN_POINT('',(-216.47,4.910006157,436.69));
#191=VERTEX_POINT('',#190);
#192=CARTESIAN_POINT('',(-223.4,4.910006157,436.69));
#193=VERTEX_POINT('',#192);
#194=CARTESIAN_POINT('',(-216.47,4.910006157,436.69));
#195=DIRECTION('',(-1.,0.,0.));
#196=VECTOR('',#195,6.93);
#197=LINE('',#194,#196);
#198=EDGE_CURVE('',#191,#193,#197,.T.);
#199=ORIENTED_EDGE('',*,*,#198,.F.);
#200=CARTESIAN_POINT('',(-216.02,4.910006157,436.24));
#201=VERTEX_POINT('',#200);
#202=CARTESIAN_POINT('',(-216.47,4.910006157,436.24));
#203=DIRECTION('',(0.,-1.,0.));
#204=DIRECTION('',(0.,0.,-1.));
#205=AXIS2_PLACEMENT_3D('',#202,#203,#204);
#206=CIRCLE('',#205,0.45);
#207=EDGE_CURVE('',#201,#191,#206,.T.);
#208=ORIENTED_EDGE('',*,*,#207,.F.);
#209=CARTESIAN_POINT('',(-216.02,4.910006157,436.1));
#210=VERTEX_POINT('',#209);
#211=CARTESIAN_POINT('',(-216.02,4.910006157,436.24));
#212=DIRECTION('',(0.,0.,-1.));
#213=VECTOR('',#212,0.14);
#214=LINE('',#211,#213);
#215=EDGE_CURVE('',#201,#210,#214,.T.);
#216=ORIENTED_EDGE('',*,*,#215,.T.);
#217=CARTESIAN_POINT('',(-216.47,4.910006157,435.65));
#218=VERTEX_POINT('',#217);
#219=CARTESIAN_POINT('',(-216.47,4.910006157,436.1));
#220=DIRECTION('',(0.,-1.,0.));
#221=DIRECTION('',(0.,0.,-1.));
#222=AXIS2_PLACEMENT_3D('',#219,#220,#221);
#223=CIRCLE('',#222,0.45);
#224=EDGE_CURVE('',#218,#210,#223,.T.);
#225=ORIENTED_EDGE('',*,*,#224,.F.);
#226=CARTESIAN_POINT('',(-223.4,4.910006157,435.65));
#227=VERTEX_POINT('',#226);
#228=CARTESIAN_POINT('',(-216.47,4.910006157,435.65));
#229=DIRECTION('',(-1.,0.,0.));
#230=VECTOR('',#229,6.93);
#231=LINE('',#228,#230);
#232=EDGE_CURVE('',#218,#227,#231,.T.);
#233=ORIENTED_EDGE('',*,*,#232,.T.);
#234=CARTESIAN_POINT('',(-223.4,4.910006157,435.65));
#235=DIRECTION('',(0.,0.,1.));
#236=VECTOR('',#235,1.04);
#237=LINE('',#234,#236);
#238=EDGE_CURVE('',#227,#193,#237,.T.);
#239=ORIENTED_EDGE('',*,*,#238,.T.);
#240=EDGE_LOOP('',(#199,#208,#216,#225,#233,#239));
#241=FACE_BOUND('',#240,.T.);
#242=CARTESIAN_POINT('',(-223.35,4.910006157,432.89));
#243=VERTEX_POINT('',#242);
#244=CARTESIAN_POINT('',(-223.35,4.910006157,434.9));
#245=VERTEX_POINT('',#244);
#246=CARTESIAN_POINT('',(-223.35,4.910006157,432.89));
#247=DIRECTION('',(0.,0.,1.));
#248=VECTOR('',#247,2.01);
#249=LINE('',#246,#248);
#250=EDGE_CURVE('',#243,#245,#249,.T.);
#251=ORIENTED_EDGE('',*,*,#250,.T.);
#252=CARTESIAN_POINT('',(-216.945137585,4.910006157,434.9));
#253=VERTEX_POINT('',#252);
#254=CARTESIAN_POINT('',(-223.35,4.910006157,434.9));
#255=DIRECTION('',(1.,0.,-0.));
#256=VECTOR('',#255,6.404862415);
#257=LINE('',#254,#256);
#258=EDGE_CURVE('',#245,#253,#257,.T.);
#259=ORIENTED_EDGE('',*,*,#258,.T.);
#260=CARTESIAN_POINT('',(-216.137852276,4.910006157,432.89));
#261=VERTEX_POINT('',#260);
#262=CARTESIAN_POINT('',(-216.945137585,4.910006157,434.9));
#263=DIRECTION('',(0.372697827,0.,-0.927952763));
#264=VECTOR('',#263,2.166058533);
#265=LINE('',#262,#264);
#266=EDGE_CURVE('',#253,#261,#265,.T.);
#267=ORIENTED_EDGE('',*,*,#266,.T.);
#268=CARTESIAN_POINT('',(-215.361144595,4.910006157,432.89));
#269=VERTEX_POINT('',#268);
#270=CARTESIAN_POINT('',(-216.137852276,4.910006157,432.89));
#271=DIRECTION('',(1.,0.,-0.));
#272=VECTOR('',#271,0.776707681);
#273=LINE('',#270,#272);
#274=EDGE_CURVE('',#261,#269,#273,.T.);
#275=ORIENTED_EDGE('',*,*,#274,.T.);
#276=CARTESIAN_POINT('',(-216.168429903,4.910006157,434.9));
#277=VERTEX_POINT('',#276);
#278=CARTESIAN_POINT('',(-215.361144595,4.910006157,432.89));
#279=DIRECTION('',(-0.372697827,0.,0.927952763));
#280=VECTOR('',#279,2.166058533);
#281=LINE('',#278,#280);
#282=EDGE_CURVE('',#269,#277,#281,.T.);
#283=ORIENTED_EDGE('',*,*,#282,.T.);
#284=CARTESIAN_POINT('',(-215.845808697,4.910006157,434.9));
#285=VERTEX_POINT('',#284);
#286=CARTESIAN_POINT('',(-216.168429903,4.910006157,434.9));
#287=DIRECTION('',(1.,0.,-0.));
#288=VECTOR('',#287,0.322621206);
#289=LINE('',#286,#288);
#290=EDGE_CURVE('',#277,#285,#289,.T.);
#291=ORIENTED_EDGE('',*,*,#290,.T.);
#292=CARTESIAN_POINT('',(-215.295808697,4.910006157,435.45));
#293=VERTEX_POINT('',#292);
#294=CARTESIAN_POINT('',(-215.845808697,4.910006157,435.45));
#295=DIRECTION('',(0.,-1.,0.));
#296=DIRECTION('',(0.,0.,-1.));
#297=AXIS2_PLACEMENT_3D('',#294,#295,#296);
#298=CIRCLE('',#297,0.55);
#299=EDGE_CURVE('',#285,#293,#298,.T.);
#300=ORIENTED_EDGE('',*,*,#299,.T.);
#301=CARTESIAN_POINT('',(-215.295808697,4.910006157,436.98));
#302=VERTEX_POINT('',#301);
#303=CARTESIAN_POINT('',(-215.295808697,4.910006157,435.45));
#304=DIRECTION('',(0.,0.,1.));
#305=VECTOR('',#304,1.53);
#306=LINE('',#303,#305);
#307=EDGE_CURVE('',#293,#302,#306,.T.);
#308=ORIENTED_EDGE('',*,*,#307,.T.);
#309=CARTESIAN_POINT('',(-215.845808697,4.910006157,437.53));
#310=VERTEX_POINT('',#309);
#311=CARTESIAN_POINT('',(-215.845808697,4.910006157,436.98));
#312=DIRECTION('',(0.,-1.,0.));
#313=DIRECTION('',(0.,0.,-1.));
#314=AXIS2_PLACEMENT_3D('',#311,#312,#313);
#315=CIRCLE('',#314,0.55);
#316=EDGE_CURVE('',#302,#310,#315,.T.);
#317=ORIENTED_EDGE('',*,*,#316,.T.);
#318=CARTESIAN_POINT('',(-224.091995068,4.910006157,437.53));
#319=VERTEX_POINT('',#318);
#320=CARTESIAN_POINT('',(-215.845808697,4.910006157,437.53));
#321=DIRECTION('',(-1.,0.,0.));
#322=VECTOR('',#321,8.246186371);
#323=LINE('',#320,#322);
#324=EDGE_CURVE('',#310,#319,#323,.T.);
#325=ORIENTED_EDGE('',*,*,#324,.T.);
#326=CARTESIAN_POINT('',(-224.091995068,4.910006157,432.89));
#327=VERTEX_POINT('',#326);
#328=CARTESIAN_POINT('',(-224.091995068,4.910006157,432.89));
#329=DIRECTION('',(0.,0.,1.));
#330=VECTOR('',#329,4.64);
#331=LINE('',#328,#330);
#332=EDGE_CURVE('',#327,#319,#331,.T.);
#333=ORIENTED_EDGE('',*,*,#332,.F.);
#334=CARTESIAN_POINT('',(-224.091995068,4.910006157,432.89));
#335=DIRECTION('',(1.,0.,-0.));
#336=VECTOR('',#335,0.741995068);
#337=LINE('',#334,#336);
#338=EDGE_CURVE('',#327,#243,#337,.T.);
#339=ORIENTED_EDGE('',*,*,#338,.T.);
#340=EDGE_LOOP('',(#251,#259,#267,#275,#283,#291,#300,#308,#317,#325,#333,#339));
#341=FACE_BOUND('',#340,.T.);
#342=ADVANCED_FACE('',(#241,#341),#189,.T.);
#343=CARTESIAN_POINT('',(-220.147568793,8.810006157,434.9));
#344=DIRECTION('',(0.,0.,-1.));
#345=DIRECTION('',(-1.,0.,0.));
#346=AXIS2_PLACEMENT_3D('',#343,#344,#345);
#347=PLANE('',#346);
#348=ORIENTED_EDGE('',*,*,#92,.T.);
#349=CARTESIAN_POINT('',(-216.945137585,6.910006157,434.9));
#350=DIRECTION('',(0.,-1.,0.));
#351=VECTOR('',#350,2.);
#352=LINE('',#349,#351);
#353=EDGE_CURVE('',#87,#253,#352,.T.);
#354=ORIENTED_EDGE('',*,*,#353,.T.);
#355=ORIENTED_EDGE('',*,*,#258,.F.);
#356=CARTESIAN_POINT('',(-223.35,6.910006157,434.9));
#357=DIRECTION('',(0.,-1.,0.));
#358=VECTOR('',#357,2.);
#359=LINE('',#356,#358);
#360=EDGE_CURVE('',#85,#245,#359,.T.);
#361=ORIENTED_EDGE('',*,*,#360,.F.);
#362=EDGE_LOOP('',(#348,#354,#355,#361));
#363=FACE_BOUND('',#362,.T.);
#364=ADVANCED_FACE('',(#363),#347,.T.);
#365=CARTESIAN_POINT('',(-223.35,8.810006157,433.895));
#366=DIRECTION('',(1.,0.,0.));
#367=DIRECTION('',(0.,0.,-1.));
#368=AXIS2_PLACEMENT_3D('',#365,#366,#367);
#369=PLANE('',#368);
#370=ORIENTED_EDGE('',*,*,#100,.T.);
#371=ORIENTED_EDGE('',*,*,#360,.T.);
#372=ORIENTED_EDGE('',*,*,#250,.F.);
#373=CARTESIAN_POINT('',(-223.35,6.910006157,432.89));
#374=DIRECTION('',(0.,-1.,0.));
#375=VECTOR('',#374,2.);
#376=LINE('',#373,#375);
#377=EDGE_CURVE('',#95,#243,#376,.T.);
#378=ORIENTED_EDGE('',*,*,#377,.F.);
#379=EDGE_LOOP('',(#370,#371,#372,#378));
#380=FACE_BOUND('',#379,.T.);
#381=ADVANCED_FACE('',(#380),#369,.T.);
#382=CARTESIAN_POINT('',(-223.720997534,8.810006157,432.89));
#383=DIRECTION('',(0.,0.,-1.));
#384=DIRECTION('',(-1.,0.,0.));
#385=AXIS2_PLACEMENT_3D('',#382,#383,#384);
#386=PLANE('',#385);
#387=ORIENTED_EDGE('',*,*,#108,.T.);
#388=ORIENTED_EDGE('',*,*,#377,.T.);
#389=ORIENTED_EDGE('',*,*,#338,.F.);
#390=CARTESIAN_POINT('',(-224.091995068,6.910006157,432.89));
#391=DIRECTION('',(0.,-1.,0.));
#392=VECTOR('',#391,2.);
#393=LINE('',#390,#392);
#394=EDGE_CURVE('',#103,#327,#393,.T.);
#395=ORIENTED_EDGE('',*,*,#394,.F.);
#396=EDGE_LOOP('',(#387,#388,#389,#395));
#397=FACE_BOUND('',#396,.T.);
#398=ADVANCED_FACE('',(#397),#386,.T.);
#399=CARTESIAN_POINT('',(-224.091995068,8.810006157,435.21));
#400=DIRECTION('',(1.,0.,0.));
#401=DIRECTION('',(0.,0.,-1.));
#402=AXIS2_PLACEMENT_3D('',#399,#400,#401);
#403=PLANE('',#402);
#404=ORIENTED_EDGE('',*,*,#394,.T.);
#405=ORIENTED_EDGE('',*,*,#332,.T.);
#406=CARTESIAN_POINT('',(-224.091995068,6.910006157,437.53));
#407=DIRECTION('',(0.,-1.,0.));
#408=VECTOR('',#407,2.);
#409=LINE('',#406,#408);
#410=EDGE_CURVE('',#111,#319,#409,.T.);
#411=ORIENTED_EDGE('',*,*,#410,.F.);
#412=ORIENTED_EDGE('',*,*,#116,.F.);
#413=EDGE_LOOP('',(#404,#405,#411,#412));
#414=FACE_BOUND('',#413,.T.);
#415=ADVANCED_FACE('',(#414),#403,.F.);
#416=CARTESIAN_POINT('',(-219.968901882,8.810006157,437.53));
#417=DIRECTION('',(0.,0.,1.));
#418=DIRECTION('',(1.,0.,0.));
#419=AXIS2_PLACEMENT_3D('',#416,#417,#418);
#420=PLANE('',#419);
#421=ORIENTED_EDGE('',*,*,#124,.T.);
#422=ORIENTED_EDGE('',*,*,#410,.T.);
#423=ORIENTED_EDGE('',*,*,#324,.F.);
#424=CARTESIAN_POINT('',(-215.845808697,6.910006157,437.53));
#425=DIRECTION('',(0.,-1.,0.));
#426=VECTOR('',#425,2.);
#427=LINE('',#424,#426);
#428=EDGE_CURVE('',#119,#310,#427,.T.);
#429=ORIENTED_EDGE('',*,*,#428,.F.);
#430=EDGE_LOOP('',(#421,#422,#423,#429));
#431=FACE_BOUND('',#430,.T.);
#432=ADVANCED_FACE('',(#431),#420,.T.);
#433=CARTESIAN_POINT('',(-215.845808697,8.810006157,436.98));
#434=DIRECTION('',(0.,-1.,0.));
#435=DIRECTION('',(0.,0.,-1.));
#436=AXIS2_PLACEMENT_3D('',#433,#434,#435);
#437=CYLINDRICAL_SURFACE('',#436,0.55);
#438=ORIENTED_EDGE('',*,*,#133,.T.);
#439=ORIENTED_EDGE('',*,*,#428,.T.);
#440=ORIENTED_EDGE('',*,*,#316,.F.);
#441=CARTESIAN_POINT('',(-215.295808697,6.910006157,436.98));
#442=DIRECTION('',(0.,-1.,0.));
#443=VECTOR('',#442,2.);
#444=LINE('',#441,#443);
#445=EDGE_CURVE('',#127,#302,#444,.T.);
#446=ORIENTED_EDGE('',*,*,#445,.F.);
#447=EDGE_LOOP('',(#438,#439,#440,#446));
#448=FACE_BOUND('',#447,.T.);
#449=ADVANCED_FACE('',(#448),#437,.T.);
#450=CARTESIAN_POINT('',(-215.295808697,8.810006157,436.215));
#451=DIRECTION('',(1.,0.,0.));
#452=DIRECTION('',(0.,0.,-1.));
#453=AXIS2_PLACEMENT_3D('',#450,#451,#452);
#454=PLANE('',#453);
#455=ORIENTED_EDGE('',*,*,#141,.T.);
#456=ORIENTED_EDGE('',*,*,#445,.T.);
#457=ORIENTED_EDGE('',*,*,#307,.F.);
#458=CARTESIAN_POINT('',(-215.295808697,6.910006157,435.45));
#459=DIRECTION('',(0.,-1.,0.));
#460=VECTOR('',#459,2.);
#461=LINE('',#458,#460);
#462=EDGE_CURVE('',#136,#293,#461,.T.);
#463=ORIENTED_EDGE('',*,*,#462,.F.);
#464=EDGE_LOOP('',(#455,#456,#457,#463));
#465=FACE_BOUND('',#464,.T.);
#466=ADVANCED_FACE('',(#465),#454,.T.);
#467=CARTESIAN_POINT('',(-215.845808697,8.810006157,435.45));
#468=DIRECTION('',(0.,-1.,0.));
#469=DIRECTION('',(0.,0.,-1.));
#470=AXIS2_PLACEMENT_3D('',#467,#468,#469);
#471=CYLINDRICAL_SURFACE('',#470,0.55);
#472=ORIENTED_EDGE('',*,*,#150,.T.);
#473=ORIENTED_EDGE('',*,*,#462,.T.);
#474=ORIENTED_EDGE('',*,*,#299,.F.);
#475=CARTESIAN_POINT('',(-215.845808697,6.910006157,434.9));
#476=DIRECTION('',(0.,-1.,0.));
#477=VECTOR('',#476,2.);
#478=LINE('',#475,#477);
#479=EDGE_CURVE('',#144,#285,#478,.T.);
#480=ORIENTED_EDGE('',*,*,#479,.F.);
#481=EDGE_LOOP('',(#472,#473,#474,#480));
#482=FACE_BOUND('',#481,.T.);
#483=ADVANCED_FACE('',(#482),#471,.T.);
#484=CARTESIAN_POINT('',(-216.0071193,8.810006157,434.9));
#485=DIRECTION('',(0.,0.,-1.));
#486=DIRECTION('',(-1.,0.,0.));
#487=AXIS2_PLACEMENT_3D('',#484,#485,#486);
#488=PLANE('',#487);
#489=ORIENTED_EDGE('',*,*,#158,.T.);
#490=ORIENTED_EDGE('',*,*,#479,.T.);
#491=ORIENTED_EDGE('',*,*,#290,.F.);
#492=CARTESIAN_POINT('',(-216.168429903,6.910006157,434.9));
#493=DIRECTION('',(0.,-1.,0.));
#494=VECTOR('',#493,2.);
#495=LINE('',#492,#494);
#496=EDGE_CURVE('',#153,#277,#495,.T.);
#497=ORIENTED_EDGE('',*,*,#496,.F.);
#498=EDGE_LOOP('',(#489,#490,#491,#497));
#499=FACE_BOUND('',#498,.T.);
#500=ADVANCED_FACE('',(#499),#488,.T.);
#501=CARTESIAN_POINT('',(-215.764787249,8.810006157,433.895));
#502=DIRECTION('',(0.927952763,0.,0.372697827));
#503=DIRECTION('',(0.372697827,0.,-0.927952763));
#504=AXIS2_PLACEMENT_3D('',#501,#502,#503);
#505=PLANE('',#504);
#506=ORIENTED_EDGE('',*,*,#166,.T.);
#507=ORIENTED_EDGE('',*,*,#496,.T.);
#508=ORIENTED_EDGE('',*,*,#282,.F.);
#509=CARTESIAN_POINT('',(-215.361144595,6.910006157,432.89));
#510=DIRECTION('',(0.,-1.,0.));
#511=VECTOR('',#510,2.);
#512=LINE('',#509,#511);
#513=EDGE_CURVE('',#161,#269,#512,.T.);
#514=ORIENTED_EDGE('',*,*,#513,.F.);
#515=EDGE_LOOP('',(#506,#507,#508,#514));
#516=FACE_BOUND('',#515,.T.);
#517=ADVANCED_FACE('',(#516),#505,.T.);
#518=CARTESIAN_POINT('',(-215.749498436,8.810006157,432.89));
#519=DIRECTION('',(0.,0.,-1.));
#520=DIRECTION('',(-1.,0.,0.));
#521=AXIS2_PLACEMENT_3D('',#518,#519,#520);
#522=PLANE('',#521);
#523=ORIENTED_EDGE('',*,*,#174,.T.);
#524=ORIENTED_EDGE('',*,*,#513,.T.);
#525=ORIENTED_EDGE('',*,*,#274,.F.);
#526=CARTESIAN_POINT('',(-216.137852276,6.910006157,432.89));
#527=DIRECTION('',(0.,-1.,0.));
#528=VECTOR('',#527,2.);
#529=LINE('',#526,#528);
#530=EDGE_CURVE('',#169,#261,#529,.T.);
#531=ORIENTED_EDGE('',*,*,#530,.F.);
#532=EDGE_LOOP('',(#523,#524,#525,#531));
#533=FACE_BOUND('',#532,.T.);
#534=ADVANCED_FACE('',(#533),#522,.T.);
#535=CARTESIAN_POINT('',(-216.541494931,8.810006157,433.895));
#536=DIRECTION('',(-0.927952763,0.,-0.372697827));
#537=DIRECTION('',(-0.372697827,0.,0.927952763));
#538=AXIS2_PLACEMENT_3D('',#535,#536,#537);
#539=PLANE('',#538);
#540=ORIENTED_EDGE('',*,*,#180,.T.);
#541=ORIENTED_EDGE('',*,*,#530,.T.);
#542=ORIENTED_EDGE('',*,*,#266,.F.);
#543=ORIENTED_EDGE('',*,*,#353,.F.);
#544=EDGE_LOOP('',(#540,#541,#542,#543));
#545=FACE_BOUND('',#544,.T.);
#546=ADVANCED_FACE('',(#545),#539,.T.);
#547=CARTESIAN_POINT('',(-219.935,8.910006157,436.69));
#548=DIRECTION('',(0.,0.,1.));
#549=DIRECTION('',(1.,0.,0.));
#550=AXIS2_PLACEMENT_3D('',#547,#548,#549);
#551=PLANE('',#550);
#552=CARTESIAN_POINT('',(-216.47,6.910006157,436.69));
#553=DIRECTION('',(0.,-1.,0.));
#554=VECTOR('',#553,2.);
#555=LINE('',#552,#554);
#556=EDGE_CURVE('',#35,#191,#555,.T.);
#557=ORIENTED_EDGE('',*,*,#556,.T.);
#558=ORIENTED_EDGE('',*,*,#198,.T.);
#559=CARTESIAN_POINT('',(-223.4,6.910006157,436.69));
#560=DIRECTION('',(0.,-1.,0.));
#561=VECTOR('',#560,2.);
#562=LINE('',#559,#561);
#563=EDGE_CURVE('',#44,#193,#562,.T.);
#564=ORIENTED_EDGE('',*,*,#563,.F.);
#565=ORIENTED_EDGE('',*,*,#49,.F.);
#566=EDGE_LOOP('',(#557,#558,#564,#565));
#567=FACE_BOUND('',#566,.T.);
#568=ADVANCED_FACE('',(#567),#551,.F.);
#569=CARTESIAN_POINT('',(-223.4,8.910006157,436.17));
#570=DIRECTION('',(1.,0.,0.));
#571=DIRECTION('',(0.,0.,-1.));
#572=AXIS2_PLACEMENT_3D('',#569,#570,#571);
#573=PLANE('',#572);
#574=ORIENTED_EDGE('',*,*,#57,.T.);
#575=ORIENTED_EDGE('',*,*,#563,.T.);
#576=ORIENTED_EDGE('',*,*,#238,.F.);
#577=CARTESIAN_POINT('',(-223.4,6.910006157,435.65));
#578=DIRECTION('',(0.,-1.,0.));
#579=VECTOR('',#578,2.);
#580=LINE('',#577,#579);
#581=EDGE_CURVE('',#52,#227,#580,.T.);
#582=ORIENTED_EDGE('',*,*,#581,.F.);
#583=EDGE_LOOP('',(#574,#575,#576,#582));
#584=FACE_BOUND('',#583,.T.);
#585=ADVANCED_FACE('',(#584),#573,.T.);
#586=CARTESIAN_POINT('',(-219.935,8.910006157,435.65));
#587=DIRECTION('',(0.,0.,1.));
#588=DIRECTION('',(1.,0.,0.));
#589=AXIS2_PLACEMENT_3D('',#586,#587,#588);
#590=PLANE('',#589);
#591=ORIENTED_EDGE('',*,*,#65,.T.);
#592=ORIENTED_EDGE('',*,*,#581,.T.);
#593=ORIENTED_EDGE('',*,*,#232,.F.);
#594=CARTESIAN_POINT('',(-216.47,6.910006157,435.65));
#595=DIRECTION('',(0.,-1.,0.));
#596=VECTOR('',#595,2.);
#597=LINE('',#594,#596);
#598=EDGE_CURVE('',#60,#218,#597,.T.);
#599=ORIENTED_EDGE('',*,*,#598,.F.);
#600=EDGE_LOOP('',(#591,#592,#593,#599));
#601=FACE_BOUND('',#600,.T.);
#602=ADVANCED_FACE('',(#601),#590,.T.);
#603=CARTESIAN_POINT('',(-216.47,8.910006157,436.1));
#604=DIRECTION('',(0.,-1.,0.));
#605=DIRECTION('',(0.,0.,-1.));
#606=AXIS2_PLACEMENT_3D('',#603,#604,#605);
#607=CYLINDRICAL_SURFACE('',#606,0.45);
#608=ORIENTED_EDGE('',*,*,#598,.T.);
#609=ORIENTED_EDGE('',*,*,#224,.T.);
#610=CARTESIAN_POINT('',(-216.02,6.910006157,436.1));
#611=DIRECTION('',(0.,-1.,0.));
#612=VECTOR('',#611,2.);
#613=LINE('',#610,#612);
#614=EDGE_CURVE('',#68,#210,#613,.T.);
#615=ORIENTED_EDGE('',*,*,#614,.F.);
#616=ORIENTED_EDGE('',*,*,#74,.F.);
#617=EDGE_LOOP('',(#608,#609,#615,#616));
#618=FACE_BOUND('',#617,.T.);
#619=ADVANCED_FACE('',(#618),#607,.F.);
#620=CARTESIAN_POINT('',(-216.02,8.910006157,436.17));
#621=DIRECTION('',(-1.,0.,0.));
#622=DIRECTION('',(0.,0.,1.));
#623=AXIS2_PLACEMENT_3D('',#620,#621,#622);
#624=PLANE('',#623);
#625=ORIENTED_EDGE('',*,*,#80,.T.);
#626=ORIENTED_EDGE('',*,*,#614,.T.);
#627=ORIENTED_EDGE('',*,*,#215,.F.);
#628=CARTESIAN_POINT('',(-216.02,6.910006157,436.24));
#629=DIRECTION('',(0.,-1.,0.));
#630=VECTOR('',#629,2.);
#631=LINE('',#628,#630);
#632=EDGE_CURVE('',#33,#201,#631,.T.);
#633=ORIENTED_EDGE('',*,*,#632,.F.);
#634=EDGE_LOOP('',(#625,#626,#627,#633));
#635=FACE_BOUND('',#634,.T.);
#636=ADVANCED_FACE('',(#635),#624,.T.);
#637=CARTESIAN_POINT('',(-216.47,8.910006157,436.24));
#638=DIRECTION('',(0.,-1.,0.));
#639=DIRECTION('',(0.,0.,-1.));
#640=AXIS2_PLACEMENT_3D('',#637,#638,#639);
#641=CYLINDRICAL_SURFACE('',#640,0.45);
#642=ORIENTED_EDGE('',*,*,#632,.T.);
#643=ORIENTED_EDGE('',*,*,#207,.T.);
#644=ORIENTED_EDGE('',*,*,#556,.F.);
#645=ORIENTED_EDGE('',*,*,#41,.F.);
#646=EDGE_LOOP('',(#642,#643,#644,#645));
#647=FACE_BOUND('',#646,.T.);
#648=ADVANCED_FACE('',(#647),#641,.F.);
#649=CLOSED_SHELL('',(#184,#342,#364,#381,#398,#415,#432,#449,#466,#483,#500,#517,#534,#546,#568,#585,#602,#619,#636,#648));
#650=MANIFOLD_SOLID_BREP('Body 02',#649);
#651=COLOUR_RGB('',0.494117647,0.494117647,0.525490224);
#652=FILL_AREA_STYLE_COLOUR('',#651);
#653=FILL_AREA_STYLE('',(#652));
#654=SURFACE_STYLE_FILL_AREA(#653);
#655=SURFACE_SIDE_STYLE('',(#654));
#656=SURFACE_STYLE_USAGE(.BOTH.,#655);
#657=PRESENTATION_STYLE_ASSIGNMENT((#656));
#26=STYLED_ITEM('',(#657),#650);
#16=SHAPE_REPRESENTATION('Body 02',(#15),#10);
#17=ADVANCED_BREP_SHAPE_REPRESENTATION('Body 02',(#650),#10);
#665=SHAPE_REPRESENTATION_RELATIONSHIP('','',#16,#17);
#666=CARTESIAN_POINT('',(0.,0.,0.));
#667=DIRECTION('',(0.,0.,1.));
#668=DIRECTION('',(1.,0.,0.));
#669=AXIS2_PLACEMENT_3D('',#666,#667,#668);
#671=MAPPED_ITEM('',#670,#669);
#670=REPRESENTATION_MAP(#669,#16);
#672=APPLICATION_CONTEXT('Managed model based 3d engineering');
#673=APPLICATION_PROTOCOL_DEFINITION('international standard','ap242_managed_model_based_3d_engineering',2013,#672);
#674=PRODUCT_CONTEXT('',#672,'mechanical');
#675=PRODUCT_DEFINITION_CONTEXT('part definition',#672,'design');
#24=PRODUCT('Body 02','Body 02','',(#674));
#676=PRODUCT_RELATED_PRODUCT_CATEGORY('part','',(#24));
#677=PRODUCT_DEFINITION_FORMATION_WITH_SPECIFIED_SOURCE('','',#24,.NOT_KNOWN.);
#25=PRODUCT_DEFINITION('design','',#677,#675);
#23=PRODUCT_DEFINITION_SHAPE('','',#25);
#678=SHAPE_DEFINITION_REPRESENTATION(#23,#16);
#11=DRAUGHTING_MODEL('',(#671),#10);
#679=DESCRIPTIVE_REPRESENTATION_ITEM('KEY','C:\\Users\\cullm\\AppData\\Local\\Packages\\Shapr3D.Shapr3D_dvv5p1vgwv6mp\\TempState\\ed58b30c-3757-4641-be0e-fbb1f1323498.tmp');
#680=PROPERTY_DEFINITION('KEY','',#25);
#681=REPRESENTATION('',(#679),#10);
#682=PROPERTY_DEFINITION_REPRESENTATION(#680,#681);
#683=GENERAL_PROPERTY('','KEY','');
#684=GENERAL_PROPERTY_ASSOCIATION('','',#683,#680);
#1=MECHANICAL_DESIGN_GEOMETRIC_PRESENTATION_REPRESENTATION('',(#26),#10);
ENDSEC;
END-ISO-10303-21;
