ISO-10303-21;
HEADER;

/* File generated by Shapr3D Version 5.710.7459.0 */

FILE_DESCRIPTION(('HOOPS Exchange Step'),'2;1');

FILE_NAME('C:\\Users\\cullm\\AppData\\Local\\Packages\\Shapr3D.Shapr3D_dvv5p1vgwv6mp\\TempState\\export\\temp_export',
'2024-09-14T06:15:31-04:00',
('cullm'),
('Shapr3D Limited'),
'HOOPS Exchange 2024.2',
'Shapr3D',
'Authorized');

FILE_SCHEMA( ('AP242_MANAGED_MODEL_BASED_3D_ENGINEERING_MIM_LF {1 0 10303 442 1 1 4 }') );

ENDSEC;

DATA;
#3=(NAMED_UNIT(*)PLANE_ANGLE_UNIT()SI_UNIT($,.RADIAN.));
#4=PLANE_ANGLE_MEASURE_WITH_UNIT(PLANE_ANGLE_MEASURE(0.0174532925),#3);
#5=(CONVERSION_BASED_UNIT('DEGREE',#4)NAMED_UNIT(#6)PLANE_ANGLE_UNIT());
#6=DIMENSIONAL_EXPONENTS(0.,0.,0.,0.,0.,0.,0.);
#7=(NAMED_UNIT(*)SI_UNIT($,.STERADIAN.)SOLID_ANGLE_UNIT());
#8=(LENGTH_UNIT()NAMED_UNIT(*)SI_UNIT(.MILLI.,.METRE.));
#9=UNCERTAINTY_MEASURE_WITH_UNIT(LENGTH_MEASURE(1.000000E-05),#8,'DISTANCE_ACCURACY_VALUE','Maximum Tolerance applied to model');
#10=(GEOMETRIC_REPRESENTATION_CONTEXT(3)GLOBAL_UNCERTAINTY_ASSIGNED_CONTEXT((#9))GLOBAL_UNIT_ASSIGNED_CONTEXT((#8,#5,#7))REPRESENTATION_CONTEXT('','Body 02'));
#12=CARTESIAN_POINT('',(0.,0.,0.));
#13=DIRECTION('',(0.,0.,1.));
#14=DIRECTION('',(1.,0.,0.));
#15=AXIS2_PLACEMENT_3D('',#12,#13,#14);
#27=CARTESIAN_POINT('',(0.,6.910006157,0.));
#28=DIRECTION('',(0.,-1.,0.));
#29=DIRECTION('',(0.,0.,-1.));
#30=AXIS2_PLACEMENT_3D('',#27,#28,#29);
#31=PLANE('',#30);
#32=CARTESIAN_POINT('',(-236.7,6.910006157,435.629));
#33=VERTEX_POINT('',#32);
#34=CARTESIAN_POINT('',(-243.549967146,6.910006157,435.629));
#35=VERTEX_POINT('',#34);
#36=CARTESIAN_POINT('',(-236.7,6.910006157,435.629));
#37=DIRECTION('',(-1.,0.,0.));
#38=VECTOR('',#37,6.849967146);
#39=LINE('',#36,#38);
#40=EDGE_CURVE('',#33,#35,#39,.T.);
#41=ORIENTED_EDGE('',*,*,#40,.F.);
#42=CARTESIAN_POINT('',(-236.150345791,6.910006157,436.1595));
#43=VERTEX_POINT('',#42);
#44=CARTESIAN_POINT('',(-236.7,6.910006157,436.179));
#45=DIRECTION('',(0.,-1.,0.));
#46=DIRECTION('',(0.,0.,-1.));
#47=AXIS2_PLACEMENT_3D('',#44,#45,#46);
#48=CIRCLE('',#47,0.55);
#49=EDGE_CURVE('',#33,#43,#48,.T.);
#50=ORIENTED_EDGE('',*,*,#49,.T.);
#51=CARTESIAN_POINT('',(-236.7,6.910006157,436.69));
#52=VERTEX_POINT('',#51);
#53=CARTESIAN_POINT('',(-236.7,6.910006157,436.14));
#54=DIRECTION('',(0.,-1.,0.));
#55=DIRECTION('',(0.,0.,-1.));
#56=AXIS2_PLACEMENT_3D('',#53,#54,#55);
#57=CIRCLE('',#56,0.55);
#58=EDGE_CURVE('',#43,#52,#57,.T.);
#59=ORIENTED_EDGE('',*,*,#58,.T.);
#60=CARTESIAN_POINT('',(-243.549967146,6.910006157,436.69));
#61=VERTEX_POINT('',#60);
#62=CARTESIAN_POINT('',(-236.7,6.910006157,436.69));
#63=DIRECTION('',(-1.,0.,0.));
#64=VECTOR('',#63,6.849967146);
#65=LINE('',#62,#64);
#66=EDGE_CURVE('',#52,#61,#65,.T.);
#67=ORIENTED_EDGE('',*,*,#66,.T.);
#68=CARTESIAN_POINT('',(-243.549967146,6.910006157,435.629));
#69=DIRECTION('',(0.,0.,1.));
#70=VECTOR('',#69,1.061);
#71=LINE('',#68,#70);
#72=EDGE_CURVE('',#35,#61,#71,.T.);
#73=ORIENTED_EDGE('',*,*,#72,.F.);
#74=EDGE_LOOP('',(#41,#50,#59,#67,#73));
#75=FACE_BOUND('',#74,.T.);
#76=CARTESIAN_POINT('',(-235.44,6.910006157,436.98));
#77=VERTEX_POINT('',#76);
#78=CARTESIAN_POINT('',(-235.99,6.910006157,437.53));
#79=VERTEX_POINT('',#78);
#80=CARTESIAN_POINT('',(-235.99,6.910006157,436.98));
#81=DIRECTION('',(0.,-1.,0.));
#82=DIRECTION('',(0.,0.,-1.));
#83=AXIS2_PLACEMENT_3D('',#80,#81,#82);
#84=CIRCLE('',#83,0.55);
#85=EDGE_CURVE('',#77,#79,#84,.T.);
#86=ORIENTED_EDGE('',*,*,#85,.F.);
#87=CARTESIAN_POINT('',(-235.44,6.910006157,435.44));
#88=VERTEX_POINT('',#87);
#89=CARTESIAN_POINT('',(-235.44,6.910006157,435.44));
#90=DIRECTION('',(0.,0.,1.));
#91=VECTOR('',#90,1.54);
#92=LINE('',#89,#91);
#93=EDGE_CURVE('',#88,#77,#92,.T.);
#94=ORIENTED_EDGE('',*,*,#93,.F.);
#95=CARTESIAN_POINT('',(-235.99,6.910006157,434.89));
#96=VERTEX_POINT('',#95);
#97=CARTESIAN_POINT('',(-235.99,6.910006157,435.44));
#98=DIRECTION('',(0.,-1.,0.));
#99=DIRECTION('',(0.,0.,-1.));
#100=AXIS2_PLACEMENT_3D('',#97,#98,#99);
#101=CIRCLE('',#100,0.55);
#102=EDGE_CURVE('',#96,#88,#101,.T.);
#103=ORIENTED_EDGE('',*,*,#102,.F.);
#104=CARTESIAN_POINT('',(-243.55,6.910006157,434.89));
#105=VERTEX_POINT('',#104);
#106=CARTESIAN_POINT('',(-243.55,6.910006157,434.89));
#107=DIRECTION('',(1.,0.,-0.));
#108=VECTOR('',#107,7.56);
#109=LINE('',#106,#108);
#110=EDGE_CURVE('',#105,#96,#109,.T.);
#111=ORIENTED_EDGE('',*,*,#110,.F.);
#112=CARTESIAN_POINT('',(-243.55,6.910006157,432.85));
#113=VERTEX_POINT('',#112);
#114=CARTESIAN_POINT('',(-243.55,6.910006157,432.85));
#115=DIRECTION('',(0.,0.,1.));
#116=VECTOR('',#115,2.04);
#117=LINE('',#114,#116);
#118=EDGE_CURVE('',#113,#105,#117,.T.);
#119=ORIENTED_EDGE('',*,*,#118,.F.);
#120=CARTESIAN_POINT('',(-244.23,6.910006157,432.85));
#121=VERTEX_POINT('',#120);
#122=CARTESIAN_POINT('',(-244.23,6.910006157,432.85));
#123=DIRECTION('',(1.,0.,-0.));
#124=VECTOR('',#123,0.68);
#125=LINE('',#122,#124);
#126=EDGE_CURVE('',#121,#113,#125,.T.);
#127=ORIENTED_EDGE('',*,*,#126,.F.);
#128=CARTESIAN_POINT('',(-244.23,6.910006157,437.53));
#129=VERTEX_POINT('',#128);
#130=CARTESIAN_POINT('',(-244.23,6.910006157,432.85));
#131=DIRECTION('',(0.,0.,1.));
#132=VECTOR('',#131,4.68);
#133=LINE('',#130,#132);
#134=EDGE_CURVE('',#121,#129,#133,.T.);
#135=ORIENTED_EDGE('',*,*,#134,.T.);
#136=CARTESIAN_POINT('',(-235.99,6.910006157,437.53));
#137=DIRECTION('',(-1.,0.,0.));
#138=VECTOR('',#137,8.24);
#139=LINE('',#136,#138);
#140=EDGE_CURVE('',#79,#129,#139,.T.);
#141=ORIENTED_EDGE('',*,*,#140,.F.);
#142=EDGE_LOOP('',(#86,#94,#103,#111,#119,#127,#135,#141));
#143=FACE_BOUND('',#142,.T.);
#144=ADVANCED_FACE('',(#75,#143),#31,.F.);
#145=CARTESIAN_POINT('',(0.,4.910006157,0.));
#146=DIRECTION('',(0.,-1.,0.));
#147=DIRECTION('',(0.,0.,-1.));
#148=AXIS2_PLACEMENT_3D('',#145,#146,#147);
#149=PLANE('',#148);
#150=CARTESIAN_POINT('',(-236.7,4.910006157,435.629));
#151=VERTEX_POINT('',#150);
#152=CARTESIAN_POINT('',(-236.150345791,4.910006157,436.1595));
#153=VERTEX_POINT('',#152);
#154=CARTESIAN_POINT('',(-236.7,4.910006157,436.179));
#155=DIRECTION('',(0.,-1.,0.));
#156=DIRECTION('',(0.,0.,-1.));
#157=AXIS2_PLACEMENT_3D('',#154,#155,#156);
#158=CIRCLE('',#157,0.55);
#159=EDGE_CURVE('',#151,#153,#158,.T.);
#160=ORIENTED_EDGE('',*,*,#159,.F.);
#161=CARTESIAN_POINT('',(-243.549967146,4.910006157,435.629));
#162=VERTEX_POINT('',#161);
#163=CARTESIAN_POINT('',(-236.7,4.910006157,435.629));
#164=DIRECTION('',(-1.,0.,0.));
#165=VECTOR('',#164,6.849967146);
#166=LINE('',#163,#165);
#167=EDGE_CURVE('',#151,#162,#166,.T.);
#168=ORIENTED_EDGE('',*,*,#167,.T.);
#169=CARTESIAN_POINT('',(-243.549967146,4.910006157,436.69));
#170=VERTEX_POINT('',#169);
#171=CARTESIAN_POINT('',(-243.549967146,4.910006157,435.629));
#172=DIRECTION('',(0.,0.,1.));
#173=VECTOR('',#172,1.061);
#174=LINE('',#171,#173);
#175=EDGE_CURVE('',#162,#170,#174,.T.);
#176=ORIENTED_EDGE('',*,*,#175,.T.);
#177=CARTESIAN_POINT('',(-236.7,4.910006157,436.69));
#178=VERTEX_POINT('',#177);
#179=CARTESIAN_POINT('',(-236.7,4.910006157,436.69));
#180=DIRECTION('',(-1.,0.,0.));
#181=VECTOR('',#180,6.849967146);
#182=LINE('',#179,#181);
#183=EDGE_CURVE('',#178,#170,#182,.T.);
#184=ORIENTED_EDGE('',*,*,#183,.F.);
#185=CARTESIAN_POINT('',(-236.7,4.910006157,436.14));
#186=DIRECTION('',(0.,-1.,0.));
#187=DIRECTION('',(0.,0.,-1.));
#188=AXIS2_PLACEMENT_3D('',#185,#186,#187);
#189=CIRCLE('',#188,0.55);
#190=EDGE_CURVE('',#153,#178,#189,.T.);
#191=ORIENTED_EDGE('',*,*,#190,.F.);
#192=EDGE_LOOP('',(#160,#168,#176,#184,#191));
#193=FACE_BOUND('',#192,.T.);
#194=CARTESIAN_POINT('',(-235.44,4.910006157,435.44));
#195=VERTEX_POINT('',#194);
#196=CARTESIAN_POINT('',(-235.44,4.910006157,436.98));
#197=VERTEX_POINT('',#196);
#198=CARTESIAN_POINT('',(-235.44,4.910006157,435.44));
#199=DIRECTION('',(0.,0.,1.));
#200=VECTOR('',#199,1.54);
#201=LINE('',#198,#200);
#202=EDGE_CURVE('',#195,#197,#201,.T.);
#203=ORIENTED_EDGE('',*,*,#202,.T.);
#204=CARTESIAN_POINT('',(-235.99,4.910006157,437.53));
#205=VERTEX_POINT('',#204);
#206=CARTESIAN_POINT('',(-235.99,4.910006157,436.98));
#207=DIRECTION('',(0.,-1.,0.));
#208=DIRECTION('',(0.,0.,-1.));
#209=AXIS2_PLACEMENT_3D('',#206,#207,#208);
#210=CIRCLE('',#209,0.55);
#211=EDGE_CURVE('',#197,#205,#210,.T.);
#212=ORIENTED_EDGE('',*,*,#211,.T.);
#213=CARTESIAN_POINT('',(-244.23,4.910006157,437.53));
#214=VERTEX_POINT('',#213);
#215=CARTESIAN_POINT('',(-235.99,4.910006157,437.53));
#216=DIRECTION('',(-1.,0.,0.));
#217=VECTOR('',#216,8.24);
#218=LINE('',#215,#217);
#219=EDGE_CURVE('',#205,#214,#218,.T.);
#220=ORIENTED_EDGE('',*,*,#219,.T.);
#221=CARTESIAN_POINT('',(-244.23,4.910006157,432.85));
#222=VERTEX_POINT('',#221);
#223=CARTESIAN_POINT('',(-244.23,4.910006157,432.85));
#224=DIRECTION('',(0.,0.,1.));
#225=VECTOR('',#224,4.68);
#226=LINE('',#223,#225);
#227=EDGE_CURVE('',#222,#214,#226,.T.);
#228=ORIENTED_EDGE('',*,*,#227,.F.);
#229=CARTESIAN_POINT('',(-243.55,4.910006157,432.85));
#230=VERTEX_POINT('',#229);
#231=CARTESIAN_POINT('',(-244.23,4.910006157,432.85));
#232=DIRECTION('',(1.,0.,-0.));
#233=VECTOR('',#232,0.68);
#234=LINE('',#231,#233);
#235=EDGE_CURVE('',#222,#230,#234,.T.);
#236=ORIENTED_EDGE('',*,*,#235,.T.);
#237=CARTESIAN_POINT('',(-243.55,4.910006157,434.89));
#238=VERTEX_POINT('',#237);
#239=CARTESIAN_POINT('',(-243.55,4.910006157,432.85));
#240=DIRECTION('',(0.,0.,1.));
#241=VECTOR('',#240,2.04);
#242=LINE('',#239,#241);
#243=EDGE_CURVE('',#230,#238,#242,.T.);
#244=ORIENTED_EDGE('',*,*,#243,.T.);
#245=CARTESIAN_POINT('',(-235.99,4.910006157,434.89));
#246=VERTEX_POINT('',#245);
#247=CARTESIAN_POINT('',(-243.55,4.910006157,434.89));
#248=DIRECTION('',(1.,0.,-0.));
#249=VECTOR('',#248,7.56);
#250=LINE('',#247,#249);
#251=EDGE_CURVE('',#238,#246,#250,.T.);
#252=ORIENTED_EDGE('',*,*,#251,.T.);
#253=CARTESIAN_POINT('',(-235.99,4.910006157,435.44));
#254=DIRECTION('',(0.,-1.,0.));
#255=DIRECTION('',(0.,0.,-1.));
#256=AXIS2_PLACEMENT_3D('',#253,#254,#255);
#257=CIRCLE('',#256,0.55);
#258=EDGE_CURVE('',#246,#195,#257,.T.);
#259=ORIENTED_EDGE('',*,*,#258,.T.);
#260=EDGE_LOOP('',(#203,#212,#220,#228,#236,#244,#252,#259));
#261=FACE_BOUND('',#260,.T.);
#262=ADVANCED_FACE('',(#193,#261),#149,.T.);
#263=CARTESIAN_POINT('',(-236.7,7.810006157,436.179));
#264=DIRECTION('',(0.,-1.,0.));
#265=DIRECTION('',(0.,0.,-1.));
#266=AXIS2_PLACEMENT_3D('',#263,#264,#265);
#267=CYLINDRICAL_SURFACE('',#266,0.55);
#268=CARTESIAN_POINT('',(-236.7,6.910006157,435.629));
#269=DIRECTION('',(0.,-1.,0.));
#270=VECTOR('',#269,2.);
#271=LINE('',#268,#270);
#272=EDGE_CURVE('',#33,#151,#271,.T.);
#273=ORIENTED_EDGE('',*,*,#272,.T.);
#274=ORIENTED_EDGE('',*,*,#159,.T.);
#275=CARTESIAN_POINT('',(-236.150345791,6.910006157,436.1595));
#276=DIRECTION('',(0.,-1.,0.));
#277=VECTOR('',#276,2.);
#278=LINE('',#275,#277);
#279=EDGE_CURVE('',#43,#153,#278,.T.);
#280=ORIENTED_EDGE('',*,*,#279,.F.);
#281=ORIENTED_EDGE('',*,*,#49,.F.);
#282=EDGE_LOOP('',(#273,#274,#280,#281));
#283=FACE_BOUND('',#282,.T.);
#284=ADVANCED_FACE('',(#283),#267,.F.);
#285=CARTESIAN_POINT('',(-236.7,7.810006157,436.14));
#286=DIRECTION('',(0.,-1.,0.));
#287=DIRECTION('',(0.,0.,-1.));
#288=AXIS2_PLACEMENT_3D('',#285,#286,#287);
#289=CYLINDRICAL_SURFACE('',#288,0.55);
#290=ORIENTED_EDGE('',*,*,#279,.T.);
#291=ORIENTED_EDGE('',*,*,#190,.T.);
#292=CARTESIAN_POINT('',(-236.7,6.910006157,436.69));
#293=DIRECTION('',(0.,-1.,0.));
#294=VECTOR('',#293,2.);
#295=LINE('',#292,#294);
#296=EDGE_CURVE('',#52,#178,#295,.T.);
#297=ORIENTED_EDGE('',*,*,#296,.F.);
#298=ORIENTED_EDGE('',*,*,#58,.F.);
#299=EDGE_LOOP('',(#290,#291,#297,#298));
#300=FACE_BOUND('',#299,.T.);
#301=ADVANCED_FACE('',(#300),#289,.F.);
#302=CARTESIAN_POINT('',(-240.124983573,7.810006157,436.69));
#303=DIRECTION('',(0.,0.,1.));
#304=DIRECTION('',(1.,0.,0.));
#305=AXIS2_PLACEMENT_3D('',#302,#303,#304);
#306=PLANE('',#305);
#307=ORIENTED_EDGE('',*,*,#296,.T.);
#308=ORIENTED_EDGE('',*,*,#183,.T.);
#309=CARTESIAN_POINT('',(-243.549967146,6.910006157,436.69));
#310=DIRECTION('',(0.,-1.,0.));
#311=VECTOR('',#310,2.);
#312=LINE('',#309,#311);
#313=EDGE_CURVE('',#61,#170,#312,.T.);
#314=ORIENTED_EDGE('',*,*,#313,.F.);
#315=ORIENTED_EDGE('',*,*,#66,.F.);
#316=EDGE_LOOP('',(#307,#308,#314,#315));
#317=FACE_BOUND('',#316,.T.);
#318=ADVANCED_FACE('',(#317),#306,.F.);
#319=CARTESIAN_POINT('',(-243.549967146,7.810006157,436.1595));
#320=DIRECTION('',(1.,0.,0.));
#321=DIRECTION('',(0.,0.,-1.));
#322=AXIS2_PLACEMENT_3D('',#319,#320,#321);
#323=PLANE('',#322);
#324=ORIENTED_EDGE('',*,*,#72,.T.);
#325=ORIENTED_EDGE('',*,*,#313,.T.);
#326=ORIENTED_EDGE('',*,*,#175,.F.);
#327=CARTESIAN_POINT('',(-243.549967146,6.910006157,435.629));
#328=DIRECTION('',(0.,-1.,0.));
#329=VECTOR('',#328,2.);
#330=LINE('',#327,#329);
#331=EDGE_CURVE('',#35,#162,#330,.T.);
#332=ORIENTED_EDGE('',*,*,#331,.F.);
#333=EDGE_LOOP('',(#324,#325,#326,#332));
#334=FACE_BOUND('',#333,.T.);
#335=ADVANCED_FACE('',(#334),#323,.T.);
#336=CARTESIAN_POINT('',(-240.124983573,7.810006157,435.629));
#337=DIRECTION('',(0.,0.,1.));
#338=DIRECTION('',(1.,0.,0.));
#339=AXIS2_PLACEMENT_3D('',#336,#337,#338);
#340=PLANE('',#339);
#341=ORIENTED_EDGE('',*,*,#40,.T.);
#342=ORIENTED_EDGE('',*,*,#331,.T.);
#343=ORIENTED_EDGE('',*,*,#167,.F.);
#344=ORIENTED_EDGE('',*,*,#272,.F.);
#345=EDGE_LOOP('',(#341,#342,#343,#344));
#346=FACE_BOUND('',#345,.T.);
#347=ADVANCED_FACE('',(#346),#340,.T.);
#348=CARTESIAN_POINT('',(-235.99,7.910006157,436.98));
#349=DIRECTION('',(0.,-1.,0.));
#350=DIRECTION('',(0.,0.,-1.));
#351=AXIS2_PLACEMENT_3D('',#348,#349,#350);
#352=CYLINDRICAL_SURFACE('',#351,0.55);
#353=ORIENTED_EDGE('',*,*,#85,.T.);
#354=CARTESIAN_POINT('',(-235.99,6.910006157,437.53));
#355=DIRECTION('',(0.,-1.,0.));
#356=VECTOR('',#355,2.);
#357=LINE('',#354,#356);
#358=EDGE_CURVE('',#79,#205,#357,.T.);
#359=ORIENTED_EDGE('',*,*,#358,.T.);
#360=ORIENTED_EDGE('',*,*,#211,.F.);
#361=CARTESIAN_POINT('',(-235.44,6.910006157,436.98));
#362=DIRECTION('',(0.,-1.,0.));
#363=VECTOR('',#362,2.);
#364=LINE('',#361,#363);
#365=EDGE_CURVE('',#77,#197,#364,.T.);
#366=ORIENTED_EDGE('',*,*,#365,.F.);
#367=EDGE_LOOP('',(#353,#359,#360,#366));
#368=FACE_BOUND('',#367,.T.);
#369=ADVANCED_FACE('',(#368),#352,.T.);
#370=CARTESIAN_POINT('',(-235.44,7.910006157,436.21));
#371=DIRECTION('',(1.,0.,0.));
#372=DIRECTION('',(0.,0.,-1.));
#373=AXIS2_PLACEMENT_3D('',#370,#371,#372);
#374=PLANE('',#373);
#375=ORIENTED_EDGE('',*,*,#93,.T.);
#376=ORIENTED_EDGE('',*,*,#365,.T.);
#377=ORIENTED_EDGE('',*,*,#202,.F.);
#378=CARTESIAN_POINT('',(-235.44,6.910006157,435.44));
#379=DIRECTION('',(0.,-1.,0.));
#380=VECTOR('',#379,2.);
#381=LINE('',#378,#380);
#382=EDGE_CURVE('',#88,#195,#381,.T.);
#383=ORIENTED_EDGE('',*,*,#382,.F.);
#384=EDGE_LOOP('',(#375,#376,#377,#383));
#385=FACE_BOUND('',#384,.T.);
#386=ADVANCED_FACE('',(#385),#374,.T.);
#387=CARTESIAN_POINT('',(-235.99,7.910006157,435.44));
#388=DIRECTION('',(0.,-1.,0.));
#389=DIRECTION('',(0.,0.,-1.));
#390=AXIS2_PLACEMENT_3D('',#387,#388,#389);
#391=CYLINDRICAL_SURFACE('',#390,0.55);
#392=ORIENTED_EDGE('',*,*,#102,.T.);
#393=ORIENTED_EDGE('',*,*,#382,.T.);
#394=ORIENTED_EDGE('',*,*,#258,.F.);
#395=CARTESIAN_POINT('',(-235.99,6.910006157,434.89));
#396=DIRECTION('',(0.,-1.,0.));
#397=VECTOR('',#396,2.);
#398=LINE('',#395,#397);
#399=EDGE_CURVE('',#96,#246,#398,.T.);
#400=ORIENTED_EDGE('',*,*,#399,.F.);
#401=EDGE_LOOP('',(#392,#393,#394,#400));
#402=FACE_BOUND('',#401,.T.);
#403=ADVANCED_FACE('',(#402),#391,.T.);
#404=CARTESIAN_POINT('',(-239.77,7.910006157,434.89));
#405=DIRECTION('',(0.,0.,-1.));
#406=DIRECTION('',(-1.,0.,0.));
#407=AXIS2_PLACEMENT_3D('',#404,#405,#406);
#408=PLANE('',#407);
#409=ORIENTED_EDGE('',*,*,#110,.T.);
#410=ORIENTED_EDGE('',*,*,#399,.T.);
#411=ORIENTED_EDGE('',*,*,#251,.F.);
#412=CARTESIAN_POINT('',(-243.55,6.910006157,434.89));
#413=DIRECTION('',(0.,-1.,0.));
#414=VECTOR('',#413,2.);
#415=LINE('',#412,#414);
#416=EDGE_CURVE('',#105,#238,#415,.T.);
#417=ORIENTED_EDGE('',*,*,#416,.F.);
#418=EDGE_LOOP('',(#409,#410,#411,#417));
#419=FACE_BOUND('',#418,.T.);
#420=ADVANCED_FACE('',(#419),#408,.T.);
#421=CARTESIAN_POINT('',(-243.55,7.910006157,433.87));
#422=DIRECTION('',(1.,0.,0.));
#423=DIRECTION('',(0.,0.,-1.));
#424=AXIS2_PLACEMENT_3D('',#421,#422,#423);
#425=PLANE('',#424);
#426=ORIENTED_EDGE('',*,*,#118,.T.);
#427=ORIENTED_EDGE('',*,*,#416,.T.);
#428=ORIENTED_EDGE('',*,*,#243,.F.);
#429=CARTESIAN_POINT('',(-243.55,6.910006157,432.85));
#430=DIRECTION('',(0.,-1.,0.));
#431=VECTOR('',#430,2.);
#432=LINE('',#429,#431);
#433=EDGE_CURVE('',#113,#230,#432,.T.);
#434=ORIENTED_EDGE('',*,*,#433,.F.);
#435=EDGE_LOOP('',(#426,#427,#428,#434));
#436=FACE_BOUND('',#435,.T.);
#437=ADVANCED_FACE('',(#436),#425,.T.);
#438=CARTESIAN_POINT('',(-243.89,7.910006157,432.85));
#439=DIRECTION('',(0.,0.,-1.));
#440=DIRECTION('',(-1.,0.,0.));
#441=AXIS2_PLACEMENT_3D('',#438,#439,#440);
#442=PLANE('',#441);
#443=ORIENTED_EDGE('',*,*,#126,.T.);
#444=ORIENTED_EDGE('',*,*,#433,.T.);
#445=ORIENTED_EDGE('',*,*,#235,.F.);
#446=CARTESIAN_POINT('',(-244.23,6.910006157,432.85));
#447=DIRECTION('',(0.,-1.,0.));
#448=VECTOR('',#447,2.);
#449=LINE('',#446,#448);
#450=EDGE_CURVE('',#121,#222,#449,.T.);
#451=ORIENTED_EDGE('',*,*,#450,.F.);
#452=EDGE_LOOP('',(#443,#444,#445,#451));
#453=FACE_BOUND('',#452,.T.);
#454=ADVANCED_FACE('',(#453),#442,.T.);
#455=CARTESIAN_POINT('',(-244.23,7.910006157,435.19));
#456=DIRECTION('',(1.,0.,0.));
#457=DIRECTION('',(0.,0.,-1.));
#458=AXIS2_PLACEMENT_3D('',#455,#456,#457);
#459=PLANE('',#458);
#460=ORIENTED_EDGE('',*,*,#450,.T.);
#461=ORIENTED_EDGE('',*,*,#227,.T.);
#462=CARTESIAN_POINT('',(-244.23,6.910006157,437.53));
#463=DIRECTION('',(0.,-1.,0.));
#464=VECTOR('',#463,2.);
#465=LINE('',#462,#464);
#466=EDGE_CURVE('',#129,#214,#465,.T.);
#467=ORIENTED_EDGE('',*,*,#466,.F.);
#468=ORIENTED_EDGE('',*,*,#134,.F.);
#469=EDGE_LOOP('',(#460,#461,#467,#468));
#470=FACE_BOUND('',#469,.T.);
#471=ADVANCED_FACE('',(#470),#459,.F.);
#472=CARTESIAN_POINT('',(-240.11,7.910006157,437.53));
#473=DIRECTION('',(0.,0.,1.));
#474=DIRECTION('',(1.,0.,0.));
#475=AXIS2_PLACEMENT_3D('',#472,#473,#474);
#476=PLANE('',#475);
#477=ORIENTED_EDGE('',*,*,#140,.T.);
#478=ORIENTED_EDGE('',*,*,#466,.T.);
#479=ORIENTED_EDGE('',*,*,#219,.F.);
#480=ORIENTED_EDGE('',*,*,#358,.F.);
#481=EDGE_LOOP('',(#477,#478,#479,#480));
#482=FACE_BOUND('',#481,.T.);
#483=ADVANCED_FACE('',(#482),#476,.T.);
#484=CLOSED_SHELL('',(#144,#262,#284,#301,#318,#335,#347,#369,#386,#403,#420,#437,#454,#471,#483));
#485=MANIFOLD_SOLID_BREP('Body 02',#484);
#486=COLOUR_RGB('',0.494117647,0.494117647,0.525490224);
#487=FILL_AREA_STYLE_COLOUR('',#486);
#488=FILL_AREA_STYLE('',(#487));
#489=SURFACE_STYLE_FILL_AREA(#488);
#490=SURFACE_SIDE_STYLE('',(#489));
#491=SURFACE_STYLE_USAGE(.BOTH.,#490);
#492=PRESENTATION_STYLE_ASSIGNMENT((#491));
#26=STYLED_ITEM('',(#492),#485);
#16=SHAPE_REPRESENTATION('Body 02',(#15),#10);
#17=ADVANCED_BREP_SHAPE_REPRESENTATION('Body 02',(#485),#10);
#500=SHAPE_REPRESENTATION_RELATIONSHIP('','',#16,#17);
#501=CARTESIAN_POINT('',(0.,0.,0.));
#502=DIRECTION('',(0.,0.,1.));
#503=DIRECTION('',(1.,0.,0.));
#504=AXIS2_PLACEMENT_3D('',#501,#502,#503);
#506=MAPPED_ITEM('',#505,#504);
#505=REPRESENTATION_MAP(#504,#16);
#507=APPLICATION_CONTEXT('Managed model based 3d engineering');
#508=APPLICATION_PROTOCOL_DEFINITION('international standard','ap242_managed_model_based_3d_engineering',2013,#507);
#509=PRODUCT_CONTEXT('',#507,'mechanical');
#510=PRODUCT_DEFINITION_CONTEXT('part definition',#507,'design');
#24=PRODUCT('Body 02','Body 02','',(#509));
#511=PRODUCT_RELATED_PRODUCT_CATEGORY('part','',(#24));
#512=PRODUCT_DEFINITION_FORMATION_WITH_SPECIFIED_SOURCE('','',#24,.NOT_KNOWN.);
#25=PRODUCT_DEFINITION('design','',#512,#510);
#23=PRODUCT_DEFINITION_SHAPE('','',#25);
#513=SHAPE_DEFINITION_REPRESENTATION(#23,#16);
#11=DRAUGHTING_MODEL('',(#506),#10);
#514=DESCRIPTIVE_REPRESENTATION_ITEM('KEY','C:\\Users\\cullm\\AppData\\Local\\Packages\\Shapr3D.Shapr3D_dvv5p1vgwv6mp\\TempState\\b48a686a-3364-4b1c-9526-32afa4839cc7.tmp');
#515=PROPERTY_DEFINITION('KEY','',#25);
#516=REPRESENTATION('',(#514),#10);
#517=PROPERTY_DEFINITION_REPRESENTATION(#515,#516);
#518=GENERAL_PROPERTY('','KEY','');
#519=GENERAL_PROPERTY_ASSOCIATION('','',#518,#515);
#1=MECHANICAL_DESIGN_GEOMETRIC_PRESENTATION_REPRESENTATION('',(#26),#10);
ENDSEC;
END-ISO-10303-21;
